<svg id="_àð_1" data-name="˜àð_1" xmlns="http://www.w3.org/2000/svg" width="172.187" height="115.424" viewBox="0 0 172.187 115.424">
  <g id="Group_440" data-name="Group 440">
    <path id="Path_653" data-name="Path 653" d="M361.51,428.931H259.2a.15.15,0,0,1,0-.3H361.51a.15.15,0,1,1,0,.3Z" transform="translate(-189.473 -313.507)" fill="#404040"/>
    <path id="Path_654" data-name="Path 654" d="M58.817,428.931H.15a.15.15,0,0,1,0-.3H58.817a.15.15,0,0,1,0,.3Z" transform="translate(0 -313.507)" fill="#404040"/>
    <rect id="Rectangle_877" data-name="Rectangle 877" width="63.711" height="115.019" rx="5" transform="translate(73.493 0.15)" fill="#fff"/>
    <path id="Path_655" data-name="Path 655" d="M331.707,115.322h-53.26a5.383,5.383,0,0,1-5.377-5.377V5.377A5.383,5.383,0,0,1,278.447,0h53.26a5.383,5.383,0,0,1,5.377,5.377V109.945a5.383,5.383,0,0,1-5.377,5.377ZM278.447.3a5.08,5.08,0,0,0-5.074,5.074V109.942a5.08,5.08,0,0,0,5.074,5.074h53.26a5.08,5.08,0,0,0,5.074-5.074V5.377A5.08,5.08,0,0,0,331.707.3h-53.26Z" transform="translate(-199.728)" fill="#404040"/>
    <path id="Path_656" data-name="Path 656" d="M339.166,120.95H289.8a3.872,3.872,0,0,1-3.868-3.868V16.028A3.872,3.872,0,0,1,289.8,12.16h49.369a3.872,3.872,0,0,1,3.868,3.868V117.083A3.872,3.872,0,0,1,339.166,120.95ZM289.8,12.461a3.572,3.572,0,0,0-3.567,3.567V117.083a3.572,3.572,0,0,0,3.567,3.567h49.369a3.572,3.572,0,0,0,3.567-3.567V16.028a3.572,3.572,0,0,0-3.567-3.567Z" transform="translate(-209.134 -8.894)" fill="#404040"/>
    <rect id="Rectangle_878" data-name="Rectangle 878" width="14.297" height="0.301" transform="translate(97.459 7.144)" fill="#404040"/>
    <rect id="Rectangle_879" data-name="Rectangle 879" width="55.777" height="86.312" rx="9" transform="translate(67.224 15.081)" fill="#fff"/>
    <path id="Path_657" data-name="Path 657" d="M298.355,142.2h-41.19a7.454,7.454,0,0,1-7.445-7.445V63.025a7.454,7.454,0,0,1,7.445-7.445h41.19a7.454,7.454,0,0,1,7.445,7.445v71.726a7.454,7.454,0,0,1-7.445,7.445Zm-41.19-86.312a7.15,7.15,0,0,0-7.142,7.142v71.726a7.15,7.15,0,0,0,7.142,7.142h41.19a7.15,7.15,0,0,0,7.142-7.142V63.025a7.15,7.15,0,0,0-7.142-7.142Z" transform="translate(-182.649 -40.652)" fill="#404040"/>
    <circle id="Ellipse_141" data-name="Ellipse 141" cx="15.452" cy="15.452" r="15.452" transform="translate(71.593 35.549) rotate(-45)" fill="#fff"/>
    <path id="Path_658" data-name="Path 658" d="M305.422,105.474a15.6,15.6,0,1,1,15.6-15.6A15.62,15.62,0,0,1,305.422,105.474Zm0-30.906a15.3,15.3,0,1,0,15.3,15.3,15.32,15.32,0,0,0-15.3-15.3Z" transform="translate(-211.979 -54.322)" fill="#404040"/>
    <path id="Path_659" data-name="Path 659" d="M366.42,157.715a.152.152,0,0,1-.027-.3,16.8,16.8,0,0,0,13.4-14.552.151.151,0,0,1,.3.032,17.006,17.006,0,0,1-13.647,14.812l-.03,0Z" transform="translate(-267.895 -104.393)" fill="#404040"/>
    <path id="Path_660" data-name="Path 660" d="M325.713,142.685h-7.246c-.763,0-.991-.226-.808-.967a13.2,13.2,0,0,1,.843-2.613,3.57,3.57,0,0,1,3.3-2.076c2.715-.054,5.433-.046,8.146.046a3.479,3.479,0,0,1,3.14,2.219,13.274,13.274,0,0,1,.749,2.479c.156.69-.07.913-.771.913q-3.678,0-7.354,0Z" transform="translate(-232.296 -100.201)" fill="#0a58c9"/>
    <path id="Path_661" data-name="Path 661" d="M329.424,142.43H318.052c-.47,0-.739-.083-.892-.279a.989.989,0,0,1-.064-.876,13.489,13.489,0,0,1,.854-2.643,3.716,3.716,0,0,1,3.438-2.162c2.89-.056,5.557-.04,8.154.046a3.623,3.623,0,0,1,3.274,2.31,13.144,13.144,0,0,1,.757,2.509.952.952,0,0,1-.081.83,1,1,0,0,1-.835.269h-3.228Zm-4.125-.3h7.354c.325,0,.516-.051.6-.156s.089-.287.024-.575a13.353,13.353,0,0,0-.739-2.452,3.331,3.331,0,0,0-3.008-2.13c-2.592-.089-5.254-.1-8.138-.046a3.424,3.424,0,0,0-3.169,1.99,13.371,13.371,0,0,0-.833,2.584c-.075.309-.073.51.011.618s.3.164.653.164H325.3Z" transform="translate(-231.882 -99.792)" fill="#404040"/>
    <path id="Path_662" data-name="Path 662" d="M342.157,104.679a4.794,4.794,0,0,1-.776,2.624,3.277,3.277,0,0,1-5.667.016,4.894,4.894,0,0,1-.132-5.211,3.4,3.4,0,0,1,3.817-1.458,3.27,3.27,0,0,1,2.6,2.764C342.079,103.83,342.106,104.257,342.157,104.679Z" transform="translate(-244.948 -73.552)" fill="#0a58c9"/>
    <path id="Path_663" data-name="Path 663" d="M338.11,108.679h-.021a3.49,3.49,0,0,1-2.909-1.692,5.051,5.051,0,0,1-.14-5.364,3.523,3.523,0,0,1,3.978-1.536,3.412,3.412,0,0,1,2.723,2.885c.054.293.086.591.115.878.013.132.027.263.043.395v.021a4.919,4.919,0,0,1-.8,2.7,3.594,3.594,0,0,1-2.987,1.706Zm-.051-8.383a2.967,2.967,0,0,0-2.753,1.466,4.758,4.758,0,0,0,.126,5.057,3.192,3.192,0,0,0,2.659,1.552h.019a3.3,3.3,0,0,0,2.737-1.571,4.619,4.619,0,0,0,.752-2.533c-.016-.129-.03-.261-.043-.389-.03-.282-.059-.575-.113-.854a3.119,3.119,0,0,0-2.482-2.643,4.842,4.842,0,0,0-.9-.089Z" transform="translate(-244.541 -73.137)" fill="#404040"/>
    <rect id="Rectangle_880" data-name="Rectangle 880" width="28.956" height="8.581" rx="4.291" transform="translate(80.307 59.169)" fill="#deedff"/>
    <path id="Path_664" data-name="Path 664" d="M334.424,236.021H313.45a.15.15,0,0,1,0-.3h20.974a.15.15,0,1,1,0,.3Z" transform="translate(-229.152 -172.409)" fill="#404040"/>
    <rect id="Rectangle_881" data-name="Rectangle 881" width="28.956" height="8.581" rx="4.291" transform="translate(80.307 83.122)" fill="#deedff"/>
    <path id="Path_665" data-name="Path 665" d="M334.424,325.2H313.45a.15.15,0,0,1,0-.3h20.974a.15.15,0,1,1,0,.3Z" transform="translate(-229.152 -237.637)" fill="#404040"/>
    <rect id="Rectangle_882" data-name="Rectangle 882" width="28.956" height="8.581" rx="4.291" transform="translate(80.277 71.145)" fill="#0a58c9"/>
    <circle id="Ellipse_142" data-name="Ellipse 142" cx="1.848" cy="1.848" r="1.848" transform="translate(84.924 73.649)" fill="#fff"/>
    <circle id="Ellipse_143" data-name="Ellipse 143" cx="1.848" cy="1.848" r="1.848" transform="translate(90.285 73.649)" fill="#fff"/>
    <circle id="Ellipse_144" data-name="Ellipse 144" cx="1.848" cy="1.848" r="1.848" transform="translate(95.648 73.649)" fill="#fff"/>
    <circle id="Ellipse_145" data-name="Ellipse 145" cx="1.848" cy="1.848" r="1.848" transform="translate(101.009 73.649)" fill="#fff"/>
    <path id="Path_666" data-name="Path 666" d="M455.071,230.976a.148.148,0,0,1-.129-.075.15.15,0,0,1,.054-.207,15.241,15.241,0,0,1,1.969-.975.151.151,0,0,1,.113.279,14.779,14.779,0,0,0-1.928.953.162.162,0,0,1-.078.021Z" transform="translate(-332.736 -168.011)" fill="#404040"/>
    <path id="Path_667" data-name="Path 667" d="M225.315,245.465h0a2.2,2.2,0,0,1,.47-3.081l1.958-1.44a2.2,2.2,0,0,1,3.081.47h0a2.2,2.2,0,0,1-.47,3.081l-1.958,1.44A2.2,2.2,0,0,1,225.315,245.465Z" transform="translate(-164.486 -175.918)" fill="#0a58c9"/>
    <path id="Path_668" data-name="Path 668" d="M240.065,265.525h0a2.2,2.2,0,0,1,.47-3.081l1.958-1.44a2.2,2.2,0,0,1,3.081.47h0a2.2,2.2,0,0,1-.47,3.081L243.146,266A2.2,2.2,0,0,1,240.065,265.525Z" transform="translate(-175.274 -190.59)" fill="#0a58c9"/>
    <path id="Path_669" data-name="Path 669" d="M222.731,213.205,207.11,191.963l5.509-4.053,15.621,21.242a3.42,3.42,0,0,1-.728,4.781h0A3.42,3.42,0,0,1,222.731,213.205Z" transform="translate(-151.483 -137.44)" fill="#0a58c9"/>
    <path id="Path_670" data-name="Path 670" d="M217.848,206.856a.15.15,0,0,1-.121-.062L201.36,184.536a.141.141,0,0,1-.027-.113.148.148,0,0,1,.059-.1l5.509-4.053a.154.154,0,0,1,.212.032l12.094,16.448a.152.152,0,0,1-.244.18l-12.006-16.325-5.267,3.873,16.276,22.134a.154.154,0,0,1-.032.212.159.159,0,0,1-.089.03Z" transform="translate(-147.256 -131.832)" fill="#404040"/>
    <circle id="Ellipse_146" data-name="Ellipse 146" cx="13.564" cy="13.564" r="13.564" transform="matrix(0.379, -0.926, 0.926, 0.379, 33.971, 50.452)" fill="#0a58c9"/>
    <circle id="Ellipse_147" data-name="Ellipse 147" cx="2.962" cy="2.962" r="2.962" transform="translate(48.278 38.986) rotate(-81.55)" fill="#fff"/>
    <path id="Path_671" data-name="Path 671" d="M155.022,136.609a14.2,14.2,0,0,1-2.1-.158,13.715,13.715,0,1,1,10.193-2.509l-.089-.121.089.121a13.61,13.61,0,0,1-8.1,2.67Zm-.059-27.135a13.413,13.413,0,1,0,7.974,24.218h0a13.412,13.412,0,0,0-5.925-24.063,13.553,13.553,0,0,0-2.049-.156Z" transform="translate(-103.33 -79.852)" fill="#404040"/>
    <path id="Path_672" data-name="Path 672" d="M89.484,157.73a4.916,4.916,0,0,0,1.9,6.588c.064.035.129.07.193.1h0a7.326,7.326,0,0,0,3.148.7c1.356-.027,4.754-4.606,6.562-12.14l-7.373-3.672-4.432,8.42Z" transform="translate(-65.03 -109.208)" fill="#fff"/>
    <path id="Path_673" data-name="Path 673" d="M94.212,164.864a7.425,7.425,0,0,1-3.1-.72l-.2-.1a5.082,5.082,0,0,1-1.963-6.79l4.432-8.42a.151.151,0,0,1,.2-.064l7.373,3.672a.153.153,0,0,1,.081.169,33,33,0,0,1-3.467,8.925c-1.214,2.039-2.455,3.314-3.239,3.328h-.118ZM93.578,149.1l-4.362,8.289a4.78,4.78,0,0,0,1.842,6.384c.062.035.124.067.188.1a7.226,7.226,0,0,0,3.075.685c1.244-.024,4.6-4.558,6.39-11.906Zm-4.5,8.216Z" transform="translate(-64.627 -108.797)" fill="#404040"/>
    <path id="Path_674" data-name="Path 674" d="M174.09,408.782v5.283h15.054l.244-.521a1.47,1.47,0,0,0-.835-2.006l-7.993-2.887Z" transform="translate(-127.332 -298.893)" fill="#fff"/>
    <path id="Path_675" data-name="Path 675" d="M188.745,413.805H173.69a.15.15,0,0,1-.15-.15v-5.283a.148.148,0,0,1,.148-.15l6.47-.132a.174.174,0,0,1,.054.008l7.993,2.887a1.627,1.627,0,0,1,.921,2.216l-.244.521a.148.148,0,0,1-.137.086Zm-14.9-.3h14.807l.2-.432a1.324,1.324,0,0,0-.749-1.8l-7.966-2.877-6.3.129V413.5Z" transform="translate(-126.93 -298.483)" fill="#404040"/>
    <path id="Path_676" data-name="Path 676" d="M92.953,408.782v5.283h15.054l.242-.521a1.47,1.47,0,0,0-.835-2.006L99.42,408.65l-6.47.132Z" transform="translate(-67.985 -298.893)" fill="#fff"/>
    <path id="Path_677" data-name="Path 677" d="M107.615,413.805H92.56a.15.15,0,0,1-.15-.15v-5.283a.148.148,0,0,1,.148-.15l6.47-.132a.174.174,0,0,1,.054.008l7.993,2.887A1.627,1.627,0,0,1,108,413.2l-.242.521a.148.148,0,0,1-.137.086Zm-14.906-.3h14.807l.2-.432a1.32,1.32,0,0,0-.747-1.8L99,408.391l-6.3.129Z" transform="translate(-67.59 -298.483)" fill="#404040"/>
    <path id="Path_678" data-name="Path 678" d="M206.8,205.523q5.5,2.425,5.323,2.936-.121.359-3.043-.226l2.8,2.6a.288.288,0,0,1-.18.5,7.994,7.994,0,0,1-2.954-.4,8.225,8.225,0,0,1-4.056-3.043q1.056-1.188,2.114-2.374Z" transform="translate(-149.713 -150.32)" fill="#fff"/>
    <path id="Path_679" data-name="Path 679" d="M210.87,211.09a8.092,8.092,0,0,1-2.573-.416,8.39,8.39,0,0,1-4.131-3.1.154.154,0,0,1,.011-.188l2.114-2.374a.152.152,0,0,1,.175-.038c1.826.806,3.2,1.464,4.091,1.953,1.2.661,1.391.945,1.313,1.171s-.36.414-2.7-.024l2.409,2.243a.433.433,0,0,1,.113.473.428.428,0,0,1-.389.287c-.145.008-.29.011-.435.011Zm-6.39-3.594a8.1,8.1,0,0,0,3.911,2.89,7.76,7.76,0,0,0,2.9.389.138.138,0,0,0,.086-.239l-2.8-2.6a.155.155,0,0,1-.032-.18.15.15,0,0,1,.164-.078c2.251.451,2.75.376,2.86.322-.083-.183-.8-.784-5.13-2.7Z" transform="translate(-149.31 -149.912)" fill="#404040"/>
    <path id="Path_680" data-name="Path 680" d="M94.9,211.22,84.13,264.5H96.278l4.209-29.606.277-22.5Z" transform="translate(-61.534 -154.49)" fill="#0a58c9"/>
    <path id="Path_681" data-name="Path 681" d="M128.85,211.22l9.868,53.489h12.975L141.261,211.22Z" transform="translate(-94.243 -154.49)" fill="#0a58c9"/>
    <path id="Path_682" data-name="Path 682" d="M138.743,288.34a.15.15,0,0,1-.148-.124l-3.569-18.922-1.45-.32a.151.151,0,0,1,.064-.3l1.55.341a.149.149,0,0,1,.115.118l3.588,19.018a.15.15,0,0,1-.121.177h-.027Z" transform="translate(-97.612 -196.514)" fill="#404040"/>
    <path id="Path_683" data-name="Path 683" d="M130.054,151.256c.3,1.023.634,2.087,1.021,3.185.5,1.418,1.021,2.745,1.552,3.98a57.8,57.8,0,0,0-19.969,0,67.813,67.813,0,0,1-.169-16.443q1.124-5.084,2.245-10.169a4.22,4.22,0,0,0,3.3,1.321,4.071,4.071,0,0,0,2.576-1.254,9.076,9.076,0,0,1,6.134,1.394c2.659,1.931,2.742,4.966,4.206,8.3,1.158,2.64,3.489,6.188,8.748,9.527l-3.344,4.179a17.109,17.109,0,0,1-8.973-7.716,16.538,16.538,0,0,1-1.95-7.827l4.628,11.522Z" transform="translate(-81.97 -96.408)" fill="#fff"/>
    <path id="Path_684" data-name="Path 684" d="M132.208,158.163h-.027a57.688,57.688,0,0,0-19.918,0,.137.137,0,0,1-.115-.027.154.154,0,0,1-.059-.1,67.565,67.565,0,0,1-.567-7.214,68.479,68.479,0,0,1,.4-9.266v-.016l2.245-10.169a.153.153,0,0,1,.107-.113.15.15,0,0,1,.15.043,4.039,4.039,0,0,0,3.177,1.273,3.937,3.937,0,0,0,2.479-1.209.143.143,0,0,1,.1-.046,9.028,9.028,0,0,1,6.237,1.421c1.891,1.372,2.5,3.258,3.2,5.442a29.726,29.726,0,0,0,1.058,2.925,21.855,21.855,0,0,0,8.691,9.46.149.149,0,0,1,.067.1.144.144,0,0,1-.032.118l-3.344,4.179a.155.155,0,0,1-.172.048,17.813,17.813,0,0,1-5.96-3.728c.271.905.564,1.813.876,2.7.467,1.335.988,2.67,1.547,3.97a.151.151,0,0,1-.021.153.147.147,0,0,1-.118.056ZM112.217,141.6a67.691,67.691,0,0,0,.15,16.241,58.042,58.042,0,0,1,19.591-.019c-.521-1.225-1.007-2.479-1.445-3.733-.368-1.05-.712-2.124-1.021-3.193a.207.207,0,0,1-.005-.04,16.3,16.3,0,0,1-2.659-3.626,16.7,16.7,0,0,1-1.969-7.9.15.15,0,0,1,.15-.15h0a.15.15,0,0,1,.15.15,16.393,16.393,0,0,0,1.934,7.754,16.775,16.775,0,0,0,8.791,7.606l3.169-3.962a22.053,22.053,0,0,1-8.665-9.5,30.343,30.343,0,0,1-1.069-2.952c-.685-2.133-1.278-3.972-3.089-5.288a8.724,8.724,0,0,0-5.976-1.37,4.236,4.236,0,0,1-2.632,1.26A4.3,4.3,0,0,1,114.4,131.7l-2.184,9.892Z" transform="translate(-81.553 -95.999)" fill="#404040"/>
    <path id="Path_685" data-name="Path 685" d="M130.537,108.568a3.246,3.246,0,0,0,2.245-1.453c.714-1.332.121-3.387-1.695-4.555l-4.448,1.19.529,7.923a4.995,4.995,0,0,0,4.093-1.19c-.067-.639-.132-1.276-.2-1.915h-.529Z" transform="translate(-92.626 -75.014)" fill="#fff"/>
    <path id="Path_686" data-name="Path 686" d="M127.551,111.469a5.253,5.253,0,0,1-.816-.064.149.149,0,0,1-.126-.14l-.529-7.923a.151.151,0,0,1,.113-.156l4.448-1.19a.148.148,0,0,1,.121.019c1.762,1.133,2.544,3.269,1.746,4.754a3.054,3.054,0,0,1-1.7,1.356v.011l.2,1.915a.148.148,0,0,1-.051.129,5.167,5.167,0,0,1-2.245,1.155,5.1,5.1,0,0,1-1.158.132Zm-.65-.346a4.846,4.846,0,0,0,1.738-.081A4.906,4.906,0,0,0,130.693,110l-.185-1.786c-.15.04-.274.067-.357.081a.15.15,0,0,1-.175-.121A.152.152,0,0,1,130.1,108a3.082,3.082,0,0,0,2.138-1.375,3.513,3.513,0,0,0-1.587-4.322l-4.262,1.139.513,7.679Z" transform="translate(-92.216 -74.597)" fill="#404040"/>
    <path id="Path_687" data-name="Path 687" d="M91.928,96.133c1.453-.32,3.639.1,4.093,1.453.376,1.117-.475,2.753-2.245,3.7a28.844,28.844,0,0,1-.661,10.169c-.757,3.03-2.619,10.491-7.66,11.885-1.59.44-4.187.47-5.678-1.056a4.6,4.6,0,0,1-1.19-2.906c-.47-4.673,3.521-7.182,7.66-14.791,2.748-5.052,3.137-7.894,5.678-8.452Z" transform="translate(-57.452 -70.239)" fill="#404040"/>
    <path id="Path_688" data-name="Path 688" d="M133.213,114.405a1.141,1.141,0,1,1-.849-1.131A1.015,1.015,0,0,1,133.213,114.405Z" transform="translate(-95.847 -82.817)" fill="#fff"/>
    <path id="Path_689" data-name="Path 689" d="M197.682,51.773a1.612,1.612,0,1,1,1.612-1.612A1.613,1.613,0,0,1,197.682,51.773Zm0-2.92a1.308,1.308,0,1,0,1.308,1.308A1.31,1.31,0,0,0,197.682,48.854Z" transform="translate(-143.409 -35.51)" fill="#404040"/>
    <path id="Path_690" data-name="Path 690" d="M46.592,316.463a1.612,1.612,0,1,1,1.612-1.612A1.613,1.613,0,0,1,46.592,316.463Zm0-2.92a1.308,1.308,0,1,0,1.308,1.308A1.31,1.31,0,0,0,46.592,313.544Z" transform="translate(-32.899 -229.109)" fill="#404040"/>
  </g>
</svg>
