<svg xmlns="http://www.w3.org/2000/svg" width="89.777" height="22.815" viewBox="0 0 89.777 22.815">
  <path id="KOTA_Logo" data-name="KOTA Logo" d="M83.163,22.815l-1.214-3.722H73.961l-1.214,3.722H66.165L74.376,0H81.6l8.179,22.815Zm-7.6-8.576h4.825L77.955,6.861ZM53.1,22.815V5.048H47.154V0H65.366V5.048H59.359V22.815Zm-39.773,0-7.061-10v10H0V0H6.262V9.838L13.26,0h7.221L12.205,11.068,20.9,22.815Zm18.611-.281a.049.049,0,0,1,.014-.014.132.132,0,0,1,.035-.014l.01,0a.038.038,0,0,1,.014,0h.014a.046.046,0,0,0,.015-.009.065.065,0,0,1,.015-.009.136.136,0,0,0,.059-.038.2.2,0,0,0,.04-.067l0-.01a.089.089,0,0,1,.012-.028l.009-.009a.028.028,0,0,0,.011-.02.1.1,0,0,0,0-.045.032.032,0,0,0-.022-.008c-.008,0-.014,0-.015.008H32.1c0-.014.013-.02.039-.02h.045a.149.149,0,0,0,0-.021.058.058,0,0,1,.012-.032.105.105,0,0,0,.025-.041.262.262,0,0,0,0-.074.408.408,0,0,1,0-.044.148.148,0,0,1,.018-.07.026.026,0,0,1,.013,0,.032.032,0,0,0,.011,0,.039.039,0,0,0,.015-.012l.008-.009a.06.06,0,0,1,.028-.01.05.05,0,0,0,.027-.011.13.13,0,0,0,.018-.023.1.1,0,0,1,.023-.027.088.088,0,0,1,.044-.013l.019,0,.015,0a.6.6,0,0,0,.133-.032.111.111,0,0,1,.035-.007h.006a.051.051,0,0,1,0-.008s0-.006,0-.008a.17.17,0,0,1,.05-.015c.007-.013.009-.016.021-.021a.058.058,0,0,1,.02,0h.01l.023-.006a.283.283,0,0,1,.076-.013h.021l.032.005a.256.256,0,0,0,.048.006h.039a.166.166,0,0,1,.039,0,.272.272,0,0,0,.039,0,.132.132,0,0,1,.068.015.217.217,0,0,1,.042.031l.008.008a.059.059,0,0,0,.022.016h.014A.067.067,0,0,1,33.2,21.8v0a.023.023,0,0,0,0-.008.051.051,0,0,0-.024-.016l-.011-.005c-.022-.013-.022-.029-.023-.05a.2.2,0,0,0,0-.02h-.006c-.01,0-.014.007-.018.014l-.005.008a.06.06,0,0,1-.043.014h-.009a.121.121,0,0,1-.03,0,.14.14,0,0,0-.027,0l-.049-.006c0-.015-.014-.019-.026-.024a.064.064,0,0,1-.015-.007.462.462,0,0,0-.06-.031.069.069,0,0,1-.038-.04.244.244,0,0,1,.029-.17.144.144,0,0,1,.033-.042.138.138,0,0,0,.035-.047.111.111,0,0,1,.05-.069A.126.126,0,0,1,33,21.213a.256.256,0,0,0,.028-.03l.005-.008a.112.112,0,0,1,.019-.023.034.034,0,0,1,.015-.008.036.036,0,0,0,.014-.006c.007-.006.01-.012.009-.016s-.021-.011-.031-.012a.176.176,0,0,1,.014-.087.011.011,0,0,1,.009,0h0s0-.008,0-.011a.057.057,0,0,1,.006-.029.174.174,0,0,1,.05-.055.138.138,0,0,1,.059-.01.328.328,0,0,1,.071.011.33.33,0,0,0,.071.011l.033,0,.031,0a.115.115,0,0,1,.026,0l.015,0a.084.084,0,0,0,.022.006h.04a.07.07,0,0,0-.045-.027l-.009,0-.02-.006a.3.3,0,0,0-.066-.015h-.042l-.035,0h-.021l-.011.005-.006,0a.012.012,0,0,1,0-.012.045.045,0,0,1,.033-.012h.046l.013,0,.021,0h.007a.066.066,0,0,0,.024-.006.079.079,0,0,1,.02-.006.1.1,0,0,1,.047.018.043.043,0,0,0,.023.008H33.5c.021,0,.023.015.025.028a.063.063,0,0,0,.006.023.121.121,0,0,0,.015-.074v-.008c0-.046,0-.094,0-.14v0c0-.045-.006-.092-.01-.136,0-.025,0-.049-.006-.074a.015.015,0,0,0,.007,0l.012-.009v-.013a.22.22,0,0,0,0-.082.056.056,0,0,0-.022-.031c0-.056,0-.113,0-.168a.644.644,0,0,0-.01-.126.025.025,0,0,0-.006-.012.025.025,0,0,1,0-.007.049.049,0,0,1,0-.023.082.082,0,0,0,0-.017.023.023,0,0,0-.008-.015A.043.043,0,0,1,33.483,20c-.024-.032-.011-.106,0-.146v0a.421.421,0,0,0,.008-.084h.047c0-.032,0-.066.008-.1a.138.138,0,0,1,0-.018c0-.016.008-.032-.006-.038a.058.058,0,0,0-.019,0h0a.029.029,0,0,0,0-.008.3.3,0,0,0,.006-.037c0-.006,0-.011,0-.016l0-.011a.066.066,0,0,0,0-.027c0-.007-.01-.008-.015-.008h-.015c-.005,0-.011,0-.011-.007a.029.029,0,0,1,.009-.02.04.04,0,0,1,.026-.014h0c.007,0,.015.022.014.028h0c.013,0,.018-.005.022-.018a.009.009,0,0,0,0-.005.012.012,0,0,1,0-.008.026.026,0,0,1,0-.009.025.025,0,0,0,0-.009.078.078,0,0,0,0-.011.037.037,0,0,1,.005-.018A.109.109,0,0,1,33.6,19.4l.008-.007.023-.02a.51.51,0,0,0,.052-.049A.069.069,0,0,0,33.7,19.3l0-.011a.073.073,0,0,1,.015-.02l.01-.012a.051.051,0,0,0,.007-.046.027.027,0,0,0-.019-.017l-.013-.006-.007-.005a.036.036,0,0,0-.014-.008h.027a.032.032,0,0,1,.01.006.023.023,0,0,0,.01.005h0c.043,0,.081-.137.083-.143A.278.278,0,0,1,33.824,19a.152.152,0,0,0,.015-.058c0-.016,0-.033,0-.049s0-.033,0-.049a.2.2,0,0,1,.027-.085.206.206,0,0,0,.027-.084.553.553,0,0,0-.013-.164.125.125,0,0,0-.028-.048.11.11,0,0,1-.028-.051c0-.018-.007-.028-.017-.032h0a.063.063,0,0,0-.028,0l0-.005,0-.008-.013,0-.006,0,0-.006a.081.081,0,0,1-.017-.036h0a.016.016,0,0,0,.015-.007c.008-.014-.01-.047-.021-.069a.125.125,0,0,1-.01-.019.344.344,0,0,1,0-.093c0-.01,0-.018,0-.026h.019a.247.247,0,0,0,.03.1.307.307,0,0,1,.029.085.078.078,0,0,0,.012.032l.008.016a.061.061,0,0,1,0,.024.073.073,0,0,0,0,.022c0,.008.014.028.027.028a.016.016,0,0,0,.01,0,.013.013,0,0,0,0-.009c0-.006-.006-.012-.011-.016l-.006-.007a.108.108,0,0,1,0-.047.126.126,0,0,0,0-.039c0-.023-.009-.047-.014-.07s-.013-.059-.017-.09c0-.015,0-.029,0-.043a.256.256,0,0,0-.008-.072v0a.539.539,0,0,1-.023-.115.224.224,0,0,0-.012-.053.214.214,0,0,1-.012-.05l-.012,0a.029.029,0,0,0-.028.02.027.027,0,0,1,0-.024c.006-.009.021-.009.035-.009h.009v0a.079.079,0,0,1,.015-.052.1.1,0,0,1,.013-.016.058.058,0,0,0,.019-.031.341.341,0,0,0,0-.093c0-.011,0-.023,0-.033s0-.012,0-.018a.187.187,0,0,0,0-.038.3.3,0,0,0-.024-.07.377.377,0,0,1-.022-.06l0-.015c-.013-.05-.026-.1-.033-.153a.361.361,0,0,1,.017-.167.126.126,0,0,1,.011-.02.1.1,0,0,0,.013-.027c0-.01.005-.02.007-.031a.258.258,0,0,1,.069-.147.153.153,0,0,0,.045-.079.234.234,0,0,1,.024-.057l.009-.014c.015-.024.033-.054.061-.061l.017,0h.026l.016,0a.1.1,0,0,0,.028-.016.089.089,0,0,1,.022-.014h0a.042.042,0,0,1,0-.012.157.157,0,0,1,.09-.021c.019,0,.039,0,.058,0h0a.116.116,0,0,0,.007.042.156.156,0,0,1,.008.032.12.12,0,0,1,0,.02.055.055,0,0,0,0,.037.014.014,0,0,0,.011,0h.007c0-.022,0-.045.023-.05a.089.089,0,0,1,0,.027.088.088,0,0,0,0,.027h0c.028,0,.029-.045.03-.074,0-.008,0-.014,0-.019a.088.088,0,0,1,.008.022c0,.016.007.031.025.031h.008a.037.037,0,0,1,0,.012H34.4a.073.073,0,0,1,0-.01.063.063,0,0,0,0-.021.021.021,0,0,0,.022.015l.012,0a.024.024,0,0,1-.017-.019.067.067,0,0,1,.017-.056.3.3,0,0,1,.036-.029.129.129,0,0,0,.058-.066.132.132,0,0,0,.005-.025.093.093,0,0,1,.01-.035.1.1,0,0,1,.025-.027.107.107,0,0,0,.02-.019A.065.065,0,0,0,34.6,16.3s0-.008,0-.012c0-.053.021-.06.069-.066a.52.52,0,0,0,.1-.024.018.018,0,0,0,0-.014.051.051,0,0,0-.038-.012.089.089,0,0,0-.025,0,.081.081,0,0,0-.028.015.052.052,0,0,1-.036.013h-.01c.006-.029.058-.033.1-.033h.036a.361.361,0,0,1,.079.006.162.162,0,0,1,.037.016.125.125,0,0,0,.04.016l0,.006a.046.046,0,0,1,0,.011c0-.01,0-.02,0-.029s0-.02,0-.03c.02,0,.019.027.018.047a.155.155,0,0,0,0,.018h.016a.285.285,0,0,0,.1-.028l.012,0a.238.238,0,0,0,.058-.038.229.229,0,0,1,.047-.032.328.328,0,0,1,.054-.02.254.254,0,0,0,.067-.028.07.07,0,0,0,.035-.035.078.078,0,0,0,0-.025.048.048,0,0,1,.014-.039c0,.007,0,.013,0,.02s0,.026,0,.039h.017c.008,0,0-.037,0-.065a.161.161,0,0,1,0-.032l0-.008v-.007h-.012a.1.1,0,0,1-.042-.008.024.024,0,0,1-.012-.019.035.035,0,0,1,.012-.029.026.026,0,0,1,.012-.006.037.037,0,0,0-.01.028.025.025,0,0,0,.011.018.1.1,0,0,0,.042.008h.014s0,0,.006,0a.032.032,0,0,0,0-.032l0-.008.006-.019a.135.135,0,0,1,.012-.025.067.067,0,0,0,.013-.05.088.088,0,0,0-.05-.054.058.058,0,0,0,0,.031h.012v.013a.168.168,0,0,1-.009.085h-.023c-.029-.028.015-.164.028-.182a.137.137,0,0,1,.058-.04l.031-.016a.416.416,0,0,0,.051-.04.414.414,0,0,1,.054-.043l.01-.006a.161.161,0,0,0,.064-.056.177.177,0,0,1,.09-.072l.019-.009.012-.006a.688.688,0,0,1,.124-.052l.006,0a.352.352,0,0,0,.082-.031.085.085,0,0,0,.03-.035.135.135,0,0,1,.019-.027.116.116,0,0,1,.025-.017.072.072,0,0,0,.03-.025.116.116,0,0,0,.01-.034.13.13,0,0,1,.012-.039.379.379,0,0,1,.075-.087l.028-.027.029-.027a.712.712,0,0,1,.087-.056c.026-.015.052-.03.077-.048a.2.2,0,0,0,.025-.021l.02-.018a.2.2,0,0,1,.035-.02l.017-.008.034-.016a.24.24,0,0,0,.068-.038.161.161,0,0,0,.019-.024.086.086,0,0,1,.043-.039c.023-.007.023-.034.022-.058a.081.081,0,0,1,0-.029.057.057,0,0,1,.034-.026l.018-.009a.287.287,0,0,0,.033-.026.154.154,0,0,1,.061-.039.036.036,0,0,1,.028-.028l.008-.015a.407.407,0,0,1,.043-.073.14.14,0,0,1,.018-.018.115.115,0,0,0,.024-.026.17.17,0,0,0,.01-.022.162.162,0,0,1,.013-.028.363.363,0,0,1,.064-.069l.015-.013a.464.464,0,0,0,.059-.058.168.168,0,0,0,.019-.053V14.1l0-.008a.15.15,0,0,1,.043-.051.15.15,0,0,0,.035-.04.229.229,0,0,0,.013-.031.153.153,0,0,1,.019-.039c.008-.01.015-.022.022-.034a.411.411,0,0,1,.038-.055.129.129,0,0,1,.044-.028.165.165,0,0,0,.043-.025.117.117,0,0,0,.022-.028.089.089,0,0,1,.037-.037A.214.214,0,0,0,37.5,13.7a.127.127,0,0,1,.048-.027.036.036,0,0,0,0-.017l-.029,0h-.011c-.006.014-.018.014-.032.015a.075.075,0,0,0-.019,0c0-.015.016-.023.028-.032a.078.078,0,0,0,.022-.018l-.026-.009-.009,0a.249.249,0,0,1-.048.081.08.08,0,0,1-.022.013l-.009,0a.1.1,0,0,0,.013-.063.145.145,0,0,1,0-.042.273.273,0,0,1,.04-.052.218.218,0,0,1,.062-.042.334.334,0,0,0,.042-.024l.012-.009a.152.152,0,0,1,.08-.039.058.058,0,0,1,.047.027c.027.038-.022.08-.039.094a.806.806,0,0,1-.1.051.255.255,0,0,0,0,.05h0a.022.022,0,0,0,.021-.014.041.041,0,0,1,.01-.013.189.189,0,0,1,.055-.024h.006a.478.478,0,0,0,.1-.03c.053-.026.123-.06.188-.089a.442.442,0,0,1,.1-.027.414.414,0,0,0,.114-.033l.027-.013a.184.184,0,0,0,.116-.1l0-.014c.008-.03.017-.064.05-.071,0-.033.053-.054.1-.072a.381.381,0,0,0,.044-.02l.029-.014a.167.167,0,0,0,.043-.024c.021-.019.016-.063.014-.092h-.04c-.012-.062.047-.094.094-.121l.025-.014a.331.331,0,0,0,.123-.153l-.019,0H38.75c-.01,0-.01.007-.011.012a.011.011,0,0,1-.005.009.034.034,0,0,1-.013,0h-.012l-.007.007a.094.094,0,0,1-.015.013.118.118,0,0,1-.032.01l-.019,0a.066.066,0,0,0-.03.018l-.011.009c0-.074.016-.081.088-.087.022,0,.036-.008.041-.019s-.011-.05-.029-.077l-.013-.021a.474.474,0,0,1-.054-.13c-.007-.032-.013-.137.018-.146a.2.2,0,0,1,.065-.089l.013-.011.005-.006.014-.014,0,0,.006-.007.011-.012a.18.18,0,0,1,.036-.031.5.5,0,0,1,.115-.05.205.205,0,0,1,.043-.005h.016a.139.139,0,0,1,.034.009.113.113,0,0,0,.038.01h.01v0a.349.349,0,0,1,.045-.068.1.1,0,0,0,.018-.014.076.076,0,0,1,0-.01l0,0a.147.147,0,0,1,.065-.04l.025-.006c.034-.008.064-.014.075-.057a.05.05,0,0,0,0-.02.037.037,0,0,1,.007-.026.069.069,0,0,1,.023-.018.068.068,0,0,0,.028-.023l.009-.018a.137.137,0,0,1,.014-.026.068.068,0,0,1,.016-.013.068.068,0,0,0,.013-.01.057.057,0,0,0,.009-.014.048.048,0,0,1,.019-.022.026.026,0,0,1,.016-.006h.005c.005,0,.01,0,.019-.014a.04.04,0,0,0,.008-.019c0-.006,0-.01.017-.019a.139.139,0,0,1,.04-.01c0-.005,0-.012,0-.018a.288.288,0,0,0,0-.066.07.07,0,0,0-.019-.032.064.064,0,0,1-.017-.028.06.06,0,0,1,.018,0,.041.041,0,0,1,.032.014.151.151,0,0,1,.019.1.075.075,0,0,1-.016.036.08.08,0,0,0-.015.03.052.052,0,0,0,.015.048l.012.018.009.013a.05.05,0,0,1,.011.025.064.064,0,0,1,0,.014c0,.011,0,.024,0,.027a.015.015,0,0,0,.011,0c.016,0,.035-.027.043-.038a.14.14,0,0,0,.01-.019.049.049,0,0,1,.027-.031.054.054,0,0,1,.022-.006.022.022,0,0,1,.017.007.046.046,0,0,1,.008.035l.018,0,.018,0v-.007c0-.045,0-.045.048-.048h.007a.218.218,0,0,1-.008-.078.165.165,0,0,1,.009-.027.107.107,0,0,0,.01-.041h.023c.025,0,.056,0,.07-.015a.033.033,0,0,0,.007-.026.107.107,0,0,0,.064-.057.029.029,0,0,0,0-.016c0-.005,0-.008.015-.016a.043.043,0,0,1,.016,0,.088.088,0,0,1,.034.007.267.267,0,0,1,.072.058l.011.012a.129.129,0,0,0,.019.019.209.209,0,0,0-.032-.08.223.223,0,0,1-.047-.144.278.278,0,0,0-.029-.118l-.013-.032a.227.227,0,0,1-.011-.054c0-.008,0-.016,0-.024a.1.1,0,0,0-.008-.023c0-.011-.009-.021-.006-.028a.021.021,0,0,1,.012-.01s0-.009,0-.013a.16.16,0,0,0,0-.054A.045.045,0,0,0,40,10.943a.036.036,0,0,1-.011-.011.04.04,0,0,0-.032-.027.218.218,0,0,0,0-.047c0-.038,0-.081.034-.095.007-.028.018-.042.035-.042l.01,0a.348.348,0,0,0-.1-.028.09.09,0,0,0-.048.023.059.059,0,0,1-.029.016c-.007,0-.013-.006-.018-.018a.193.193,0,0,1,0-.1l0-.022s0-.008,0-.012a.064.064,0,0,1,0-.022.029.029,0,0,1,.011-.013.021.021,0,0,0,.01-.014c.005-.027-.011-.032-.029-.037l-.018-.006a.208.208,0,0,1-.061-.041.017.017,0,0,1,0-.01.018.018,0,0,0-.009-.014.026.026,0,0,0-.012,0h-.029c0-.013,0-.026,0-.039a.6.6,0,0,1,0-.1s0,0,0-.006c0-.018,0-.044.015-.052a.024.024,0,0,1,.016,0h.026a.031.031,0,0,0,.015,0A.027.027,0,0,0,39.8,10.2a.075.075,0,0,1,0-.018.331.331,0,0,1,.019-.043.182.182,0,0,0,.024-.068.274.274,0,0,0-.026-.126.055.055,0,0,0-.032-.011h-.006a.094.094,0,0,1-.023-.008.1.1,0,0,0-.026-.009l-.019,0-.029,0h.068a.139.139,0,0,1,.053.014l0,0h0A.077.077,0,0,0,39.78,9.9a.076.076,0,0,0-.042-.009h-.045a.11.11,0,0,1-.044-.015.17.17,0,0,0-.027-.012.224.224,0,0,0-.068-.01h-.027c0-.039-.037-.049-.055-.052a.079.079,0,0,0-.035-.026l-.019-.01h0a.082.082,0,0,1-.027-.024.094.094,0,0,1-.009-.023.083.083,0,0,0-.011-.027.106.106,0,0,0-.024-.02c-.011-.008-.023-.015-.026-.024s0-.023.008-.029a.039.039,0,0,0,.014-.015.034.034,0,0,0,0-.015.034.034,0,0,1,0-.018l0-.005,0-.006a.087.087,0,0,0,.015-.018.155.155,0,0,0,.015-.087c0-.012,0-.025,0-.037h.011a.438.438,0,0,1,.045,0,.059.059,0,0,1,.036.008.024.024,0,0,1,0,.02.025.025,0,0,0,.005.022.034.034,0,0,0,.023.006h.02a.042.042,0,0,1-.025-.049h.058c0-.008,0-.015,0-.021,0-.033,0-.043.045-.045a.161.161,0,0,0-.006-.057.153.153,0,0,1-.006-.064.206.206,0,0,1,.067-.012.321.321,0,0,0,.038,0,.179.179,0,0,1,.036,0h.083a.022.022,0,0,1,.024-.018.133.133,0,0,1,.027,0,.13.13,0,0,0,.027,0,.021.021,0,0,0,.013,0,.314.314,0,0,0,.033-.134h-.01c-.015,0-.017.01-.02.021A.03.03,0,0,1,39.9,9.1H39.9c-.016,0-.041-.023-.053-.038a.105.105,0,0,1-.018-.039A.192.192,0,0,0,39.816,9c0-.008-.008-.016-.013-.024a.2.2,0,0,1-.017-.035l-.016.016a.092.092,0,0,1-.044.031A.1.1,0,0,1,39.7,9a.1.1,0,0,1-.042-.013l-.015-.007c-.035-.016-.076-.035-.088-.075a.038.038,0,0,1,0-.019.041.041,0,0,0,0-.019.079.079,0,0,0-.025-.027l-.012-.01a.141.141,0,0,0-.055-.039l-.026-.008-.029-.009h0a.065.065,0,0,0-.021,0h-.051c0-.006,0-.014,0-.021,0-.054-.011-.136.042-.147a.044.044,0,0,0-.01-.035.071.071,0,0,1-.01-.02.062.062,0,0,1,.019-.058l0,0a.106.106,0,0,1,.051-.034.133.133,0,0,0,.038-.02.064.064,0,0,0,.022-.041.076.076,0,0,1,.017-.038l.013-.011a.075.075,0,0,1,.046-.014h.006a.069.069,0,0,0-.007-.039.109.109,0,0,1-.007-.02H39.54a.106.106,0,0,1-.024,0c-.016,0-.025-.014-.037-.042l-.007-.012a.057.057,0,0,1-.011-.045.064.064,0,0,1,.007-.017.045.045,0,0,0,.007-.031.123.123,0,0,1,.006.032h0a.056.056,0,0,1,.016,0l.011,0a.033.033,0,0,0,.01.023.1.1,0,0,0,.065.034h0a.082.082,0,0,0,0,.018.08.08,0,0,1,0,.018h.064a.233.233,0,0,1-.009.028l0,.009a.445.445,0,0,0,.054,0h.018s0,.008,0,.013a.215.215,0,0,1,0,.056.091.091,0,0,1-.014.028.061.061,0,0,0-.014.037H39.7l.027,0,.014,0a.242.242,0,0,1,0,.026.134.134,0,0,0,0,.053c0-.005,0-.01,0-.016a.283.283,0,0,0,0-.045c.012-.006.012-.021.013-.036s0-.035.02-.035h0c0,.005,0,.011.005.016a.117.117,0,0,0,.01.026.045.045,0,0,0,0-.017.039.039,0,0,1,0-.02c.008-.009.013-.013.018-.013a.019.019,0,0,1,.011.006l.012.008a.059.059,0,0,1,.013.008.04.04,0,0,0,.025.01H39.9l.032,0c-.008-.011-.016-.023-.023-.034l-.023-.034a.16.16,0,0,0-.018-.02c-.015-.015-.029-.029-.022-.054a.109.109,0,0,1,.052-.011h.025c0,.025.013.031.028.036a.046.046,0,0,1,.024.015.243.243,0,0,1,.014.069l0,.02A.128.128,0,0,0,40,8.428a.105.105,0,0,0,.055.056l.035.021a.268.268,0,0,0,.1.045h0a.473.473,0,0,0,.064.006.058.058,0,0,0,.037-.008.055.055,0,0,0,.006-.025.113.113,0,0,1,0-.015.082.082,0,0,1,.011-.015.052.052,0,0,0,.013-.019.059.059,0,0,0,0-.014.04.04,0,0,1,0-.012.041.041,0,0,1,.021-.021.1.1,0,0,0,.02-.013l.006-.007V8.4a.052.052,0,0,1,.013-.011.061.061,0,0,1,.029-.01c.03,0,.037.043.044.089s.012.081.036.091a.216.216,0,0,1-.008.068.26.26,0,0,0-.006.038.287.287,0,0,0,.007.062.433.433,0,0,1,.007.046.783.783,0,0,1,0,.082h.01a.333.333,0,0,0,.024.18.045.045,0,0,0,.043.023.2.2,0,0,0,.04-.006l.025,0h.011a.107.107,0,0,1,.062.023.232.232,0,0,0,.039.022.274.274,0,0,0,.055.011l.036.006.029.009a.216.216,0,0,0,.069.015h.043a.8.8,0,0,0,.145-.012.693.693,0,0,1,.114-.008h.089a.228.228,0,0,0,.042-.005.227.227,0,0,1,.038,0,.114.114,0,0,1,.043.011.131.131,0,0,0,.04.011h0a.113.113,0,0,0,.043-.011h0a.108.108,0,0,1,.043-.011H41.6c.006.018.07.021.1.022h.013l.026,0a.28.28,0,0,0,.039,0c.023,0,.035-.007.04-.021v0a.176.176,0,0,0,.058.031h0a.093.093,0,0,0,.037-.01l.012-.005a.568.568,0,0,1,.118-.034.433.433,0,0,1,.078-.008.132.132,0,0,1,.132.065h.061a.1.1,0,0,1,.032,0l0,0,0,.007c.019.012.02.044.02.068,0,0,0,.008,0,.012l.019,0,.019,0a.039.039,0,0,1,.021.01.071.071,0,0,1,.006.064.033.033,0,0,1-.028.014.188.188,0,0,1-.073-.026.3.3,0,0,0-.051-.022h-.018a.057.057,0,0,0,.012.059.188.188,0,0,1,.016.026c.018.037,0,.052-.018.068l-.016.016a.163.163,0,0,0-.01.064.073.073,0,0,1-.019.064l0,0a.157.157,0,0,1-.018.017l0,0a.009.009,0,0,0,0,0l0,0h0a.083.083,0,0,0-.031.054,0,0,0,0,0,0,0,.245.245,0,0,0-.07.04.135.135,0,0,0-.039.061.15.15,0,0,1-.037.06A.11.11,0,0,1,42,9.82a.084.084,0,0,0-.02-.021.082.082,0,0,0-.036-.011h0c-.013,0-.016.007-.02.016a.041.041,0,0,1-.015.02l-.018.009-.017.009,0,0a.07.07,0,0,0-.019.014s0,0,0,.007,0,0,0,0a.057.057,0,0,1-.021.014.088.088,0,0,0-.018.01.1.1,0,0,1-.061.016h-.026a.147.147,0,0,0-.035,0,.04.04,0,0,0-.033.026l0,0a.094.094,0,0,1-.017.019.064.064,0,0,0-.019.026.216.216,0,0,0-.006.039c0,.007,0,.014,0,.021a.271.271,0,0,1-.023.083.246.246,0,0,1-.013.025.2.2,0,0,0-.016.035.074.074,0,0,0,0,.023.1.1,0,0,1,0,.014.068.068,0,0,1-.005.019.077.077,0,0,0,0,.014c0,.02.018.054.032.071a.368.368,0,0,1,.048.073l0,.006a.12.12,0,0,1,.013.026.115.115,0,0,1,0,.022s0,.007,0,.01a.235.235,0,0,0,.013.094.177.177,0,0,0,.012.024.115.115,0,0,1,.017.041.146.146,0,0,1,0,.028.16.16,0,0,0,0,.035.171.171,0,0,0,.019.05c.005.01.01.019.014.029h.021a.035.035,0,0,0,.027-.008.042.042,0,0,0,.007-.032v0a.277.277,0,0,0-.011-.076.219.219,0,0,1-.011-.1c0-.014,0-.02.011-.02a.06.06,0,0,1,.026.012h0c.031.018.031.048.031.08a.151.151,0,0,0,.006.053.165.165,0,0,0,.047.06.215.215,0,0,1,.045.056c.009.015.016.021.022.021s.016-.01.026-.024a.27.27,0,0,1,.021-.025A.2.2,0,0,0,42,10.738a.2.2,0,0,1,.02-.026.132.132,0,0,0,.027-.04.184.184,0,0,0,0-.091.13.13,0,0,0-.013-.027.1.1,0,0,1-.016-.039.147.147,0,0,1,0-.032c0-.006,0-.012,0-.017,0-.036.014-.038.044-.039s.024,0,.028-.01a.047.047,0,0,0,0-.03.181.181,0,0,1,0-.083.158.158,0,0,0,.009-.039s0-.007,0-.011a.056.056,0,0,0,0-.01c0-.007,0-.016,0-.018a.012.012,0,0,1,.008,0,.187.187,0,0,1,.036.007.126.126,0,0,0,.025.005.2.2,0,0,1,.037-.062l.005-.006s0-.006.008-.006.006,0,.012.006a.1.1,0,0,1,.016.026.067.067,0,0,1,.07-.054h.01a.093.093,0,0,1,.007.028l0,.007a.172.172,0,0,0,.021.058.1.1,0,0,1,.006.062.1.1,0,0,0,0,.061.1.1,0,0,0,.019.02.065.065,0,0,1,.025.035h0a.357.357,0,0,1,0,.1c0,.014,0,.027,0,.04s0,.026,0,.037,0,.024,0,.037a.133.133,0,0,0,.014.056l.008.019a.242.242,0,0,1,.007.026.138.138,0,0,0,.018.05l.012.015a.128.128,0,0,1,.016.023.8.8,0,0,1,.044.1v0a.157.157,0,0,1,.007.024c0,.006,0,.012,0,.018a.153.153,0,0,0,.018.037l.007.012a.179.179,0,0,1,.014.043.193.193,0,0,0,.011.03.113.113,0,0,1,.013.047,1.319,1.319,0,0,0,.012.154h0c0,.016,0,.032.006.048a.076.076,0,0,0,.014.033.073.073,0,0,1,.014.033v.005c0,.016,0,.025.015.025l.015,0c.023-.006.021-.019.019-.036s0-.011,0-.017v0c0-.016,0-.04.007-.05a.016.016,0,0,1,.013-.005c.01,0,.013.005.018.012l.007.009a.1.1,0,0,0,.017.013l.011.008a.145.145,0,0,1,.043.06.124.124,0,0,1,.006.018c0,.014.008.027.024.029h.006a.254.254,0,0,0,.04-.005l.014,0a.223.223,0,0,0,.006-.027.108.108,0,0,1,.017-.047.042.042,0,0,1,.022-.014.025.025,0,0,0,.02-.024.162.162,0,0,0,0-.021.049.049,0,0,1,.012-.042A.026.026,0,0,1,43,11.274a.045.045,0,0,1,.021.008.044.044,0,0,0,.021.008.019.019,0,0,0,.01,0s.006-.011.008-.016v0l0,0a.055.055,0,0,0,.007-.013.143.143,0,0,0,0-.043c0-.029,0-.062.014-.07a.039.039,0,0,0-.014-.031l-.007-.008a.18.18,0,0,0-.029-.035A.086.086,0,0,1,43.02,11a.185.185,0,0,0,0-.02.224.224,0,0,0-.006-.029.112.112,0,0,1,0-.062.207.207,0,0,0,0-.074.345.345,0,0,1,0-.044.05.05,0,0,1-.022.007c-.009,0-.016-.007-.022-.022a.169.169,0,0,1-.011-.07.033.033,0,0,1,.017-.006.042.042,0,0,1,.017,0l.015.005.013,0,.022,0a.111.111,0,0,1,.024,0h.007c.024,0,.039,0,.046-.028,0-.006,0-.012,0-.018a.1.1,0,0,1,.017-.047.087.087,0,0,0,.019-.037.61.61,0,0,0,.014-.1c0-.048.007-.111.006-.178a.355.355,0,0,0-.035-.141.213.213,0,0,1-.012-.049.176.176,0,0,0-.018-.063C43.1,10.014,43.1,10,43.09,10a.2.2,0,0,1-.031-.053.2.2,0,0,1-.006-.04v0a.046.046,0,0,0-.019-.041.043.043,0,0,1-.014-.037.022.022,0,0,1,.016-.015.094.094,0,0,1,.022,0,.042.042,0,0,1,.026.007.031.031,0,0,1,.008.025.04.04,0,0,0,0,.019h0a.039.039,0,0,0,.033.018h.008a.161.161,0,0,0,.032,0h0a.7.7,0,0,1,.1-.011h0a.063.063,0,0,1,.008-.02.072.072,0,0,0,.009-.028.136.136,0,0,1,.042.032c.02.019.041.039.061.039s.029-.012.041-.037a.213.213,0,0,1,.054.017.169.169,0,0,0,.071.018h.01c0,.037.013.062.042.067a.121.121,0,0,0,.03-.1h.009a.021.021,0,0,0,.011,0,.812.812,0,0,1,.077-.332.2.2,0,0,0,.012-.041.157.157,0,0,1,.014-.045A.177.177,0,0,1,43.79,9.4a.082.082,0,0,0,.025-.05.148.148,0,0,1,.029-.071c.014-.022.026-.045.037-.067l.007-.014a.427.427,0,0,1,.033-.05.24.24,0,0,0,.047-.086.155.155,0,0,0,0-.041.133.133,0,0,1,0-.047.05.05,0,0,0,0-.056c-.014-.014-.05-.014-.069-.014s-.048,0-.058-.019a.047.047,0,0,1,0-.034.1.1,0,0,0,0-.011c0-.013,0-.028,0-.042a.273.273,0,0,1,.009-.087.056.056,0,0,1,.04-.041h0l.005,0,.008,0,.017,0,.008,0a.174.174,0,0,0,.028-.008.056.056,0,0,0,.024-.031.055.055,0,0,1,.027-.032l0-.005,0,0a.088.088,0,0,0,0-.048.217.217,0,0,1,0-.026c0-.012,0-.024,0-.036a.3.3,0,0,1,0-.045.082.082,0,0,1,.015-.039.1.1,0,0,0,.013-.028.222.222,0,0,1,.048-.088.045.045,0,0,1,.018-.013.05.05,0,0,0,.015-.009.061.061,0,0,0,.011-.035V8.215c0-.006,0-.011,0-.017a.155.155,0,0,1,0-.025.149.149,0,0,1,.009-.028.167.167,0,0,0,.006-.019.184.184,0,0,0,0-.077l0-.011s0-.006,0-.009,0-.031-.013-.037l-.009,0h-.021s0-.008,0-.011a.082.082,0,0,0-.006-.032v0l0,0a.1.1,0,0,1-.008-.088.019.019,0,0,1,.009-.009l.006,0a.07.07,0,0,0,.007-.018.07.07,0,0,1,.008-.018.279.279,0,0,1,.046-.06.383.383,0,0,1,.034-.028l0,0a.1.1,0,0,1,.031-.013h0l.022,0a.046.046,0,0,0,.02,0,.11.11,0,0,1,.033-.066.174.174,0,0,0,.028-.043.089.089,0,0,1,.057-.049l.011,0a.071.071,0,0,0,.024-.009l.007,0h0a11.533,11.533,0,0,1-.228,8.247,11.323,11.323,0,0,1-2.4,3.609,11.167,11.167,0,0,1-3.563,2.433,11.017,11.017,0,0,1-4.363.892A11.161,11.161,0,0,1,31.934,22.534Zm-.717-.152a11.051,11.051,0,0,1-3.4-1.484,11.361,11.361,0,0,1-4.494-5.74,11.5,11.5,0,0,1,1.234-10.1A11.253,11.253,0,0,1,29.4.943l.009.011a.122.122,0,0,1,.013.02.072.072,0,0,1,0,.029.088.088,0,0,0,0,.031c.007.02.016.02.026.02a.033.033,0,0,1,.022.006.047.047,0,0,1,.014.022c0,.01.007.019.02.019h.011c.006.016.021.016.035.017a.062.062,0,0,1,.029.005.066.066,0,0,1,.019.018.077.077,0,0,0,.018.018.076.076,0,0,0,.032.013l.01,0a.169.169,0,0,0,.035,0h.054a.113.113,0,0,1,.068.019.074.074,0,0,1,0,.035.026.026,0,0,0-.018.028c-.025,0-.038.03-.043.056s0,.074.025.084l.01,0h.031a.036.036,0,0,1,.019.019.038.038,0,0,0,.014.016.19.19,0,0,0,.023.012.076.076,0,0,1,.046.04h.039a.036.036,0,0,1,.039.021.066.066,0,0,1,0,.045l-.007,0-.009.019a.154.154,0,0,0-.008.018l-.007.013a.1.1,0,0,0-.011.023.063.063,0,0,0,0,.019.048.048,0,0,1,0,.029.035.035,0,0,1-.017.008.055.055,0,0,0-.021.01.071.071,0,0,0-.013.023.081.081,0,0,1-.006.013h-.071a.041.041,0,0,0-.021,0,.056.056,0,0,0-.017.013l-.006.006a.1.1,0,0,1-.024,0,.067.067,0,0,0-.037.01.072.072,0,0,0,0,.045.144.144,0,0,1,0,.021.157.157,0,0,1-.018.062l-.007.015c0,.012-.006.013-.013.013h-.018l-.027,0a.5.5,0,0,0-.051,0,.061.061,0,0,0-.042.01c-.008.008-.008.029-.009.044v.012a.2.2,0,0,1-.006.031c-.007.027-.014.057,0,.062V2.1a.326.326,0,0,0,.014.095h.013c0,.015,0,.03,0,.044a.557.557,0,0,0,.022.16l0,.006a.2.2,0,0,1,.017.089.059.059,0,0,1-.005.016.045.045,0,0,0-.006.024s0,.006.006.008a.014.014,0,0,1,.007.01.1.1,0,0,1,0,.019s0,.006,0,.009a.166.166,0,0,1-.01.049.147.147,0,0,0-.009.049A.088.088,0,0,0,29.6,2.7a.128.128,0,0,1,.007.018.294.294,0,0,1,.008.068s0,.011,0,.016a.112.112,0,0,1,0,.035.072.072,0,0,1-.014.021c-.007.008-.013.015-.013.021a.023.023,0,0,0,.009.023.03.03,0,0,1,.01.015.128.128,0,0,1,0,.033.16.16,0,0,0,0,.021h.008a.285.285,0,0,1-.006.061c0,.006,0,.011,0,.017a.1.1,0,0,1,.077.023.057.057,0,0,1,.01.047h.018c.055,0,.169.007.185.065a.044.044,0,0,1,.026.021.072.072,0,0,0,.02.02.048.048,0,0,0,.024.005h.017a.039.039,0,0,1,.019,0,.067.067,0,0,1,.025.047c.006.025.012.048.04.048l.016,0a.039.039,0,0,1,0-.008.017.017,0,0,0,0-.009H30.1a.2.2,0,0,1,.061.012.211.211,0,0,0,.062.012h.007c0-.008,0-.016,0-.023s0-.015,0-.022a.08.08,0,0,1,.044-.014h.006a.129.129,0,0,1-.009.054.1.1,0,0,0-.008.052h.008s0,.009,0,.013a.087.087,0,0,1-.006.055l-.008.008c-.008.008-.019.019-.017.028s.007.009.017.012,0,.005,0,.008a.056.056,0,0,0,.01.042c.016-.024.052-.027.078-.027h.06a.087.087,0,0,0,.013.04l0,0h.017a.013.013,0,0,0,0,0,.027.027,0,0,1,0,0l.017,0,.018,0a.021.021,0,0,1,.024-.024.011.011,0,0,1,0,0,.027.027,0,0,0,0,0h.04a.045.045,0,0,0,.013.027.041.041,0,0,1,.012.031h.044l.016,0a.159.159,0,0,1,.048.032.169.169,0,0,1,.029.041.238.238,0,0,1-.008.075.353.353,0,0,0-.009.053c0,.026-.005.032-.025.049l-.01.007a.062.062,0,0,0-.028.032c-.053,0-.1,0-.152,0h-.04a.066.066,0,0,0-.039.009.051.051,0,0,0-.014.022c-.005.012-.01.024-.025.024,0,.042-.022.044-.05.045a.138.138,0,0,0-.04.007.111.111,0,0,0-.05.043h0a.054.054,0,0,0-.016.031.168.168,0,0,1,0,.019c0,.015-.01.017-.015.017h-.016a.021.021,0,0,0-.015.006c-.014.013.01.052.022.073l.006.011a.186.186,0,0,1,.026.1.1.1,0,0,0-.026.015h.009c.017,0,.027,0,.032.008s.008.018.006.039c0,.007-.012.012-.021.016l-.012.006a.178.178,0,0,0-.036.045c-.008.017-.035.124-.017.153a.015.015,0,0,0,.013.008.054.054,0,0,0,0,.006.032.032,0,0,1,0,.007h.033a.023.023,0,0,1,0-.01.025.025,0,0,0,0-.01.07.07,0,0,1,.027-.005.062.062,0,0,1,.026.005.062.062,0,0,0,0,.008c0,.011,0,.024,0,.029a.017.017,0,0,1-.013,0H30.2c-.011,0-.013.007-.015.013a.042.042,0,0,1-.007.012.037.037,0,0,1-.018.013l-.012.005-.006,0c-.009,0-.01,0-.019.018l-.006.01a.092.092,0,0,1-.013.018.8.8,0,0,0-.055.063l0,0A.084.084,0,0,1,30,4.824l-.023.009c-.025.01-.025.021-.026.036a.085.085,0,0,1,0,.027.059.059,0,0,1-.027.025.08.08,0,0,0-.026.021l-.006.009a.049.049,0,0,1-.051.026c0,.007,0,.014,0,.022s0,.015,0,.023a.052.052,0,0,0-.027.023c-.008.01-.016.021-.027.023v.005h-.014c-.02,0-.045,0-.056.013a.026.026,0,0,0,0,.022h0a.023.023,0,0,1,.019.009.022.022,0,0,1,0,.02l-.013,0a.123.123,0,0,0-.034.012.031.031,0,0,0-.011.028.06.06,0,0,0,.037.035.461.461,0,0,1-.01.117l0,.014c0,.02,0,.024-.028.037l-.008,0-.007,0-.008,0a.126.126,0,0,0-.042.036l-.013.024c-.012.024-.022.045-.054.046h-.011a.326.326,0,0,1-.05-.005.368.368,0,0,0-.051-.005.223.223,0,0,0-.121.039l-.009,0a.862.862,0,0,1-.055.228c-.006.017-.011.035-.016.052s-.015.051-.024.075A.259.259,0,0,1,29.139,6a.411.411,0,0,0-.084.116.374.374,0,0,1-.1.13.559.559,0,0,1-.108.06.524.524,0,0,0-.115.065.14.14,0,0,1-.068.027.278.278,0,0,0-.041.01c-.067.023-.1.1-.135.157l0,.009c-.034.006-.03.039-.026.071a.124.124,0,0,1,0,.049.09.09,0,0,1-.054.052l-.017.009-.021.011a.176.176,0,0,0-.069.052.3.3,0,0,0-.036.084.239.239,0,0,1-.057.108.23.23,0,0,1-.165.055c-.026,0-.053,0-.079,0s-.054,0-.081,0a.453.453,0,0,0-.186.032.477.477,0,0,0-.06.032.253.253,0,0,1-.122.047.119.119,0,0,1-.026,0,.246.246,0,0,1-.125-.129.2.2,0,0,1,0-.053.072.072,0,0,0-.024-.066.134.134,0,0,0-.091-.034.284.284,0,0,0-.193.1.123.123,0,0,0-.018.034.123.123,0,0,1-.016.031c-.036.046-.064.082-.094.123L26.9,7.2a.7.7,0,0,1-.107.121.806.806,0,0,1-.094.059c-.023.013-.048.027-.07.042a.15.15,0,0,0-.077.133c0,.014,0,.029-.007.047a.156.156,0,0,1-.021.051.17.17,0,0,0-.02.047c-.025.1.025.131.087.166a.536.536,0,0,1,.066.042.242.242,0,0,1,.022.021.2.2,0,0,0,.026.023.057.057,0,0,1,.011.013.03.03,0,0,0,.022.016h0c.007,0,.01-.005.013-.011s.005-.009.011-.009h.022a.243.243,0,0,1,.131.036c.04.028.038.075.036.125,0,.012,0,.023,0,.035s0,.009,0,.013a.118.118,0,0,1-.014.071.129.129,0,0,1-.029.03.115.115,0,0,0-.026.027.253.253,0,0,0-.013.161.057.057,0,0,0,.027.028.041.041,0,0,1,.018.016.123.123,0,0,1,0,.054c0,.01,0,.019,0,.027.03.006.032.017.036.029a.039.039,0,0,0,.012.022.169.169,0,0,0,.055.028.492.492,0,0,0,.152.021c.036,0,.06,0,.071.014s.012.034.012.073v.011a.518.518,0,0,0,.021.154,1.111,1.111,0,0,0,.062.147.378.378,0,0,0,.03.05.216.216,0,0,1,.039.076.2.2,0,0,0,.045.092c.009.012.019.025.029.042l.023.032a.462.462,0,0,1,.069.113h0a.075.075,0,0,1,0,.037h-.008c-.027,0-.072.006-.077.048l.008,0,.009,0a.207.207,0,0,1-.007.057.163.163,0,0,0-.005.063h.1V9.71l-.008.008-.006.006a.111.111,0,0,0-.059.036l-.014.012a.05.05,0,0,0-.037-.011H27.46a.026.026,0,0,1,0,0,.014.014,0,0,0,0,0c-.045,0-.056.04-.057.07h-.018l-.062,0a.227.227,0,0,1-.083-.012c-.042-.017-.038-.054-.032-.093a.224.224,0,0,0,0-.055l-.071,0h-.059a.2.2,0,0,0-.054.009A.1.1,0,0,0,27,9.709a.109.109,0,0,1-.029.02.157.157,0,0,1-.051.009H26.91c-.029,0-.031,0-.047.017l-.007.006c-.012.011-.026.021-.04.032l-.039.03c0,.014-.021.021-.061.021l-.046,0h-.022a.122.122,0,0,1-.126-.066l-.009-.013a.144.144,0,0,0-.037-.043.059.059,0,0,0-.022,0l-.03,0H26.4a.184.184,0,0,1-.047-.007l-.017,0h-.007l-.015,0c-.01,0-.016,0-.021.027h-.009a.033.033,0,0,1-.021-.009.066.066,0,0,0-.016-.009.069.069,0,0,0-.021-.006l-.012,0-.008,0-.017.005a.159.159,0,0,1-.047.01.078.078,0,0,1-.032-.007.056.056,0,0,1-.017-.014c-.007-.008-.015-.016-.022-.017h0a.034.034,0,0,0-.021.012.052.052,0,0,1-.014.011.066.066,0,0,1-.025.006c-.02,0-.025-.018-.031-.042l0-.015h0c-.029,0-.049.066-.052.079-.023,0-.026-.031-.029-.058a.123.123,0,0,0-.007-.034c-.006-.013-.012-.02-.017-.02s-.015.058-.015.076a.336.336,0,0,1-.019.108.233.233,0,0,0-.008.045.156.156,0,0,1-.016.062l-.075,0h-.2a.061.061,0,0,1-.018-.009A.04.04,0,0,0,25.5,9.9c-.016,0-.019.008-.021.015a.027.027,0,0,1-.01.016.054.054,0,0,1-.028.006h-.02a.05.05,0,0,1-.014.018.045.045,0,0,0-.015.018.057.057,0,0,0,0,.024c0,.013,0,.025-.012.033s-.007.024-.012.036-.009.027-.013.042l-.009,0h-.01a.013.013,0,0,1,0,.013.09.09,0,0,1-.01.028c-.007.013-.011.021.009.035a.266.266,0,0,0,.1.016h.013c.04,0,.046-.023.052-.05a.128.128,0,0,1,.016-.044.057.057,0,0,1,.051-.022h.043a.1.1,0,0,0,.03,0,.335.335,0,0,0,.055-.032.072.072,0,0,0,.015-.016c.008-.011.017-.021.029-.021h.007a.1.1,0,0,0-.01.034.078.078,0,0,1-.011.032.046.046,0,0,1-.033.013.079.079,0,0,0-.023.005.1.1,0,0,0-.022.019.126.126,0,0,1-.021.019l-.006,0a.064.064,0,0,1-.044.014H25.56c-.012,0-.016,0-.021.008a.139.139,0,0,0-.007.015.323.323,0,0,0,0,.112.059.059,0,0,1,.018,0,.035.035,0,0,1,.036.029c0,.018,0,.019-.008.023a.052.052,0,0,0-.023.017h0a.2.2,0,0,1,.079.024c.006,0,.01.006.011.01s0,.016-.012.025a.054.054,0,0,0-.017.043c.014,0,.021-.011.028-.021s.013-.019.026-.02a.077.077,0,0,1-.008.05.031.031,0,0,1-.013.011s-.008,0-.01.008a.021.021,0,0,0,0,.014.114.114,0,0,0,.027-.022c.013-.013.027-.026.042-.026h.008v.013c-.02,0-.026.018-.032.032s-.01.025-.023.025h0l.014.017a.143.143,0,0,1,.033.056.155.155,0,0,1,.081.049.257.257,0,0,0,.047.036l.011.006a.537.537,0,0,1,.123.078L26,10.8l.03.025.019.019a.11.11,0,0,0,.047.036.159.159,0,0,0,.042,0c.036,0,.069,0,.071.047h.019a.066.066,0,0,0,.028-.005.011.011,0,0,1,0-.009s.012-.007.026-.007a.366.366,0,0,1,.057.007l.025,0,.029,0a.2.2,0,0,0,.042.006h.014a.127.127,0,0,0,.025-.008.086.086,0,0,1,.034-.008h0a.059.059,0,0,1,0-.006.03.03,0,0,0,0-.006.108.108,0,0,1,.067-.017h.033a.144.144,0,0,0,.051-.007.063.063,0,0,0,.029-.025.062.062,0,0,1,.032-.027h.014l.021,0,.021,0,.013,0s.024-.029.022-.038a0,0,0,0,0,0,0h-.04a.027.027,0,0,1,.007-.022.035.035,0,0,1,.026-.013l.012,0a.039.039,0,0,1,.02.021c0,.006.005.01.01.01a.05.05,0,0,0,.024-.013.056.056,0,0,1,.015-.044.1.1,0,0,1,.074-.03h.012a.048.048,0,0,0,.012.036.039.039,0,0,0,.029.012.059.059,0,0,0,.038-.015l-.008.014a.126.126,0,0,1-.025.035L27,10.792a.059.059,0,0,0-.025.029.346.346,0,0,0-.036.136.181.181,0,0,0-.065.057.422.422,0,0,1-.03.033l-.015.011a.093.093,0,0,0-.032.031.075.075,0,0,0-.006.031.113.113,0,0,1,0,.025h-.005l-.03,0-.029,0h-.017c-.006,0-.007.005-.008.009s0,.007-.007.007l-.009,0a.027.027,0,0,1-.015-.016.033.033,0,0,0-.017-.018h-.006a.131.131,0,0,0-.024,0h-.007a.184.184,0,0,0-.047.024l-.007,0h.044a.087.087,0,0,1-.03.043.074.074,0,0,0-.029.044h0l-.013,0a.042.042,0,0,1-.013,0h0a.011.011,0,0,1,0,0,.035.035,0,0,0,0,0h-.022a.03.03,0,0,0,0-.025.024.024,0,0,0-.019-.007.106.106,0,0,0-.057.023.013.013,0,0,0,0,.011.011.011,0,0,1,0,.01l-.008,0h-.012a.03.03,0,0,1-.015,0c-.005,0-.01,0-.012,0a.023.023,0,0,0,0,.018.034.034,0,0,1-.017,0,.058.058,0,0,0,0-.012.039.039,0,0,1,0-.019H26.32a.446.446,0,0,0-.06.005l-.042,0,.012,0a.058.058,0,0,1,0,.031l-.011,0c-.013,0-.018-.008-.024-.017a.035.035,0,0,0-.02-.017h0a.109.109,0,0,0-.038.013l-.013.006a.153.153,0,0,1-.031.008.135.135,0,0,0-.035.009.1.1,0,0,0-.019.013.081.081,0,0,1-.024.015.027.027,0,0,1,.016-.019c.009,0,.017-.01.014-.026h-.008q-.022,0-.027-.01c-.007-.014.009-.04.024-.063a.315.315,0,0,0,.017-.029.028.028,0,0,1-.019.007l-.016,0-.018,0h-.008a.05.05,0,0,0-.017.008.043.043,0,0,1-.024.01h0a.033.033,0,0,1-.03-.02.026.026,0,0,1,.011-.028.035.035,0,0,1,.021-.008c.011,0,.02,0,.02-.019h-.031a.043.043,0,0,0-.033.011.02.02,0,0,0,0,.018.024.024,0,0,1,0,.014.048.048,0,0,1-.009.013.027.027,0,0,0-.009.014.037.037,0,0,0-.025.024c-.01.034.028.086.053.121l.014.02c.008.014.016.029.023.044a.578.578,0,0,0,.028.053,1.177,1.177,0,0,0,.088.111c.026.03.052.061.077.094l.008.012a.25.25,0,0,0,.066.071.36.36,0,0,1,.055.052.439.439,0,0,0,.036.036.38.38,0,0,1,.08.089l0,.008c.015.025.03.05.06.05h.007l0,.005a.017.017,0,0,1-.008.008c.005.072.089.144.145.191l.011.009c.013.012.025.024.037.036a.52.52,0,0,0,.054.05l.022.015a.173.173,0,0,1,.039.031l.01.012a.484.484,0,0,0,.037.039.239.239,0,0,0,.056.038.281.281,0,0,1,.049.031.177.177,0,0,1,.02.021.158.158,0,0,0,.027.026.062.062,0,0,0,.035.012l.021,0a.094.094,0,0,1,.044.026.081.081,0,0,0,.053.026h0a.043.043,0,0,0,.022-.008.014.014,0,0,0,0,.007s.011,0,.016,0h.009l.008,0a.006.006,0,0,0,.006,0,.01.01,0,0,0,0-.009h0l-.008,0h-.008a.029.029,0,0,1,.013,0h0a.055.055,0,0,1,.033.013.09.09,0,0,0,.019.011.048.048,0,0,1,.023-.005.125.125,0,0,1,.067.028.089.089,0,0,1,.037-.024.06.06,0,0,0,.03-.02h.032a.143.143,0,0,0,.077-.015.146.146,0,0,0,.019-.014.068.068,0,0,1,.042-.019h.054a.085.085,0,0,1,.07-.05h.017c.02,0,.045,0,.055-.013a.024.024,0,0,0,.005-.018h0c-.022,0-.048,0-.056.028a.021.021,0,0,1,0-.022c.011-.021.061-.03.078-.03h0l.021,0,.034,0a.088.088,0,0,0,.06-.019.073.073,0,0,1,.064-.029l.016,0a.182.182,0,0,0,.079-.035l.019-.017a.08.08,0,0,1,.052-.029H28.1c0-.008,0-.016,0-.023s0-.015,0-.022h.013a.365.365,0,0,1,.1-.136.148.148,0,0,0,.033-.117c0-.013,0-.027,0-.04.026-.005.02-.043.015-.07a.166.166,0,0,1,0-.02.16.16,0,0,1,0-.023.1.1,0,0,0,0-.033.051.051,0,0,0-.011-.022.04.04,0,0,1-.008-.014.118.118,0,0,1,.018-.089.2.2,0,0,1,.013-.018.117.117,0,0,0,.026-.046.024.024,0,0,0,.009-.008l.007-.008H28.3a.085.085,0,0,1-.044-.011.092.092,0,0,0,.036-.068v0H28.3a.053.053,0,0,1,.032.014.057.057,0,0,0,.033.014.037.037,0,0,0,.03-.013.035.035,0,0,1,.027-.012h.007a.034.034,0,0,0,0-.017h-.072c0-.013.015-.019.032-.019H28.4c0-.024.015-.036.035-.036a.238.238,0,0,1,.1.049l.015.01a.143.143,0,0,0,.067.013.307.307,0,0,0,.112-.022.268.268,0,0,0-.027.027.183.183,0,0,1-.039.037.047.047,0,0,1-.02.006.028.028,0,0,1-.013,0,.07.07,0,0,0-.018-.006l-.022,0a.082.082,0,0,1-.036-.01.127.127,0,0,1-.028-.028c-.01-.012-.018-.022-.028-.022s-.019.008-.031.025a.12.12,0,0,0-.014.045c0,.022-.008.042-.021.049l.006,0c.011.008.023.016.022.032-.032.007-.026.107-.026.108h.05c.007-.019.058-.029.1-.029a.117.117,0,0,1,.05.008.346.346,0,0,0-.037.018.159.159,0,0,1-.065.023H28.5a.046.046,0,0,0-.046.021.1.1,0,0,0,0,.055.225.225,0,0,1,0,.023.133.133,0,0,1-.007.035.08.08,0,0,0-.006.043l.026,0c.04,0,.115.011.115.023v.013h-.074a.2.2,0,0,0-.054.006l0,0h0a.033.033,0,0,0,.012.009.048.048,0,0,0,0,.014.039.039,0,0,1,0,.016h.011a.115.115,0,0,0,.076-.023L28.576,12a.043.043,0,0,1,.031-.017.051.051,0,0,1,.019,0h-.018a.09.09,0,0,1-.034.049.167.167,0,0,0-.023.024l-.007.012a.1.1,0,0,1-.02.026.046.046,0,0,1-.016.009c-.011,0-.021.008-.014.029H28.5a.141.141,0,0,1-.012.076.034.034,0,0,1-.007.011.025.025,0,0,0-.006.026c0,.015,0,.024.018.032a.059.059,0,0,0-.016.056h.038c.015,0,.033,0,.034.015a.054.054,0,0,0-.044.038h.013l.032,0,.033,0h.014a.034.034,0,0,1,0,.017h-.007a.085.085,0,0,0-.051.016c.019.01.019.031.018.052s0,.012,0,.017h0l.032,0,.031,0,.019,0a.1.1,0,0,0-.005.041.315.315,0,0,0-.08.021s.005.011.008.018a.113.113,0,0,0,.024.042.061.061,0,0,0,.042.01h.016c0,.026-.013.03-.031.035a.09.09,0,0,0-.023.008c0,.015,0,.029,0,.043a.482.482,0,0,1-.017.129l0,.011,0,.012-.025,0a.155.155,0,0,0-.091.023l0,0a.015.015,0,0,0,0,.017c.009.019.074.021.1.021h.019a.09.09,0,0,1,.017-.015c.011-.008.021-.015.018-.029a.012.012,0,0,0,0-.005h0a.018.018,0,0,1,.01.012c0,.014-.007.022-.019.03a.093.093,0,0,0-.016.013H28.53a.031.031,0,0,0-.017.012.057.057,0,0,0-.007.031.053.053,0,0,1-.006.029.048.048,0,0,1-.035.015c-.014,0-.027,0-.031.016a.036.036,0,0,0,.009.027.048.048,0,0,1,.011.033l0,.008-.009,0-.011,0a.026.026,0,0,1-.018.013.034.034,0,0,0-.024.019c-.014.029,0,.051.018.072a.077.077,0,0,1,.023.057.1.1,0,0,0-.012-.013.044.044,0,0,1-.017-.027l-.017,0-.018,0c-.016.021-.008.033,0,.051l0,0a.239.239,0,0,1,.028.042l-.011,0a.039.039,0,0,1-.015,0h-.005a.253.253,0,0,1-.007.046.165.165,0,0,0-.006.06h0a.017.017,0,0,1,.014.006c.011.014,0,.051-.006.083s-.011.046-.006.053l0,0h.04s0-.009,0-.015,0-.039.016-.041.016.011.026.021a.116.116,0,0,0,.024.022.081.081,0,0,1-.043.023c-.021.007-.04.012-.045.032a.028.028,0,0,0,.009.028.032.032,0,0,1,.009.015.16.16,0,0,1,0,.038.225.225,0,0,0,0,.025l.029,0h.037l.03,0a.1.1,0,0,1-.048.009c-.025,0-.051,0-.058.022a.233.233,0,0,0,.016.1s0,.007.006.008a.239.239,0,0,1,0,.045c-.015.006-.011.016-.008.026a.043.043,0,0,1,0,.026c-.013,0-.018.029-.015.048s.01.023.02.023h0c0-.009.008-.018.013-.026a.157.157,0,0,0,.02-.057h.064a.126.126,0,0,0,0-.034c0-.025,0-.053.018-.053h0a.063.063,0,0,0,.007.035.086.086,0,0,1,.006.02.1.1,0,0,1-.006.054h-.034l-.012,0c-.011,0-.012.009-.013.014a.025.025,0,0,1-.006.013l-.006.006c-.012.013-.031.031-.027.046s.008.012.019.015a.044.044,0,0,0,0,.013.072.072,0,0,1,0,.014H28.5l.013,0a.056.056,0,0,1,.015.012.07.07,0,0,0,.015.013.055.055,0,0,1-.038.01l-.03,0h-.013a.059.059,0,0,0,0-.006.059.059,0,0,1,0-.006h-.011a.04.04,0,0,0-.036.021.115.115,0,0,0,0,.1.048.048,0,0,0,.011.013.059.059,0,0,1,.011.011.056.056,0,0,1,.006.02.069.069,0,0,0,0,.017.232.232,0,0,0,.04.062h-.007l-.018,0a.034.034,0,0,1,0-.013h-.016a.4.4,0,0,0,0,.12.05.05,0,0,1,.016.006.053.053,0,0,0,.014.005v.009a.063.063,0,0,1-.009.05h.04a.027.027,0,0,1,.026-.023h.006a.073.073,0,0,0,0,.036.054.054,0,0,1,0,.024c0-.023-.028-.026-.046-.026h-.041c-.006.034.009.04.027.048a.123.123,0,0,1,.023.012.081.081,0,0,1-.017.054.158.158,0,0,0-.01.018.029.029,0,0,1,.012,0,.022.022,0,0,0,.01,0s0,.082.041.082h.008a.042.042,0,0,0-.029.025c-.01.028.016.07.036.1a.148.148,0,0,1,.02.11.328.328,0,0,0,0,.062h.01a.053.053,0,0,1,.035.01.079.079,0,0,1-.025.015l-.017.009,0,.008c.018.052.049.14.007.187h.046c0,.016,0,.019-.01.022a.019.019,0,0,0-.012.01.147.147,0,0,0,0,.047v0c.013,0,.029.008.035.019a.029.029,0,0,1,0,.023h0a.02.02,0,0,0-.017.008.035.035,0,0,0,0,.03.017.017,0,0,1,.014.005c.009.011,0,.034,0,.057a.151.151,0,0,0,0,.036h0a.049.049,0,0,1,.015,0l.012,0a.019.019,0,0,1,0,.016.029.029,0,0,1-.024.008h-.01a.284.284,0,0,1,.027.148c0,.012,0,.024,0,.033a.292.292,0,0,1,0,.043c0,.014,0,.028,0,.041a.209.209,0,0,0,.012.056.247.247,0,0,1,.011.042.221.221,0,0,1,0,.033.145.145,0,0,0,.008.057.348.348,0,0,1,.024.094c0,.007,0,.016,0,.026a.2.2,0,0,0,0,.035.044.044,0,0,0,.015.021.03.03,0,0,1,.011.014c0,.019-.01.032-.023.044l-.012.012a.046.046,0,0,0,.026.034l.015.011a.22.22,0,0,1,.042.048.246.246,0,0,1,.032.074.337.337,0,0,0,.019.054l.013.028c.016.034.04.085.048.1a.268.268,0,0,1,.012.034.107.107,0,0,0,.03.056.278.278,0,0,0,.084.028c-.015,0-.049,0-.054.018s0,.015.01.024a.03.03,0,0,0,.023.008h.033a.032.032,0,0,1,.029.013h-.038a.061.061,0,0,0-.034.008l.019.033a.28.28,0,0,1,.053.162h-.008c0,.016.008.027.019.037a.1.1,0,0,1,.016.017l.014.026a.288.288,0,0,0,.024.04.021.021,0,0,1,.006.01.107.107,0,0,1,.009.033.124.124,0,0,0,0,.02h.008l0,0a.06.06,0,0,0,.027.024c.011.006.021.012.023.022h-.045c-.019,0-.03,0-.035.011a.025.025,0,0,0,0,.023.029.029,0,0,1,.025.019.022.022,0,0,0,.011.013l.011,0,.016,0h.028a.038.038,0,0,1,.019.021.035.035,0,0,0,.013.017l.011,0h.019a.022.022,0,0,1,.019.011.061.061,0,0,1,0,.031.087.087,0,0,0,0,.026.048.048,0,0,0,.01.014.043.043,0,0,1,.012.025l0,.013c.006.031.01.053.045.053h.012c0,.009,0,.016-.01.022a.032.032,0,0,0-.013.017.064.064,0,0,0,.009.033.13.13,0,0,1,.006.016.216.216,0,0,0,.018.039.035.035,0,0,0,.011.012c.007.005.013.01.007.029H29.4a.035.035,0,0,0,0,.011.046.046,0,0,1,0,.006.023.023,0,0,1,.022.014.144.144,0,0,1-.023.1.345.345,0,0,1,.107.12.179.179,0,0,1,.007.024.184.184,0,0,0,.007.023l.006.011a.049.049,0,0,1,.008.021.19.19,0,0,1,0,.05.313.313,0,0,0,0,.032h.012a.043.043,0,0,1,.035.011.02.02,0,0,1,0,.018c-.018.006-.027.013-.031.022s0,.022.009.035a.141.141,0,0,1,.014.036.406.406,0,0,1,0,.12c-.007,0-.053.016-.054.025s.012.016.024.021l.012.005.007,0c.015.009.015.009.02.031v0a.3.3,0,0,0,.022.06.112.112,0,0,1,.014.062v.066s0,.009,0,.014a.084.084,0,0,0,.006.046.036.036,0,0,0,.023.02.079.079,0,0,1,.021.012c-.031.018-.011.056.006.089a.3.3,0,0,1,.013.028c.006.019.011.037.015.055s.007.03.012.044h-.006a.189.189,0,0,0,.025.054l.013.021a.3.3,0,0,1,.056.124.517.517,0,0,0,.042.144.49.49,0,0,1,.018.053.321.321,0,0,0,.029.076.132.132,0,0,1,.019.056v.017a.093.093,0,0,0,0,.039c0,.007.006.01.007.01l0,0a.011.011,0,0,1,.007,0,.042.042,0,0,1,.016,0l.009,0h.021a.01.01,0,0,1,.01,0,.009.009,0,0,1,0,.013.012.012,0,0,1-.008,0,.126.126,0,0,0,.031.022l.018.011.014.008.011.007h-.039a.036.036,0,0,0,.013.026l.01.012a.059.059,0,0,1,.008.019.028.028,0,0,0,.016.021l.02.011a.161.161,0,0,1,.028.016l0,0a.056.056,0,0,0,.03.014.091.091,0,0,0,.01.02l0,0a.064.064,0,0,1,.024,0l.033,0h.009c.013,0,.02,0,.022.01a.029.029,0,0,0-.021-.008h-.009l-.033,0a.067.067,0,0,0-.024,0,.017.017,0,0,0-.013.019.047.047,0,0,0,.048.037l.014,0,0,.006a.069.069,0,0,1,0,.024.054.054,0,0,0,.008.031l0,.01c0,.01.009.021.02.021h0a.017.017,0,0,1,0,.011h-.025a.04.04,0,0,0,.009.016.041.041,0,0,1,.009.018.1.1,0,0,1,0,.015.062.062,0,0,0,0,.018.026.026,0,0,0,.021.019l.012,0s0,0,.012.008l.006.008a.134.134,0,0,1,.016.02.08.08,0,0,1,0,.012.032.032,0,0,0,.008.018.028.028,0,0,0,.015,0h.019a.027.027,0,0,1,.018,0,.009.009,0,0,1,0,.007h-.039c0,.008,0,.011.008.015a.021.021,0,0,1,.008.008.049.049,0,0,1,0,.025v.006a.142.142,0,0,0,.007.039.171.171,0,0,1,.007.029l0,0,0,0h0l.036,0c0,.01-.006.014-.014.018s-.015.008-.015.017a.062.062,0,0,0,.012.03.112.112,0,0,1,.009.019.122.122,0,0,1,0,.026.118.118,0,0,0,0,.026.145.145,0,0,1,.006.026.159.159,0,0,0,.005.025.3.3,0,0,0,.011.032l.007.02a.13.13,0,0,1,.005.033.2.2,0,0,0,0,.02.1.1,0,0,0,.009.026.089.089,0,0,1,.009.03c0,.006,0,.012,0,.018a.1.1,0,0,0,0,.034s0-.008,0-.012a.034.034,0,0,1,.005-.025h.005a.112.112,0,0,1,.006-.022l0,0,0,0,.007,0a.016.016,0,0,1,.013.012.023.023,0,0,1,0,.018.009.009,0,0,1-.007,0,.03.03,0,0,0,.008.028.043.043,0,0,0-.022,0h-.011a.053.053,0,0,0,0,.02.047.047,0,0,1,0,.016c.011,0,.032.03.036.041a.072.072,0,0,1,0,.015.06.06,0,0,0,0,.016l0,0c0,.012.01.03.023.03h0a.013.013,0,0,1,0-.009l0,0a.032.032,0,0,1,.019.01.1.1,0,0,1,.011.02.1.1,0,0,0,.012.021H30.6c-.017,0-.019-.006-.02-.03h-.013a.078.078,0,0,0,.015.033.12.12,0,0,1,.013.024.08.08,0,0,1,0,.015.059.059,0,0,0,0,.018l.006.012a.065.065,0,0,1,.007.015.2.2,0,0,1,.005.031v0a.054.054,0,0,1,0,.006.041.041,0,0,0,0,.012.019.019,0,0,0,.006.006.011.011,0,0,1,0,.005.18.18,0,0,1,.013.067.023.023,0,0,1,.02-.007h.015a.087.087,0,0,0,0-.017.079.079,0,0,1,0-.022.115.115,0,0,1,.019.038c.008.02.016.041.025.043h0A.023.023,0,0,1,30.7,21a.024.024,0,0,0-.016-.007.027.027,0,0,0,0,0,.023.023,0,0,1,0,0h-.006l-.005,0s0,.012,0,.019a.04.04,0,0,1,0,.014l-.007,0-.005,0a.085.085,0,0,1,.01.031.076.076,0,0,0,.024.056.152.152,0,0,1,.018.026.159.159,0,0,0,.016.023l.015.016a.223.223,0,0,1,.024.027.09.09,0,0,0,.012.014.054.054,0,0,1,.018.03.149.149,0,0,1,0,.035.2.2,0,0,0,0,.024.047.047,0,0,0,.01.025.05.05,0,0,1,.011.027c0,.022,0,.043,0,.064s0,.039,0,.059h.032a.017.017,0,0,1,0-.009.016.016,0,0,0,0-.005l.007.005c.017.012.031.022.026.048h0a.094.094,0,0,1-.034-.007.129.129,0,0,0-.027-.007H30.81c-.019,0-.031,0-.032-.027a.147.147,0,0,1,.005-.056.1.1,0,0,1,.007-.015.049.049,0,0,0,.009-.033c0-.01-.009-.012-.017-.014a.022.022,0,0,1-.021-.019.16.16,0,0,1,0-.025.112.112,0,0,0-.006-.034.282.282,0,0,1-.014-.057.068.068,0,0,0-.013-.029.164.164,0,0,1-.009-.016l-.006-.011a.052.052,0,0,0-.01-.016l-.006-.006a.016.016,0,0,1-.009-.014.273.273,0,0,0,.022.1.349.349,0,0,1,.022.081l0,.032a.509.509,0,0,1,.007.074.734.734,0,0,0,.007.091.241.241,0,0,0,.019.056l.008.019a.127.127,0,0,1,.007.047.193.193,0,0,0,0,.034.21.21,0,0,0,.026.061l.006.012c.006.012.011.025.016.038s.011.027.018.04a.154.154,0,0,1,.01.041.145.145,0,0,0,.009.035.055.055,0,0,0,0-.028.031.031,0,0,1,.033.031l-.012,0c-.009,0-.017,0-.019.013.013.006.016.019.018.032a.058.058,0,0,0,.005.019.012.012,0,0,1,.012-.008h.007a.012.012,0,0,0,.009,0,.017.017,0,0,0,0-.012c0-.006,0-.012.008-.015l.007,0a.066.066,0,0,1,.044.032.06.06,0,0,1-.025.013.06.06,0,0,0-.027.015l.005.005a.065.065,0,0,0,.011.011h-.027a.052.052,0,0,0,.034.045H31c.008,0,.013,0,.013,0a.057.057,0,0,1,0,.027l-.012,0a.066.066,0,0,0-.018,0c0,.028.035.071.064.1.01.012.019.022.025.03a.811.811,0,0,0,.073.086c.015.016.031.033.046.051a.182.182,0,0,1,.028.042h0ZM38.711,8.366l0,0a.064.064,0,0,0-.037-.015h-.005a.068.068,0,0,0,0-.01s0-.005,0-.007a.082.082,0,0,0-.036-.006h-.035a.374.374,0,0,0-.029-.134c-.013,0-.017.012-.021.023a.043.043,0,0,1-.015.023.021.021,0,0,1-.012,0H38.5a.024.024,0,0,0-.011.013.028.028,0,0,1-.007.01.13.13,0,0,1-.1.053h-.022a.031.031,0,0,1-.006.012.036.036,0,0,0,0,.009h0c-.013,0-.025-.014-.037-.027a.116.116,0,0,0-.023-.023.2.2,0,0,0-.048-.024.216.216,0,0,1-.03-.014L38.2,8.244a.066.066,0,0,0-.027-.012l-.02,0a.148.148,0,0,1-.026-.006L38.1,8.214a.143.143,0,0,0-.051-.018.016.016,0,0,0-.017.013A.111.111,0,0,1,38,8.215a.13.13,0,0,1-.064-.019l-.011-.007a.093.093,0,0,0-.051-.019h0a.036.036,0,0,0-.028.012l-.014.012-.014.01a.209.209,0,0,1-.023.016l-.005,0a.154.154,0,0,1-.036.024c-.009,0-.017-.01-.025-.019a.081.081,0,0,0-.015-.016.086.086,0,0,0-.051-.016H37.65c0-.03,0-.06,0-.089s0-.059,0-.088H37.6a.125.125,0,0,0-.053.009.245.245,0,0,0-.083.066.1.1,0,0,0-.023.015.06.06,0,0,1-.045.015h-.027a.062.062,0,0,1-.051-.019.061.061,0,0,1-.011-.034c0-.015,0-.03-.021-.037a.058.058,0,0,0-.024,0h-.058a.14.14,0,0,0-.094-.087.148.148,0,0,0-.058-.01H37a.2.2,0,0,1-.038,0,.054.054,0,0,1-.041-.024c-.013-.023,0-.057.013-.087a.115.115,0,0,0,.006-.072.33.33,0,0,0-.009-.033.241.241,0,0,1-.011-.047.362.362,0,0,0-.086-.006.193.193,0,0,1-.155-.043.092.092,0,0,1-.01-.023.062.062,0,0,0-.011-.023.046.046,0,0,0-.032-.008.074.074,0,0,1-.022,0,.092.092,0,0,1-.021-.012.041.041,0,0,0-.027-.012l-.012,0a.167.167,0,0,0-.006.022c0,.015,0,.019-.031.024l-.028,0a.331.331,0,0,0-.088.023.082.082,0,0,0-.017.011.057.057,0,0,1-.023.013l-.016,0a.129.129,0,0,1-.066-.027L36.241,7.6a.22.22,0,0,0-.1-.018c-.021,0-.042,0-.063,0h-.014a.13.13,0,0,1-.029.055.091.091,0,0,1-.024.016L36,7.67a.027.027,0,0,0-.011.014l-.01,0c-.02,0-.029-.023-.037-.042l-.007-.016a.1.1,0,0,0-.05-.048.123.123,0,0,0-.041-.006.479.479,0,0,0-.049,0h-.005a.407.407,0,0,1-.043,0h0c0-.027-.039-.031-.066-.031H35.6c0-.012,0-.024,0-.037a.36.36,0,0,0,0-.047.128.128,0,0,0-.018-.044.173.173,0,0,1-.015-.034l-.023,0a.233.233,0,0,0-.067.013h0a.23.23,0,0,1-.063.012H35.4a.062.062,0,0,1-.044-.033.165.165,0,0,0-.016-.021.088.088,0,0,0-.046-.026l-.022-.008c-.025-.01-.05-.024-.075-.037s-.04-.021-.061-.031l-.018-.009a.052.052,0,0,0-.022-.008.057.057,0,0,0-.026.009.091.091,0,0,0-.018.016.052.052,0,0,1-.034.021h-.009c-.013-.033-.061-.053-.088-.062a.6.6,0,0,1-.077-.03l-.014-.006a.044.044,0,0,0,0-.013.045.045,0,0,1,0-.013.475.475,0,0,1-.1-.059.207.207,0,0,1-.025-.022.071.071,0,0,0-.048-.027.061.061,0,0,0-.02,0,.013.013,0,0,1,0,0,.033.033,0,0,0,0,0h0c-.02,0-.022-.034-.023-.062a.164.164,0,0,0,0-.031.118.118,0,0,0-.062-.08l-.023,0a.084.084,0,0,1-.031-.009l-.015-.009a.294.294,0,0,0-.032-.018.187.187,0,0,1-.028-.018.133.133,0,0,0-.023-.016.061.061,0,0,0-.02,0h-.038a.064.064,0,0,0,0-.016.066.066,0,0,1,0-.015.2.2,0,0,1-.139-.069L34.173,6.7a.151.151,0,0,1-.02-.024c-.012-.016-.024-.032-.045-.032a.032.032,0,0,0-.024.008.073.073,0,0,0-.009.05c0,.008,0,.017,0,.024h0c-.016,0-.025-.013-.035-.028a.068.068,0,0,0-.026-.027.077.077,0,0,0-.034-.006.052.052,0,0,1-.046-.02.105.105,0,0,1-.014-.024A.1.1,0,0,0,33.9,6.6a.077.077,0,0,0-.035-.022h0a.057.057,0,0,0-.029.036.1.1,0,0,1-.018.034h-.058v0h.055a.1.1,0,0,0,.017-.032.057.057,0,0,1,.03-.038h0a.068.068,0,0,1-.038-.026c-.015-.031.017-.066.036-.087a.554.554,0,0,0,.082-.126A.323.323,0,0,0,33.96,6.3a.16.16,0,0,1,.034-.064.039.039,0,0,1,0-.013.058.058,0,0,0,0-.01h.044a.036.036,0,0,0,0-.028.021.021,0,0,0-.016-.009l-.006-.016A.175.175,0,0,1,34,6.047c.013-.005.015-.02.017-.035a.073.073,0,0,1,.006-.027.037.037,0,0,1,.031-.019.039.039,0,0,0,.027-.013c.018-.021.012-.055.005-.088a.14.14,0,0,1,0-.066c.007-.02.025-.026.042-.031l.019-.007a.082.082,0,0,0,.05-.06c0-.006,0-.013,0-.02a.074.074,0,0,1,.021-.047.1.1,0,0,1,.049-.01l.026,0a.186.186,0,0,1,.038-.059.292.292,0,0,0,.031-.043c.012-.024.019-.033.038-.033l.028,0h.005a.007.007,0,0,0,.007,0c.006-.014-.023-.057-.025-.058l-.008-.01a.073.073,0,0,0-.052-.036l-.025,0c-.025,0-.036,0-.057-.039a.223.223,0,0,1-.013-.029c-.008-.021-.015-.039-.038-.046a.083.083,0,0,0-.022,0,.079.079,0,0,1-.025,0,.127.127,0,0,1-.029-.02.1.1,0,0,0-.034-.021.321.321,0,0,0-.1-.018H34c-.027,0-.061,0-.074-.019a.18.18,0,0,1-.019-.129c-.026,0-.037-.019-.048-.038l0,0a.025.025,0,0,1,0-.012.029.029,0,0,0-.007-.016.079.079,0,0,0-.039-.021h-.037a.077.077,0,0,1-.024,0,.187.187,0,0,1-.079-.1.136.136,0,0,1-.028-.012.082.082,0,0,0-.04-.013l-.014,0a.1.1,0,0,0-.033.017.094.094,0,0,1-.035.017.02.02,0,0,1,0,0,.013.013,0,0,0,0,0l-.017,0c-.035,0-.056-.032-.074-.06a.214.214,0,0,0-.026-.034.088.088,0,0,0-.028-.016.065.065,0,0,1-.038-.028.071.071,0,0,1-.008-.03.044.044,0,0,0-.014-.034c-.039-.007-.039-.035-.039-.067a.168.168,0,0,0,0-.051h-.009l-.017,0-.017,0h-.008a.01.01,0,0,0,.006-.01.18.18,0,0,0-.078-.092.069.069,0,0,0,0,.019.051.051,0,0,1,0,.031.018.018,0,0,1-.015.006h-.012a.017.017,0,0,0-.01,0,.034.034,0,0,0-.014.035.052.052,0,0,1-.006.032c-.005.008-.022.013-.046.013a.064.064,0,0,1-.031,0,.136.136,0,0,1-.013-.067c0-.009,0-.018,0-.025a.047.047,0,0,1-.013.007l-.013.006h0a.308.308,0,0,1-.021-.092.065.065,0,0,1,.018-.032.086.086,0,0,0,.015-.02.242.242,0,0,0,0-.1.28.28,0,0,0-.04-.112.321.321,0,0,1-.038-.1.114.114,0,0,1,0-.013.062.062,0,0,0-.005-.031A.02.02,0,0,0,32.876,4a.026.026,0,0,1-.017-.006c-.019-.016-.018-.037-.016-.06V3.921s0-.007,0-.011a.041.041,0,0,0-.029-.056c-.013-.006-.026-.011-.03-.026s0-.023.014-.031a.046.046,0,0,0,.014-.015.111.111,0,0,0,0-.056l0-.021v0H32.8c-.011,0-.012-.005-.023-.02l0-.005-.006-.009a.052.052,0,0,0-.012-.014.037.037,0,0,1,.02.018l.006.009c.015.019.015.019.043.019h.011A.1.1,0,0,0,32.8,3.65a.053.053,0,0,0-.014-.006c-.011,0-.023-.008-.025-.015a.017.017,0,0,1,0-.013.058.058,0,0,1,.039-.016c.011-.044.064-.054.106-.063l.032-.007a.049.049,0,0,1,.016-.027.085.085,0,0,0,.013-.018h.016a.346.346,0,0,1-.006.074.363.363,0,0,0-.006.074.234.234,0,0,1,.04.011c0,.009,0,.017,0,.025s0,.016,0,.025a.088.088,0,0,1,.063.04l.005.006a.045.045,0,0,1,.008.008.131.131,0,0,0,.044.032h0s0,0,0,0a.041.041,0,0,1,.024-.046l.014-.01a.007.007,0,0,1,.006,0H33.2l.006,0s0-.006,0-.01a.011.011,0,0,1,0-.008.052.052,0,0,0,.007-.012.041.041,0,0,1,.013-.016.5.5,0,0,1,.055-.008.115.115,0,0,1,.06-.093.043.043,0,0,0,.04.037h.007c.016,0,.02-.015.024-.028a.109.109,0,0,1,.008-.019.06.06,0,0,1,.043-.039.266.266,0,0,0,.029-.015.162.162,0,0,1,.03-.016.081.081,0,0,1-.016-.046.086.086,0,0,0-.014-.043.118.118,0,0,0-.017-.018.115.115,0,0,1-.017-.018.134.134,0,0,1-.012-.024.172.172,0,0,0-.011-.023.244.244,0,0,0-.025-.032.153.153,0,0,1-.038-.062.117.117,0,0,1,.027-.1l.006-.01a.057.057,0,0,0,.011-.055c-.014-.028-.07-.03-.114-.032l-.035,0a.19.19,0,0,1-.142-.136.263.263,0,0,1,0-.052.155.155,0,0,0-.009-.078.752.752,0,0,1,.1-.01c.008-.022,0-.028,0-.039L33.2,2.7a.665.665,0,0,1-.04-.115.75.75,0,0,0-.037-.109l0-.006,0,0,0,0a.157.157,0,0,1,.055-.038h.007a.042.042,0,0,1,.022.008.045.045,0,0,0,.017.007h.045a.211.211,0,0,1,.03.01.121.121,0,0,0,.046.011h.012a.544.544,0,0,1,.071-.006h.016a.185.185,0,0,0-.007-.023.148.148,0,0,1-.006-.019.022.022,0,0,1,.019-.021.057.057,0,0,0,.017-.007.1.1,0,0,0,.05-.087.071.071,0,0,0,0-.013.067.067,0,0,1,0-.03.083.083,0,0,1,.007-.022.056.056,0,0,0,.006-.034.17.17,0,0,0-.036-.069l.032-.006a.311.311,0,0,1,.069-.009h.038a.038.038,0,0,0,.026-.006c.008-.008.006-.024,0-.039a.1.1,0,0,1,0-.023c.007-.033.05-.06.078-.078a.128.128,0,0,1,.071-.016h.044c0-.009,0-.018,0-.027a.148.148,0,0,1,.022-.092l0,0a.238.238,0,0,0,.026-.045c0-.006,0-.013.005-.019a.051.051,0,0,1,.022-.039.36.36,0,0,0,0-.038c0-.049-.005-.11.042-.12a.154.154,0,0,0,.009-.089.169.169,0,0,1,0-.079A.058.058,0,0,1,34,1.374c.009-.012.016-.022,0-.048a.122.122,0,0,0-.015-.022.081.081,0,0,1-.019-.037l-.016-.009-.01-.006a.051.051,0,0,0-.021,0,.051.051,0,0,1-.021,0,.127.127,0,0,1-.043-.052l-.011-.018c-.026-.039-.045-.058-.081-.058a.186.186,0,0,0-.041.006.163.163,0,0,1-.041.006.224.224,0,0,1-.08-.019L33.568,1.1a.485.485,0,0,1-.051-.02.3.3,0,0,0-.1-.032h0A.048.048,0,0,0,33.377.99l-.013,0A.066.066,0,0,0,33.332,1a.062.062,0,0,1-.031.011h0a.132.132,0,0,0-.008.025c0,.018-.008.035-.027.044a.067.067,0,0,1-.028,0,.357.357,0,0,1-.052-.005l-.013,0-.037-.006a.64.64,0,0,0-.1-.012.177.177,0,0,0-.049.006.137.137,0,0,0-.041.022.148.148,0,0,1-.046.024l-.01,0a.251.251,0,0,0-.083.034l-.008.005a.118.118,0,0,1-.038.02h-.006l-.014,0h-.014l-.011,0a.044.044,0,0,0-.019.017.053.053,0,0,1-.015.015.062.062,0,0,1-.025.007l-.02,0a.046.046,0,0,1,0,.014.039.039,0,0,0,0,.017h-.01l-.041,0h0l-.043,0-.028,0a.038.038,0,0,0-.034.029.093.093,0,0,1-.015.027.037.037,0,0,1-.027.017.053.053,0,0,1-.022-.008L32.392,1.3a.068.068,0,0,0-.025-.007.042.042,0,0,0-.018.005l-.022.008a.117.117,0,0,1-.035,0h-.117a.147.147,0,0,0-.034.007.167.167,0,0,1-.038.008H32.1c-.011,0-.017-.01-.016-.017,0-.028.09-.068.108-.072a.048.048,0,0,0-.013-.047s-.007,0-.012,0a.018.018,0,0,1-.013,0,.027.027,0,0,1-.006-.013.034.034,0,0,0-.005-.012.087.087,0,0,0-.068-.024l-.03,0a.147.147,0,0,1-.045-.016.059.059,0,0,1-.015-.022.05.05,0,0,0-.013-.02.081.081,0,0,0-.049-.011h-.069a.1.1,0,0,1-.1-.038A.126.126,0,0,1,31.72.93a.362.362,0,0,0,0-.045A.168.168,0,0,0,31.674.8.073.073,0,0,0,31.617.78a.181.181,0,0,1-.03,0A.1.1,0,0,1,31.51.708.279.279,0,0,0,31.5.679a.055.055,0,0,0-.053-.027H31.4A.073.073,0,0,1,31.36.647.094.094,0,0,1,31.33.613a.153.153,0,0,0-.015-.02.093.093,0,0,0-.029-.019.1.1,0,0,1-.027-.017A.372.372,0,0,1,31.21.47.391.391,0,0,1,31.2.433a.211.211,0,0,0-.026-.057.361.361,0,0,0-.028-.034A11.083,11.083,0,0,1,39.626,1.6,11.348,11.348,0,0,1,43.66,5.8l-.019-.014a.222.222,0,0,0-.121-.057h0v.008c0,.035,0,.054-.038.069a.179.179,0,0,1-.045.011.172.172,0,0,0-.048.013.125.125,0,0,0-.049.044.228.228,0,0,1-.027.031l-.007.006a.126.126,0,0,0-.046.06c0,.017-.019.073-.032.073h-.042c-.012,0-.018,0-.021,0s0,.017.007.027.013.017.01.026-.069.046-.086.049c0,.028-.028.046-.05.058l-.01.006a.147.147,0,0,0-.036.03l-.006.008a.094.094,0,0,1-.038.034.061.061,0,0,1-.022,0h-.047a.1.1,0,0,0-.03.011l-.012.006-.047.02-.047.02a.1.1,0,0,1-.042.007h-.017a.1.1,0,0,0-.032,0c-.023.008-.021.033-.019.057,0,.007,0,.014,0,.02a.162.162,0,0,1-.018.088.2.2,0,0,0-.009.019.08.08,0,0,1-.012.022.045.045,0,0,1-.014.012.06.06,0,0,0-.012.01.084.084,0,0,0-.01.015.063.063,0,0,1-.015.02.074.074,0,0,1-.019.011.061.061,0,0,0-.022.013.085.085,0,0,0-.01.016.07.07,0,0,1-.019.024l-.022.014-.012.007a.155.155,0,0,1-.032.014.1.1,0,0,0-.05.029.045.045,0,0,0-.005.018.039.039,0,0,1-.009.024.067.067,0,0,1-.015.013c-.011.008-.021.016-.016.034l.015.007a.072.072,0,0,1,.032.021.037.037,0,0,1,.007.03c-.006.023-.037.039-.067.055s-.069.037-.065.064a.049.049,0,0,1-.03.008h-.034a.058.058,0,0,0-.032.008.139.139,0,0,0-.019.013c-.007.005-.011.009-.016.009s-.011-.008-.018-.029a.092.092,0,0,0-.027,0l-.015,0,.007,0v.034h-.02a.126.126,0,0,0-.062.014l-.013.006a.059.059,0,0,0-.026.018.087.087,0,0,0-.01.018.046.046,0,0,1-.015.021.027.027,0,0,1-.018.006.075.075,0,0,1-.022,0,.424.424,0,0,0-.1-.017h-.108s0,.011,0,.016c0,.028,0,.067-.032.072a.088.088,0,0,0,.014.026.105.105,0,0,1,.013.024.128.128,0,0,1,0,.023.082.082,0,0,0,.008.03.075.075,0,0,0,.04.024l.016.007a.05.05,0,0,1,.032.034c0,.005,0,.011.008.018a.047.047,0,0,1,.051-.027h.02a.091.091,0,0,0,.051-.019l.015-.01a.041.041,0,0,1,.019-.007c.01,0,.014.008.02.019l.01.016c.008.011.019.023.028.035L42,7.412l0,0c.01.01.022.024.016.037a.023.023,0,0,1-.013.008.027.027,0,0,0-.015.01.032.032,0,0,0,0,.016.033.033,0,0,1,0,.019.027.027,0,0,1-.016.012.033.033,0,0,0-.016.011.132.132,0,0,0-.007.066c.007.023.054.048.076.053a.147.147,0,0,0,.011.046.1.1,0,0,1,.008.066.011.011,0,0,1,0,0,.015.015,0,0,0,0,.005c-.01.031-.045.035-.074.035H41.95a.029.029,0,0,0,0-.006.06.06,0,0,1,0-.006.115.115,0,0,0-.031-.006l-.01,0c-.011.006-.01.008-.008.013a.024.024,0,0,1,0,.011s0,.008,0,.012a.043.043,0,0,1-.021.047.135.135,0,0,1,0-.018c0-.016,0-.028-.019-.034l-.014,0c-.014,0-.019.009-.025.019a.072.072,0,0,1-.009.014.047.047,0,0,1-.035.012l-.024,0-.024,0h-.014a.1.1,0,0,0-.031.014.08.08,0,0,1-.041.015h-.011c0-.014,0-.029,0-.045l-.019,0-.017,0h0l-.03.011c-.022.009-.035.019-.032.045a.2.2,0,0,1-.08.014.264.264,0,0,1-.042,0l-.024,0a.123.123,0,0,0-.029,0l-.018,0a.182.182,0,0,0-.026.012.06.06,0,0,1-.033.01H41.27c-.033,0-.066-.008-.1-.01h-.065a.124.124,0,0,1-.048-.008.49.49,0,0,1-.083-.049l0,0A.156.156,0,0,0,40.9,7.82H40.88c-.022,0-.046,0-.069,0l-.025,0v0c0,.039,0,.062-.043.076l-.033.01a.6.6,0,0,0-.059.019.289.289,0,0,1-.048.012.27.27,0,0,0-.035.008.246.246,0,0,0-.047.018l0,.005v0l-.006,0A.217.217,0,0,1,40.467,8,.487.487,0,0,1,40.383,8h-.051a.231.231,0,0,0-.093.023c-.005-.018.007-.032.018-.044l.009-.011-.027,0a.163.163,0,0,1-.041-.007.1.1,0,0,1-.028-.022.082.082,0,0,0-.033-.024.083.083,0,0,0-.023,0,.1.1,0,0,0-.054.02h0a.1.1,0,0,1-.056.02h0a.066.066,0,0,1-.065-.032.088.088,0,0,1-.01-.021c0-.012-.006-.018-.036-.022h-.047s0,0,0,0l0,0,0,0h0l0,0,0,0-.013-.011a.144.144,0,0,1-.031-.031.077.077,0,0,1-.01-.03.062.062,0,0,0-.011-.031l-.018-.02c-.01-.01-.01-.01-.008-.029s0-.011,0-.019V7.676l0,0s0-.009,0-.013a.05.05,0,0,1,.007-.036.04.04,0,0,1,.03-.009.185.185,0,0,1,.006-.022.126.126,0,0,0,.009-.044.033.033,0,0,0-.022-.032L39.75,7.51a.147.147,0,0,1-.044-.116H39.7a.084.084,0,0,1,0-.027h.019a.079.079,0,0,1,.019-.053.149.149,0,0,0,.011-.017.254.254,0,0,0,.018-.076c-.01,0-.017,0-.019-.008s0-.028.01-.038l0,0a.1.1,0,0,0,.011-.062h-.009a.027.027,0,0,1-.021-.006c-.005-.006,0-.016,0-.027a.12.12,0,0,0,0-.023c0-.031,0-.058-.035-.07a.18.18,0,0,0-.046-.014.039.039,0,0,0-.015,0,.034.034,0,0,1-.014,0h-.006c-.015,0-.013-.009-.012-.016a.018.018,0,0,0,0-.019.023.023,0,0,0-.016,0h-.022a.055.055,0,0,1,0,.016.09.09,0,0,0,0,.011h-.031c0,.007,0,.014,0,.022s0,.015,0,.023h0A.034.034,0,0,1,39.51,7a.042.042,0,0,0-.023-.013.1.1,0,0,1-.015.028l-.008.012s-.01.024-.01.025a.022.022,0,0,1-.011,0c-.006,0-.007-.008-.007-.016s0-.013-.005-.015h-.014c-.018,0-.021.009-.025.019a.029.029,0,0,1-.02.023h-.005l-.022,0h0a.131.131,0,0,0-.025,0c-.005,0-.008,0-.01,0a.009.009,0,0,0,0,.008h-.051a.071.071,0,0,0,.021.047.084.084,0,0,1,.016.025.239.239,0,0,1-.014.083l-.009.02a.237.237,0,0,0-.011.025l0,.006a.094.094,0,0,1-.012.026.087.087,0,0,0-.008.023.123.123,0,0,1-.005.016.075.075,0,0,1-.022.027.048.048,0,0,0-.022.038.137.137,0,0,0,.007.036.1.1,0,0,1,.006.047.084.084,0,0,1-.007.021.056.056,0,0,0-.006.038c0,.008,0,.016.005.022.007.03.011.047-.026.066h0l0,0,.02,0,.005,0a.185.185,0,0,1,0,.057c0,.031,0,.064.007.074a.024.024,0,0,0,.017.006h.017a.022.022,0,0,1,.019.008.033.033,0,0,1,.005.023.024.024,0,0,0,0,.016.013.013,0,0,0,.01,0h.008v.025s0,.008,0,.011a.137.137,0,0,0,0,.024.048.048,0,0,0,0,.014.079.079,0,0,0,.025.047l0,0,0,0,.006.009,0,.007c.013.019.035.052.029.07a.05.05,0,0,1-.014.012.068.068,0,0,0-.022.021.079.079,0,0,0-.007.025.3.3,0,0,0,0,.035c0,.049,0,.065-.046.065h-.018a.071.071,0,0,0,0-.01.042.042,0,0,1,0-.013.076.076,0,0,0-.018.052.2.2,0,0,1,0,.023.352.352,0,0,1-.025.077h0c-.013,0-.03-.02-.049-.041a.181.181,0,0,0-.053-.047.027.027,0,0,1,0,.015.031.031,0,0,0,0,.012c-.01,0-.066.014-.1.022l-.027.006a.078.078,0,0,0-.027.011l-.016.008a.059.059,0,0,1-.019,0,.147.147,0,0,1-.047-.011.142.142,0,0,0-.045-.011l-.013,0c-.022.005-.027.022-.031.039s-.006.027-.02.033h-.006A.049.049,0,0,1,38.711,8.366Z" fill="#015fc9"/>
</svg>
