<svg xmlns="http://www.w3.org/2000/svg" width="152.167" height="108.892" viewBox="0 0 152.167 108.892">
  <g id="_àð_1" data-name="˜àð_1" transform="translate(0 8.35)">
    <g id="Group_442" data-name="Group 442" transform="translate(0 -8.35)">
      <path id="Path_691" data-name="Path 691" d="M36.153,257.577c-3.351-11.286-9.467-34.155-3.558-37.14a3.438,3.438,0,0,1,2.3-.209c8.191,1.812,8.369,30.075,8.369,35.152l-7.115,2.2Z" transform="translate(-22.874 -165.128)" fill="#fff"/>
      <path id="Path_692" data-name="Path 692" d="M35.655,257.215c-4.6-15.491-8.94-34.535-3.495-37.284a3.524,3.524,0,0,1,2.383-.219c3.512.777,5.986,6.314,7.351,16.457a150.155,150.155,0,0,1,1.114,18.815h-.246c0-7.789-.595-33.332-8.273-35.031a3.289,3.289,0,0,0-2.219.2c-2.515,1.271-3.062,6.427-1.627,15.328a179.894,179.894,0,0,0,5.247,21.668l-.236.07Z" transform="translate(-22.494 -164.732)" fill="#292929"/>
      <path id="Path_693" data-name="Path 693" d="M104.48,289.212c1.232-10.3,3.981-28.357,8.788-28.665a2.258,2.258,0,0,1,1.256.313c4.4,2.64-1.731,20.8-4.463,28.352Z" transform="translate(-79.332 -195.821)" fill="#fff"/>
      <path id="Path_694" data-name="Path 694" d="M109.8,288.857l-.231-.084a140.713,140.713,0,0,0,4.9-16c1.591-6.987,1.461-11.094-.388-12.2a2.117,2.117,0,0,0-1.184-.3c-2.044.132-3.935,3.661-5.623,10.492a155.056,155.056,0,0,0-3.05,18.064l-.243-.029a154.944,154.944,0,0,1,3.057-18.1c1.716-6.947,3.683-10.54,5.847-10.68a2.358,2.358,0,0,1,1.326.332c1.95,1.17,2.118,5.365.5,12.468a140.463,140.463,0,0,1-4.91,16.03Z" transform="translate(-78.952 -195.426)" fill="#292929"/>
      <path id="Path_695" data-name="Path 695" d="M60.174,240.736c-1.439-11.221-4.71-41.169,3.093-43.836a3.775,3.775,0,0,1,2.407,0c7.235,2.616,3.6,30.41,1.473,43.836H60.176Z" transform="translate(-44.232 -147.346)" fill="#fff"/>
      <path id="Path_696" data-name="Path 696" d="M66.874,240.355l-.243-.039A213.7,213.7,0,0,0,69.4,214.359c.323-10.658-1.078-16.63-4.164-17.744a3.669,3.669,0,0,0-2.325,0c-1.767.6-3.079,2.725-3.9,6.306a56.9,56.9,0,0,0-1.033,12.285,207.184,207.184,0,0,0,1.918,25.11l-.243.031a207.25,207.25,0,0,1-1.921-25.141c-.026-11.327,1.687-17.662,5.1-18.825a3.847,3.847,0,0,1,2.489,0c3.2,1.155,4.653,7.206,4.328,17.983a213.754,213.754,0,0,1-2.775,25.988Z" transform="translate(-43.841 -146.945)" fill="#292929"/>
      <path id="Path_697" data-name="Path 697" d="M112.785,321.1a.1.1,0,0,1-.031,0,.124.124,0,0,1-.087-.152l5.546-20.4a.124.124,0,1,1,.238.065l-5.546,20.4a.123.123,0,0,1-.118.091Z" transform="translate(-85.546 -226.125)" fill="#292929"/>
      <path id="Path_698" data-name="Path 698" d="M78.83,266.323h0a.122.122,0,0,1-.12-.125L79.2,228.43a.123.123,0,0,1,.125-.12.122.122,0,0,1,.12.125L78.955,266.2a.121.121,0,0,1-.123.12Z" transform="translate(-59.764 -171.347)" fill="#292929"/>
      <path id="Path_699" data-name="Path 699" d="M70.431,373.512l-2.462,15.905H47.962L45.5,373.512a1.088,1.088,0,0,1,1.074-1.252H69.358a1.088,1.088,0,0,1,1.074,1.252Z" transform="translate(-34.538 -280.648)" fill="#c0c5da"/>
      <g id="Group_441" data-name="Group 441" transform="translate(27.483 4.248)">
        <rect id="Rectangle_883" data-name="Rectangle 883" width="57.828" height="104.395" rx="5" transform="translate(0.123 0.125)" fill="#fff"/>
        <path id="Path_700" data-name="Path 700" d="M167.389,113.943H119.047a4.872,4.872,0,0,1-4.867-4.867V14.167A4.872,4.872,0,0,1,119.047,9.3h48.342a4.872,4.872,0,0,1,4.867,4.867v94.91A4.872,4.872,0,0,1,167.389,113.943ZM119.047,9.548a4.625,4.625,0,0,0-4.619,4.619v94.91a4.625,4.625,0,0,0,4.619,4.619h48.342a4.625,4.625,0,0,0,4.619-4.619V14.167a4.625,4.625,0,0,0-4.619-4.619Z" transform="translate(-114.18 -9.3)" fill="#292929"/>
      </g>
      <path id="Path_701" data-name="Path 701" d="M175.516,120.327H130.707a3.5,3.5,0,0,1-3.5-3.5V25.107a3.5,3.5,0,0,1,3.5-3.5h44.808a3.5,3.5,0,0,1,3.5,3.5V116.83a3.5,3.5,0,0,1-3.5,3.5ZM130.707,21.858a3.255,3.255,0,0,0-3.252,3.252v91.723a3.255,3.255,0,0,0,3.252,3.252h44.808a3.255,3.255,0,0,0,3.252-3.252V25.107a3.255,3.255,0,0,0-3.252-3.252H130.707Z" transform="translate(-96.591 -14.399)" fill="#292929"/>
      <rect id="Rectangle_884" data-name="Rectangle 884" width="12.976" height="0.246" transform="translate(49.357 10.735)" fill="#292929"/>
      <rect id="Rectangle_885" data-name="Rectangle 885" width="18.437" height="23.896" transform="translate(79.31 66.351) rotate(12.67)" fill="#fff"/>
      <path id="Path_702" data-name="Path 702" d="M325.368,294.331l-.12-.026-18.108-4.07,5.293-23.555.12.026,18.108,4.07-.026.12Zm-17.934-4.282,17.749,3.988,5.187-23.076-17.749-3.988Z" transform="translate(-233.212 -200.481)" fill="#292929"/>
      <rect id="Rectangle_886" data-name="Rectangle 886" width="1.504" height="9.021" transform="translate(80.888 77.633) rotate(12.67)" fill="#0a58c9"/>
      <rect id="Rectangle_887" data-name="Rectangle 887" width="1.504" height="14.322" transform="translate(84.946 73.111) rotate(12.67)" fill="#0a58c9"/>
      <rect id="Rectangle_888" data-name="Rectangle 888" width="1.504" height="7.279" transform="translate(86.297 80.634) rotate(12.67)" fill="#0a58c9"/>
      <rect id="Rectangle_889" data-name="Rectangle 889" width="1.504" height="15.47" transform="translate(90.987 73.295) rotate(12.67)" fill="#0a58c9"/>
      <path id="Path_703" data-name="Path 703" d="M278.086,326.027h-18.4a6.447,6.447,0,0,0-6.2-4.677H242.9a.962.962,0,0,0-.96.96v28.361h37.9V327.779A1.752,1.752,0,0,0,278.086,326.027Z" transform="translate(-183.706 -241.992)" fill="#fff"/>
      <path id="Path_704" data-name="Path 704" d="M279.451,350.417h-37.9a.123.123,0,0,1-.123-.123V321.933a1.085,1.085,0,0,1,1.083-1.083H253.1a6.594,6.594,0,0,1,6.292,4.677H277.7a1.876,1.876,0,0,1,1.875,1.875v22.893A.123.123,0,0,1,279.451,350.417Zm-37.775-.246h37.652V327.4a1.632,1.632,0,0,0-1.63-1.63H259.3a.121.121,0,0,1-.118-.089A6.35,6.35,0,0,0,253.1,321.1H242.513a.838.838,0,0,0-.838.838v28.239Z" transform="translate(-183.318 -241.612)" fill="#292929"/>
      <path id="Path_705" data-name="Path 705" d="M279.451,350.417h-37.9a.123.123,0,0,1-.123-.123V321.933a1.085,1.085,0,0,1,1.083-1.083H253.1a6.594,6.594,0,0,1,6.292,4.677H277.7a1.876,1.876,0,0,1,1.875,1.875v22.893A.123.123,0,0,1,279.451,350.417Zm-37.775-.246h37.652V327.4a1.632,1.632,0,0,0-1.63-1.63H259.292l-2.149-.007a.123.123,0,0,1,0-.246h0l1.988.007A6.351,6.351,0,0,0,253.1,321.1H242.513a.838.838,0,0,0-.838.838v28.239Z" transform="translate(-183.318 -241.612)" fill="#292929"/>
      <path id="Path_706" data-name="Path 706" d="M301.448,70.053a42.773,42.773,0,0,0-6.152-5.009c-2.051-1.374-5.531-3.449-5.89-2.989-.156.2.246.958,2.636,3.341l-1.495,3.692,6.679,6.768,4.219-5.8Z" transform="translate(-219.724 -45.059)" fill="#fff"/>
      <path id="Path_707" data-name="Path 707" d="M296.85,75.585a.114.114,0,0,1-.087-.036l-6.679-6.768a.123.123,0,0,1-.026-.132l1.463-3.615c-2.6-2.6-2.785-3.192-2.59-3.444.152-.195.561-.255,2.465.773,1.047.566,2.39,1.384,3.589,2.188a43.032,43.032,0,0,1,6.169,5.023.124.124,0,0,1,.014.159l-4.219,5.8a.122.122,0,0,1-.089.051h-.01Zm-6.537-6.92,6.521,6.607,4.07-5.6a42.908,42.908,0,0,0-6.058-4.922c-1.194-.8-2.527-1.615-3.57-2.176-1.954-1.057-2.152-.84-2.154-.838-.024.034-.166.4,2.626,3.177a.118.118,0,0,1,.026.132l-1.463,3.618Z" transform="translate(-219.342 -44.667)" fill="#292929"/>
      <path id="Path_708" data-name="Path 708" d="M298.331,74.858c.874.1,1.439,2.568,1.064,2.768s-2.106-1.605-1.7-2.414a.667.667,0,0,1,.638-.354Z" transform="translate(-225.992 -54.827)" fill="#fff"/>
      <path id="Path_709" data-name="Path 709" d="M298.938,77.381c-.258,0-.609-.3-.816-.5-.462-.448-1.252-1.463-.934-2.106a.8.8,0,0,1,.763-.421h0c.7.082,1.112,1.309,1.232,1.947.063.335.132.915-.123,1.052a.271.271,0,0,1-.123.029ZM297.879,74.6a.558.558,0,0,0-.469.291c-.185.373.2,1.071.667,1.6.433.489.789.684.869.655a1.774,1.774,0,0,0-.077-1.11c-.183-.676-.546-1.382-.946-1.43h0l-.046,0Z" transform="translate(-225.6 -54.445)" fill="#292929"/>
      <path id="Path_710" data-name="Path 710" d="M294.734,79.191c.823.1,1.355,2.419,1,2.607s-1.983-1.512-1.605-2.272A.637.637,0,0,1,294.734,79.191Z" transform="translate(-223.293 -58.118)" fill="#fff"/>
      <path id="Path_711" data-name="Path 711" d="M295.284,81.534a1.5,1.5,0,0,1-.773-.472c-.436-.424-1.182-1.384-.881-1.993a.752.752,0,0,1,.727-.4h0c.662.079,1.052,1.237,1.167,1.839.06.315.125.867-.12,1A.254.254,0,0,1,295.284,81.534Zm-1-2.624a.517.517,0,0,0-.436.27c-.142.284.075.835.549,1.4.426.51.806.732.891.708a1.929,1.929,0,0,0-.111-1.158c-.212-.705-.546-1.182-.85-1.218Z" transform="translate(-222.902 -57.719)" fill="#292929"/>
      <path id="Path_712" data-name="Path 712" d="M293.025,84.72c.763.091,1.256,2.243.931,2.419s-1.839-1.4-1.49-2.109A.587.587,0,0,1,293.025,84.72Z" transform="translate(-222.031 -62.316)" fill="#fff"/>
      <path id="Path_713" data-name="Path 713" d="M293.5,86.884a1.349,1.349,0,0,1-.722-.44c-.407-.395-1.1-1.29-.818-1.858a.706.706,0,0,1,.684-.378h0c.619.072.984,1.153,1.09,1.714.067.361.1.818-.116.936a.245.245,0,0,1-.118.029Zm-.924-2.436a.467.467,0,0,0-.395.246c-.12.246.046.705.433,1.2a1.956,1.956,0,0,0,.886.746,2.065,2.065,0,0,0-.142-1.179c-.2-.592-.484-.98-.744-1.011h-.038Z" transform="translate(-221.639 -61.926)" fill="#292929"/>
      <path id="Path_714" data-name="Path 714" d="M297.871,80.408q-5.268-2.058-5.1-2.725.152-.589,4.571-.089l.527,2.811Z" transform="translate(-222.299 -56.733)" fill="#fff"/>
      <path id="Path_715" data-name="Path 715" d="M297.478,80.136a.112.112,0,0,1-.046-.01c-4.732-1.849-5.269-2.489-5.173-2.869.087-.344.715-.633,4.7-.181a.122.122,0,0,1,.108.135.123.123,0,0,1-.135.108c-4-.455-4.41-.118-4.438,0-.034.132.229.708,5.023,2.58a.122.122,0,0,1-.046.236Z" transform="translate(-221.906 -56.338)" fill="#292929"/>
      <path id="Path_716" data-name="Path 716" d="M404.081,49.411l.958,1.256c3.6,11.248,11.691,17.576,18.44,16.579,3.182-.469,6.968-2.7,7.936-6.058,2.219-7.712-12.314-14.875-22.676-25.4a6.26,6.26,0,0,0-4.219-2.2,5.734,5.734,0,0,0-4.4,2.46c-2,2.9-.517,8.371,3.955,13.359Z" transform="translate(-303.152 -23.495)" fill="#292929"/>
      <path id="Path_717" data-name="Path 717" d="M422.767,63.654a18.524,18.524,0,0,1-4.658-6.5l-2.989,3.341q.924,2.415,1.846,4.833,1.845.968,3.692,1.933Z" transform="translate(-315.202 -41.384)" fill="#fff"/>
      <path id="Path_718" data-name="Path 718" d="M420.258,66.994a.128.128,0,0,1-.058-.014l-3.692-1.933a.118.118,0,0,1-.058-.065L414.6,60.149a.119.119,0,0,1,.024-.125l2.987-3.341a.121.121,0,0,1,.111-.039.126.126,0,0,1,.094.072,18.463,18.463,0,0,0,4.629,6.463.124.124,0,0,1,.024.154l-2.109,3.6a.123.123,0,0,1-.106.06Zm-3.591-2.145,3.546,1.858,2-3.415a18.676,18.676,0,0,1-4.537-6.3l-2.811,3.141,1.8,4.72Z" transform="translate(-314.804 -40.999)" fill="#292929"/>
      <path id="Path_719" data-name="Path 719" d="M408.411,46.884a3.46,3.46,0,0,0-2.886-2.164c-1.851,0-3.177,2.27-3.081,4.152.1,1.834,1.579,4,3.49,3.815a3.625,3.625,0,0,0,2.927-3.5,1.23,1.23,0,1,0-.452-2.3Z" transform="translate(-305.573 -31.946)" fill="#fff"/>
      <path id="Path_720" data-name="Path 720" d="M405.332,52.435A2.8,2.8,0,0,1,403.5,51.7a4.566,4.566,0,0,1-.318-6.564,2.706,2.706,0,0,1,1.969-.924h0a3.556,3.556,0,0,1,2.951,2.14,1.64,1.64,0,0,1,1.271.2,1.256,1.256,0,0,1,.6.842,1.235,1.235,0,0,1-.294.927,1.657,1.657,0,0,1-1.071.59,3.71,3.71,0,0,1-3.028,3.514c-.079.007-.156.012-.233.012Zm-.188-7.977a2.473,2.473,0,0,0-1.791.847,4.321,4.321,0,0,0,.3,6.21,2.511,2.511,0,0,0,1.887.667,3.531,3.531,0,0,0,2.816-3.389.124.124,0,0,1,.113-.113,1.416,1.416,0,0,0,1-.51.983.983,0,0,0,.243-.737,1.007,1.007,0,0,0-.484-.669,1.4,1.4,0,0,0-1.167-.144.124.124,0,0,1-.147-.065,3.345,3.345,0,0,0-2.775-2.094h0Z" transform="translate(-305.192 -31.559)" fill="#292929"/>
      <path id="Path_721" data-name="Path 721" d="M426.583,57.846a.122.122,0,0,1-.113-.077.121.121,0,0,1,.067-.159l1.259-.51a.122.122,0,0,1,.091.226l-1.259.51A.1.1,0,0,1,426.583,57.846Z" transform="translate(-323.813 -41.339)" fill="#292929"/>
      <path id="Path_722" data-name="Path 722" d="M409.2,40.95a3.129,3.129,0,0,0,.395,2.491c.876,1.167,2.888,1.495,4.66.433l-1.061-2.563L409.2,40.95Z" transform="translate(-310.627 -29.084)" fill="#292929"/>
      <path id="Path_723" data-name="Path 723" d="M452.775,418.362a7.65,7.65,0,0,1,.595,3.846.09.09,0,0,1,0,.026,2.473,2.473,0,0,1-2.465,2.186H436.754a1.237,1.237,0,0,1-1.035-1.914,10.346,10.346,0,0,1,4.294-3.728l12.764-.419Z" transform="translate(-330.688 -315.652)" fill="#fff"/>
      <path id="Path_724" data-name="Path 724" d="M450.514,424.156H436.366a1.359,1.359,0,0,1-1.138-2.1,10.627,10.627,0,0,1,1.232-1.55,10.447,10.447,0,0,1,3.112-2.224.111.111,0,0,1,.048-.012l12.764-.419a.125.125,0,0,1,.118.075,7.777,7.777,0,0,1,.6,3.907v.026a2.6,2.6,0,0,1-2.59,2.3Zm-10.863-5.642a10.13,10.13,0,0,0-3.016,2.161,10.289,10.289,0,0,0-1.2,1.514,1.115,1.115,0,0,0,.934,1.723h14.148a2.345,2.345,0,0,0,2.342-2.077v-.026a7.518,7.518,0,0,0-.551-3.707l-12.654.414Z" transform="translate(-330.3 -315.264)" fill="#292929"/>
      <path id="Path_725" data-name="Path 725" d="M546.13,380.868l-1.909,5.189a.5.5,0,0,0,.474.679h3.9a5.089,5.089,0,0,0,3.625-1.521,22.229,22.229,0,0,0,1.95-2.26,23.106,23.106,0,0,0,3.707-7.418A6.021,6.021,0,0,0,555.691,369l-.031-.022-9.532,11.886Z" transform="translate(-413.205 -278.158)" fill="#fff"/>
      <path id="Path_726" data-name="Path 726" d="M548.206,386.488h-3.9a.626.626,0,0,1-.59-.842l1.909-5.189a.15.15,0,0,1,.019-.034l9.532-11.886a.124.124,0,0,1,.168-.022l.031.022a6.167,6.167,0,0,1,2.226,6.667,23.207,23.207,0,0,1-3.728,7.457,22.811,22.811,0,0,1-1.962,2.272,5.245,5.245,0,0,1-3.712,1.557Zm-2.354-5.931-1.9,5.17a.382.382,0,0,0,.359.513h3.9a5,5,0,0,0,3.536-1.483,22.614,22.614,0,0,0,5.627-9.625,5.914,5.914,0,0,0-2.075-6.352l-9.445,11.777Z" transform="translate(-412.819 -277.787)" fill="#292929"/>
      <path id="Path_727" data-name="Path 727" d="M420.78,176.765l6.328,58.273q7.3-.57,14.591-1.143-2.372-20.3-4.747-40.606-3.3-9.008-6.593-18.019l-9.58,1.495Z" transform="translate(-319.499 -131.073)" fill="#0a58c9"/>
      <path id="Path_728" data-name="Path 728" d="M440.521,181.176a89.967,89.967,0,0,0,25.225,48.515,24.266,24.266,0,0,0,10.194-13.1c-7.856-6.145-11.267-12.264-12.921-16.786-2.238-6.123-1.569-10.16-4.482-18.105a54.671,54.671,0,0,0-7.031-13.183l-12.656,2.2Z" transform="translate(-333.22 -125.948)" fill="#0a58c9"/>
      <path id="Path_729" data-name="Path 729" d="M349.1,83.433a4.246,4.246,0,0,1-6.682.44,32.45,32.45,0,0,0-10.9,6.5l-9.4-5.8-4.13,6.417a18.455,18.455,0,0,0,20.741,8.35l1.495,10.283a41.151,41.151,0,0,0,8.085.265,42.559,42.559,0,0,0,18.457-5.712c-.084-.883-1.719-15.98-12.129-19.862a14.459,14.459,0,0,0-5.536-.879Z" transform="translate(-241.451 -61.34)" fill="#fff"/>
      <path id="Path_730" data-name="Path 730" d="M345.206,109.69a41.462,41.462,0,0,1-5.4-.354.123.123,0,0,1-.106-.1l-1.475-10.145a18.579,18.579,0,0,1-20.748-8.441.126.126,0,0,1,0-.13L321.6,84.1a.126.126,0,0,1,.169-.039l9.327,5.753a32.581,32.581,0,0,1,10.872-6.468.124.124,0,0,1,.132.034,4.333,4.333,0,0,0,3.413,1.365,4.275,4.275,0,0,0,3.074-1.793.121.121,0,0,1,.1-.053,14.686,14.686,0,0,1,5.584.886c10.574,3.943,12.146,19.314,12.208,19.966a.123.123,0,0,1-.06.118,42.321,42.321,0,0,1-18.51,5.729c-.9.06-1.8.089-2.708.089Zm-5.279-.585a41.085,41.085,0,0,0,7.97.25,42.089,42.089,0,0,0,18.336-5.656c-.14-1.343-1.88-15.891-12.042-19.682a14.418,14.418,0,0,0-5.43-.874,4.363,4.363,0,0,1-6.778.46A32.325,32.325,0,0,0,331.2,90.056a.127.127,0,0,1-.147.014l-9.3-5.738-4.024,6.251a18.325,18.325,0,0,0,20.565,8.229.12.12,0,0,1,.1.017.135.135,0,0,1,.055.084l1.48,10.191Z" transform="translate(-241.044 -60.929)" fill="#292929"/>
      <path id="Path_731" data-name="Path 731" d="M384.358,101.51h8.008a.687.687,0,0,1,.619.388l5.245,10.752a.688.688,0,0,1-.619.989H386.75a.687.687,0,0,1-.619-.388L380.887,102.5a.688.688,0,0,1,.619-.989h2.855Z" transform="translate(-289.154 -75.067)" fill="#292929"/>
      <circle id="Ellipse_148" data-name="Ellipse 148" cx="0.703" cy="0.703" r="0.703" transform="translate(97.326 28.289)" fill="#625ef3"/>
      <path id="Path_732" data-name="Path 732" d="M426.887,117.565a20.61,20.61,0,0,0-5.387-2.912c-2.306-.828-5.129-1.367-5.274-.968-.065.181.4.626,2.636,1.757q-2.932-1.794-3.165-1.495-.264.339,2.9,3.341-2.982-2.639-3.165-2.46t2.811,3.6l5.844,4.747,2.794-5.613Z" transform="translate(-315.43 -84.21)" fill="#fff"/>
      <path id="Path_733" data-name="Path 733" d="M423.7,122.913a.124.124,0,0,1-.077-.026l-5.844-4.747-.014-.014c-3.083-3.5-2.936-3.644-2.807-3.772.079-.079.166-.166,1.061.53-.075-.084-.147-.161-.212-.238-.657-.756-.715-1.011-.6-1.16.065-.082.176-.14.522-.031a.238.238,0,0,1-.014-.2.261.261,0,0,1,.144-.147c.582-.274,3.319.332,5.286,1.04a20.744,20.744,0,0,1,5.421,2.929.123.123,0,0,1,.036.154l-2.794,5.613a.121.121,0,0,1-.084.065l-.026,0Zm-5.76-4.958,5.717,4.643,2.681-5.384a20.4,20.4,0,0,0-5.274-2.833c-2.421-.869-4.876-1.259-5.115-1.04.007.036.065.14.4.375.484.233,1.177.621,2.183,1.237a.123.123,0,0,1-.12.214,18.771,18.771,0,0,1-2.2-1.242c-.563-.272-.749-.294-.809-.282,0,.125.272.693,2.884,3.172a.124.124,0,0,1,0,.173.122.122,0,0,1-.171.01,24.875,24.875,0,0,0-2.915-2.385,28.756,28.756,0,0,0,2.729,3.346Z" transform="translate(-315.039 -83.822)" fill="#292929"/>
      <path id="Path_734" data-name="Path 734" d="M461.625,106.44c.968,1.35,8.547,12.117,5.89,17.492a4.1,4.1,0,0,1-1.495,1.757c-2.958,1.834-7.854-1.345-9.845-2.636a23.72,23.72,0,0,1-5.736-5.274l2.924-5.8q3.78,1.625,7.558,3.252l.7-8.79Z" transform="translate(-342.02 -78.81)" fill="#fff"/>
      <path id="Path_735" data-name="Path 735" d="M463.509,125.983c-2.821,0-6.15-2.161-7.775-3.218a23.937,23.937,0,0,1-5.765-5.3.125.125,0,0,1-.012-.132l2.924-5.8a.123.123,0,0,1,.159-.058l7.558,3.252a.123.123,0,0,1-.1.226l-7.452-3.206-2.835,5.628a23.639,23.639,0,0,0,5.659,5.185c1.6,1.04,4.9,3.18,7.637,3.18a3.864,3.864,0,0,0,2.075-.544,3.993,3.993,0,0,0,1.449-1.709c2.551-5.156-4.448-15.369-5.878-17.364a.123.123,0,1,1,.2-.142c1.444,2.015,8.511,12.336,5.9,17.617a4.228,4.228,0,0,1-1.54,1.808,4.11,4.11,0,0,1-2.2.58Z" transform="translate(-341.644 -78.421)" fill="#292929"/>
      <path id="Path_736" data-name="Path 736" d="M375.557,113l-1.637-.859Z" transform="translate(-283.918 -83.138)" fill="#fff"/>
      <path id="Path_737" data-name="Path 737" d="M375.167,112.732a.129.129,0,0,1-.058-.014l-1.637-.859a.123.123,0,0,1,.116-.217l1.637.859a.121.121,0,0,1,.051.166A.124.124,0,0,1,375.167,112.732Z" transform="translate(-283.528 -82.748)" fill="#292929"/>
      <path id="Path_738" data-name="Path 738" d="M465.352,261.791a.126.126,0,0,1-.1-.053A60.917,60.917,0,0,1,454.993,237.3c-.284-1.615-.5-3.264-.645-4.9a7.292,7.292,0,0,0-1.444-3.745l-.83-1.1a.122.122,0,0,1,.024-.171.126.126,0,0,1,.173.024l.83,1.1a7.523,7.523,0,0,1,1.492,3.873c.144,1.63.361,3.271.643,4.879a60.677,60.677,0,0,0,10.22,24.342.123.123,0,0,1-.031.171.125.125,0,0,1-.07.022Z" transform="translate(-343.241 -170.624)" fill="#292929"/>
      <path id="Path_739" data-name="Path 739" d="M447.232,419.613a.123.123,0,0,1-.123-.113.122.122,0,0,1,.111-.132l14.413-1.23a.12.12,0,0,1,.132.111.122.122,0,0,1-.111.132l-14.413,1.23h-.01Z" transform="translate(-339.491 -315.483)" fill="#292929"/>
      <circle id="Ellipse_149" data-name="Ellipse 149" cx="9.888" cy="9.888" r="9.888" transform="translate(120.076 19.247) rotate(-76.72)" fill="#0a58c9"/>
      <path id="Path_740" data-name="Path 740" d="M536.072,17.179a.491.491,0,0,1-.375-.173l-3.387-3.981a.492.492,0,0,1,.749-.638l2.975,3.5,7.291-10.362a.49.49,0,1,1,.8.566l-7.657,10.882a.483.483,0,0,1-.38.207h-.022Z" transform="translate(-404.095 -2.027)" fill="#fff"/>
      <path id="Path_741" data-name="Path 741" d="M97.114,443.276H.123a.123.123,0,0,1,0-.246H97.114a.123.123,0,0,1,0,.246Z" transform="translate(0 -334.384)" fill="#292929"/>
      <path id="Path_742" data-name="Path 742" d="M493.214,443.276H449.443a.123.123,0,0,1,0-.246h43.771a.123.123,0,0,1,0,.246Z" transform="translate(-341.17 -334.384)" fill="#292929"/>
      <rect id="Rectangle_890" data-name="Rectangle 890" width="9.364" height="10.144" rx="3" transform="translate(34.335 42.251)" fill="#fff"/>
      <rect id="Rectangle_891" data-name="Rectangle 891" width="9.364" height="10.144" rx="3" transform="translate(46.04 42.251)" fill="#fff"/>
      <rect id="Rectangle_892" data-name="Rectangle 892" width="9.364" height="10.144" rx="3" transform="translate(57.745 42.251)" fill="#fff"/>
      <rect id="Rectangle_893" data-name="Rectangle 893" width="9.364" height="10.144" rx="3" transform="translate(69.45 42.251)" fill="#fff"/>
      <path id="Rectangle_890_-_Outline" data-name="Rectangle 890 - Outline" d="M1.951.325A1.628,1.628,0,0,0,.325,1.951V7.8A1.628,1.628,0,0,0,1.951,9.429h5.2A1.628,1.628,0,0,0,8.779,7.8V1.951A1.628,1.628,0,0,0,7.153.325h-5.2m0-.325h5.2A1.951,1.951,0,0,1,9.1,1.951V7.8A1.951,1.951,0,0,1,7.153,9.754h-5.2A1.951,1.951,0,0,1,0,7.8V1.951A1.951,1.951,0,0,1,1.951,0Z" transform="translate(34.465 42.303)"/>
      <path id="Rectangle_890_-_Outline-2" data-name="Rectangle 890 - Outline" d="M1.951.325A1.628,1.628,0,0,0,.325,1.951V7.8A1.628,1.628,0,0,0,1.951,9.429h5.2A1.628,1.628,0,0,0,8.779,7.8V1.951A1.628,1.628,0,0,0,7.153.325h-5.2m0-.325h5.2A1.951,1.951,0,0,1,9.1,1.951V7.8A1.951,1.951,0,0,1,7.153,9.754h-5.2A1.951,1.951,0,0,1,0,7.8V1.951A1.951,1.951,0,0,1,1.951,0Z" transform="translate(46.17 42.303)"/>
      <path id="Rectangle_890_-_Outline-3" data-name="Rectangle 890 - Outline" d="M1.951.325A1.628,1.628,0,0,0,.325,1.951V7.8A1.628,1.628,0,0,0,1.951,9.429h5.2A1.628,1.628,0,0,0,8.779,7.8V1.951A1.628,1.628,0,0,0,7.153.325h-5.2m0-.325h5.2A1.951,1.951,0,0,1,9.1,1.951V7.8A1.951,1.951,0,0,1,7.153,9.754h-5.2A1.951,1.951,0,0,1,0,7.8V1.951A1.951,1.951,0,0,1,1.951,0Z" transform="translate(57.875 42.303)"/>
      <path id="Rectangle_890_-_Outline-4" data-name="Rectangle 890 - Outline" d="M1.951.325A1.628,1.628,0,0,0,.325,1.951V7.8A1.628,1.628,0,0,0,1.951,9.429h5.2A1.628,1.628,0,0,0,8.779,7.8V1.951A1.628,1.628,0,0,0,7.153.325h-5.2m0-.325h5.2A1.951,1.951,0,0,1,9.1,1.951V7.8A1.951,1.951,0,0,1,7.153,9.754h-5.2A1.951,1.951,0,0,1,0,7.8V1.951A1.951,1.951,0,0,1,1.951,0Z" transform="translate(69.581 42.303)"/>
    </g>
  </g>
</svg>
