<svg xmlns="http://www.w3.org/2000/svg" xmlns:xlink="http://www.w3.org/1999/xlink" width="220" height="57.71" viewBox="0 0 220 57.71">
  <defs>
    <linearGradient id="linear-gradient" y1="0.5" x2="1" gradientUnits="objectBoundingBox">
      <stop offset="0" stop-color="#fff" stop-opacity="0"/>
      <stop offset="0.475" stop-color="#fff"/>
      <stop offset="1" stop-color="#fff" stop-opacity="0"/>
    </linearGradient>
  </defs>
  <g id="Group_314" data-name="Group 314" transform="translate(-104 -406.145)">
    <path id="KOTA_Logo" data-name="KOTA Logo" d="M139.335,37.42l-2.034-6.1H123.918l-2.034,6.1H110.855L124.613,0h12.1l13.7,37.42ZM126.594,23.354h8.083l-4.068-12.1ZM88.961,37.42V8.28H79V0h30.514V8.28H99.453V37.42Zm-66.638,0-11.831-16.4v16.4H0V0H10.492V16.135L22.216,0h12.1L20.449,18.153,35.01,37.42Zm31.181-.46a.082.082,0,0,1,.024-.023.223.223,0,0,1,.058-.023l.016,0a.065.065,0,0,1,.023,0,.076.076,0,0,0,.023,0,.078.078,0,0,0,.025-.015.108.108,0,0,1,.026-.015.229.229,0,0,0,.1-.062.326.326,0,0,0,.067-.11l.005-.016a.145.145,0,0,1,.02-.046.111.111,0,0,1,.014-.015.046.046,0,0,0,.018-.034.156.156,0,0,0-.005-.073.054.054,0,0,0-.037-.013c-.014,0-.023,0-.025.013l-.042,0-.042,0c0-.023.022-.034.066-.034l.038,0h0l.029,0h0a.241.241,0,0,0,.008-.035.093.093,0,0,1,.02-.052.172.172,0,0,0,.042-.067.421.421,0,0,0,0-.121.655.655,0,0,1,0-.072.239.239,0,0,1,.03-.115.044.044,0,0,1,.023-.008.055.055,0,0,0,.019-.005.064.064,0,0,0,.026-.02.117.117,0,0,1,.014-.014.1.1,0,0,1,.047-.017.085.085,0,0,0,.045-.017.214.214,0,0,0,.031-.038.166.166,0,0,1,.039-.045.15.15,0,0,1,.074-.021l.032,0,.024,0a1.02,1.02,0,0,0,.223-.053.189.189,0,0,1,.059-.011h.01a.082.082,0,0,1,0-.012c0-.005,0-.01,0-.013a.29.29,0,0,1,.083-.025c.012-.021.014-.025.035-.035a.1.1,0,0,1,.033-.006h.017l.039-.01a.483.483,0,0,1,.127-.022l.035,0c.019,0,.037.005.054.008a.438.438,0,0,0,.08.01h.066a.284.284,0,0,1,.066.006.466.466,0,0,0,.065.005.225.225,0,0,1,.113.024.363.363,0,0,1,.07.05l.014.013a.1.1,0,0,0,.037.026l.01,0,.012,0a.11.11,0,0,1-.019-.03l0,0,0,0a.037.037,0,0,0-.007-.012.085.085,0,0,0-.04-.026l-.018-.008c-.038-.021-.038-.048-.038-.082a.319.319,0,0,0,0-.033h-.01c-.017,0-.023.011-.03.023a.1.1,0,0,1-.009.013.1.1,0,0,1-.072.022h-.015a.206.206,0,0,1-.051-.008.239.239,0,0,0-.045-.008c-.028,0-.053,0-.082-.009,0-.024-.023-.031-.044-.039a.108.108,0,0,1-.025-.012.779.779,0,0,0-.1-.05.115.115,0,0,1-.064-.065.393.393,0,0,1,.048-.279.238.238,0,0,1,.055-.068.227.227,0,0,0,.058-.077.183.183,0,0,1,.084-.112.206.206,0,0,1,.078-.125.423.423,0,0,0,.046-.049l.009-.012a.184.184,0,0,1,.031-.038.057.057,0,0,1,.026-.013.062.062,0,0,0,.023-.01c.012-.01.017-.019.015-.026s-.035-.018-.052-.02c0-.018,0-.115.024-.143a.019.019,0,0,1,.014-.007h0c0-.006,0-.012,0-.018a.091.091,0,0,1,.01-.048.287.287,0,0,1,.084-.09.236.236,0,0,1,.1-.016.56.56,0,0,1,.119.017.564.564,0,0,0,.119.017c.019,0,.037,0,.055,0a.465.465,0,0,1,.051,0,.2.2,0,0,1,.044,0l.026.008a.143.143,0,0,0,.037.01h.067a.118.118,0,0,0-.075-.044l-.015,0-.033-.01a.51.51,0,0,0-.111-.025H55.84c-.021,0-.04,0-.058,0h-.035a.085.085,0,0,0-.018.008l-.009.005a.019.019,0,0,1,0-.019.077.077,0,0,1,.056-.02h.077l.023,0a.207.207,0,0,0,.035,0h.011a.112.112,0,0,0,.04-.01.134.134,0,0,1,.034-.01.163.163,0,0,1,.079.03.074.074,0,0,0,.038.013l.015,0c.036,0,.039.024.042.046a.1.1,0,0,0,.011.037.2.2,0,0,0,.026-.121v-.012c0-.076,0-.154-.007-.23v-.007c0-.074-.011-.15-.017-.223,0-.04-.007-.081-.01-.121a.026.026,0,0,0,.012-.007.115.115,0,0,1,.021-.014v-.022a.353.353,0,0,0-.008-.134.092.092,0,0,0-.037-.051c0-.092,0-.185,0-.275a1.034,1.034,0,0,0-.016-.207.041.041,0,0,0-.01-.02.04.04,0,0,1-.008-.012.078.078,0,0,1,0-.037.132.132,0,0,0,0-.027.038.038,0,0,0-.014-.025A.072.072,0,0,1,56.1,32.8c-.04-.053-.018-.175-.006-.24v-.006a.677.677,0,0,0,.014-.138h.022l.029,0,.028,0c0-.053.007-.109.014-.161a.221.221,0,0,1,.006-.03c.006-.026.013-.052-.01-.062a.1.1,0,0,0-.033-.007h0a.047.047,0,0,0,0-.012.479.479,0,0,0,.01-.06c0-.009,0-.018,0-.027s0-.01,0-.017A.106.106,0,0,0,56.189,32c0-.011-.016-.012-.026-.012h-.025c-.009,0-.018,0-.019-.012a.047.047,0,0,1,.016-.033.067.067,0,0,1,.044-.023h.008a.063.063,0,0,1,.024.045l0,0h0c.023,0,.03-.009.037-.029a.014.014,0,0,0,0-.008.019.019,0,0,1,0-.012.042.042,0,0,1,.007-.015.041.041,0,0,0,.007-.015.125.125,0,0,0,0-.018.06.06,0,0,1,.009-.03.18.18,0,0,1,.027-.028l.013-.012.038-.033a.847.847,0,0,0,.087-.08.111.111,0,0,0,.021-.042l.007-.018a.12.12,0,0,1,.025-.033l.016-.019a.081.081,0,0,0,.012-.076.045.045,0,0,0-.032-.028.117.117,0,0,1-.021-.009l-.012-.008a.061.061,0,0,0-.024-.014h.045a.053.053,0,0,1,.017.01.038.038,0,0,0,.017.009h0c.071,0,.136-.225.139-.234a.449.449,0,0,1,.021-.058.245.245,0,0,0,.025-.1c0-.026,0-.054,0-.08s0-.054,0-.081a.318.318,0,0,1,.045-.14.333.333,0,0,0,.045-.138.889.889,0,0,0-.021-.269.2.2,0,0,0-.047-.079.179.179,0,0,1-.047-.084c-.007-.029-.011-.046-.028-.053h0a.108.108,0,0,0-.046-.005l0-.008,0-.012-.022-.008-.011,0-.008-.01a.132.132,0,0,1-.029-.06h0a.027.027,0,0,0,.025-.011c.014-.023-.016-.077-.036-.114a.2.2,0,0,1-.016-.032.553.553,0,0,1,0-.153c0-.016,0-.03,0-.043l.017,0,.015,0a.4.4,0,0,0,.05.164.5.5,0,0,1,.049.139.126.126,0,0,0,.021.052c0,.008.009.016.014.026a.1.1,0,0,1,0,.04.117.117,0,0,0,0,.035c0,.014.023.047.045.047a.027.027,0,0,0,.017-.007.021.021,0,0,0,.008-.015c0-.01-.01-.019-.018-.026a.047.047,0,0,1-.011-.011.173.173,0,0,1,0-.078.2.2,0,0,0,0-.065c-.006-.039-.015-.077-.023-.114s-.022-.1-.028-.148c0-.024,0-.048,0-.07a.411.411,0,0,0-.013-.118v0a.868.868,0,0,1-.038-.188.361.361,0,0,0-.02-.086.345.345,0,0,1-.019-.082.067.067,0,0,0-.02,0,.048.048,0,0,0-.047.033.044.044,0,0,1,0-.039c.01-.014.035-.015.059-.015h.016v0a.127.127,0,0,1,.025-.086.158.158,0,0,1,.022-.027.094.094,0,0,0,.031-.052.548.548,0,0,0,.008-.152c0-.018,0-.037,0-.054s0-.02,0-.03a.3.3,0,0,0,0-.062.484.484,0,0,0-.04-.114.61.61,0,0,1-.037-.1l-.007-.025c-.021-.082-.043-.167-.056-.25a.581.581,0,0,1,.028-.274.206.206,0,0,1,.018-.033.17.17,0,0,0,.021-.045c0-.016.009-.033.012-.051a.419.419,0,0,1,.115-.241.249.249,0,0,0,.075-.129.379.379,0,0,1,.04-.093l.014-.022c.024-.039.055-.088.1-.1a.1.1,0,0,1,.028,0h.044a.1.1,0,0,0,.028,0,.161.161,0,0,0,.046-.026.149.149,0,0,1,.037-.022v0a.068.068,0,0,1,0-.019.267.267,0,0,1,.15-.035c.033,0,.065,0,.1.005h.006a.187.187,0,0,0,.012.069.25.25,0,0,1,.013.053.191.191,0,0,1,0,.033c0,.024,0,.049.007.06a.023.023,0,0,0,.018.007l.012,0c0-.037,0-.074.039-.082a.144.144,0,0,1,0,.045.14.14,0,0,0,0,.045h0c.047,0,.049-.073.051-.121a.3.3,0,0,1,0-.03.143.143,0,0,1,.013.036c.007.026.012.05.041.05H57.6a.06.06,0,0,1,0,.02h.028a.117.117,0,0,1,0-.016.1.1,0,0,0,0-.034.036.036,0,0,0,.036.024l.02,0a.04.04,0,0,1-.028-.03.108.108,0,0,1,.028-.092.5.5,0,0,1,.061-.047.187.187,0,0,0,.105-.15.15.15,0,0,1,.017-.058.158.158,0,0,1,.042-.044.177.177,0,0,0,.034-.032.106.106,0,0,0,.031-.079c0-.006,0-.013,0-.02,0-.087.035-.1.116-.108a.888.888,0,0,0,.169-.039.029.029,0,0,0-.007-.024.087.087,0,0,0-.064-.019.152.152,0,0,0-.042.006.137.137,0,0,0-.047.025.088.088,0,0,1-.06.022h-.016c.01-.048.1-.054.162-.054h.061a.617.617,0,0,1,.132.009.274.274,0,0,1,.063.026.211.211,0,0,0,.068.027l0,.01a.073.073,0,0,1,0,.018c0-.016,0-.032,0-.048s0-.032,0-.049c.034.005.032.044.031.077a.247.247,0,0,0,0,.029l.026,0a.485.485,0,0,0,.17-.047l.02-.008a.4.4,0,0,0,.1-.062.384.384,0,0,1,.079-.053.557.557,0,0,1,.09-.033.43.43,0,0,0,.112-.046.115.115,0,0,0,.058-.057.126.126,0,0,0,.006-.042.077.077,0,0,1,.024-.064c0,.011,0,.022,0,.032s0,.043,0,.064l.014,0,.014,0c.013,0,.007-.06,0-.106a.257.257,0,0,1,0-.052s0-.009,0-.013,0-.008,0-.012l-.02,0a.168.168,0,0,1-.07-.013.04.04,0,0,1-.02-.03.057.057,0,0,1,.02-.047.044.044,0,0,1,.019-.01.06.06,0,0,0-.017.047.041.041,0,0,0,.019.03.179.179,0,0,0,.071.013l.02,0h0c.005,0,.008,0,.01-.006a.051.051,0,0,0,.005-.053l0-.012.01-.032a.22.22,0,0,1,.021-.04.108.108,0,0,0,.021-.081.146.146,0,0,0-.084-.089.093.093,0,0,0,0,.05h.021v.021a.271.271,0,0,1-.015.139h-.039c-.049-.046.025-.27.047-.3a.23.23,0,0,1,.1-.066.454.454,0,0,0,.051-.026.694.694,0,0,0,.085-.066.692.692,0,0,1,.091-.07l.016-.01a.267.267,0,0,0,.106-.091.3.3,0,0,1,.151-.118l.032-.015.02-.009a1.166,1.166,0,0,1,.207-.085l.01,0a.6.6,0,0,0,.138-.05.141.141,0,0,0,.05-.057A.221.221,0,0,1,60.373,25a.194.194,0,0,1,.042-.028.12.12,0,0,0,.051-.041.188.188,0,0,0,.017-.056.21.21,0,0,1,.02-.063.625.625,0,0,1,.125-.142l.046-.044c.017-.017.033-.031.049-.044a1.2,1.2,0,0,1,.146-.091c.043-.024.087-.049.129-.079a.328.328,0,0,0,.042-.035.447.447,0,0,1,.034-.029.334.334,0,0,1,.059-.033l.028-.013c.017-.009.037-.017.058-.025a.405.405,0,0,0,.114-.062.264.264,0,0,0,.031-.039.144.144,0,0,1,.072-.064c.039-.011.038-.055.038-.095a.129.129,0,0,1,0-.047.1.1,0,0,1,.058-.043.217.217,0,0,0,.03-.014.479.479,0,0,0,.055-.042.258.258,0,0,1,.1-.064.06.06,0,0,1,.047-.046l.013-.025a.665.665,0,0,1,.073-.119.232.232,0,0,1,.03-.029.19.19,0,0,0,.04-.042.275.275,0,0,0,.017-.037.263.263,0,0,1,.023-.046.6.6,0,0,1,.106-.112l.024-.021a.769.769,0,0,0,.1-.1.272.272,0,0,0,.032-.087l0-.009,0-.005.005-.013a.248.248,0,0,1,.072-.084.247.247,0,0,0,.059-.065.372.372,0,0,0,.023-.051.248.248,0,0,1,.031-.064c.013-.017.024-.036.037-.056a.673.673,0,0,1,.064-.091.217.217,0,0,1,.073-.045.277.277,0,0,0,.073-.042.192.192,0,0,0,.037-.047.147.147,0,0,1,.062-.061.36.36,0,0,0,.058-.038.214.214,0,0,1,.081-.045.058.058,0,0,0,0-.028.324.324,0,0,1-.048,0l-.019,0c-.009.023-.031.024-.054.024a.127.127,0,0,0-.032,0c0-.025.026-.039.047-.052a.13.13,0,0,0,.037-.03l-.044-.015-.014-.005a.407.407,0,0,1-.081.133.135.135,0,0,1-.037.021l-.015.007a.166.166,0,0,0,.023-.1.233.233,0,0,1,.008-.069.449.449,0,0,1,.067-.085.366.366,0,0,1,.1-.069.563.563,0,0,0,.07-.039l.02-.015a.258.258,0,0,1,.134-.065.1.1,0,0,1,.079.045c.045.062-.038.131-.065.154a1.362,1.362,0,0,1-.168.083.409.409,0,0,0,0,.082h.007a.037.037,0,0,0,.035-.023.068.068,0,0,1,.017-.021.321.321,0,0,1,.093-.039l.01,0a.813.813,0,0,0,.162-.049c.089-.043.206-.1.315-.147a.753.753,0,0,1,.171-.045.705.705,0,0,0,.191-.054L63.968,22a.307.307,0,0,0,.195-.17c0-.007,0-.015.007-.024.013-.049.028-.1.084-.116.007-.055.088-.088.16-.118a.643.643,0,0,0,.073-.034.4.4,0,0,1,.048-.023.281.281,0,0,0,.073-.039c.035-.032.028-.1.023-.151h-.008l-.026,0-.033,0c-.02-.1.078-.155.157-.2l.042-.023a.546.546,0,0,0,.206-.25.163.163,0,0,0-.032,0h-.012c-.016,0-.017.012-.019.019a.019.019,0,0,1-.009.015.059.059,0,0,1-.022,0,.056.056,0,0,0-.02,0l-.012.012a.157.157,0,0,1-.024.021.2.2,0,0,1-.054.017l-.031.007a.112.112,0,0,0-.051.029l-.019.015c0-.121.026-.133.148-.142.038,0,.06-.013.068-.031s-.018-.082-.048-.126l-.023-.034a.768.768,0,0,1-.091-.213c-.012-.052-.021-.225.031-.239a.32.32,0,0,1,.108-.147.148.148,0,0,1,.021-.018l.009-.009a.214.214,0,0,1,.023-.023L64.915,20l.011-.012.019-.02a.3.3,0,0,1,.06-.051.845.845,0,0,1,.193-.082.351.351,0,0,1,.072-.009l.027,0a.237.237,0,0,1,.057.015.193.193,0,0,0,.064.016l.016,0,0,0a.572.572,0,0,1,.075-.111.158.158,0,0,0,.03-.023.124.124,0,0,1,0-.017l0,0a.247.247,0,0,1,.108-.065l.042-.01c.057-.012.106-.023.125-.094a.081.081,0,0,0,0-.032.059.059,0,0,1,.011-.043.115.115,0,0,1,.039-.029.114.114,0,0,0,.047-.038c.005-.009.01-.02.015-.029a.223.223,0,0,1,.024-.042.114.114,0,0,1,.027-.021A.114.114,0,0,0,66,19.284a.093.093,0,0,0,.016-.023.079.079,0,0,1,.031-.037.044.044,0,0,1,.027-.01h.009c.009,0,.017,0,.031-.023a.064.064,0,0,0,.013-.031c0-.01,0-.016.028-.032a.237.237,0,0,1,.067-.016c0-.009,0-.019,0-.029a.462.462,0,0,0,0-.109.115.115,0,0,0-.031-.053.1.1,0,0,1-.028-.045.1.1,0,0,1,.03,0,.069.069,0,0,1,.054.024.243.243,0,0,1,.032.171.121.121,0,0,1-.028.059.13.13,0,0,0-.026.049.085.085,0,0,0,.026.079.292.292,0,0,1,.021.029.2.2,0,0,0,.014.021.08.08,0,0,1,.018.042.1.1,0,0,1,0,.023c0,.018,0,.039,0,.045a.026.026,0,0,0,.018.008c.027,0,.059-.044.072-.063a.229.229,0,0,0,.017-.032.081.081,0,0,1,.046-.051.093.093,0,0,1,.037-.009.037.037,0,0,1,.029.012.074.074,0,0,1,.013.057.105.105,0,0,0,.03,0,.126.126,0,0,0,.031,0v-.012c.006-.074.006-.074.08-.079H66.7a.351.351,0,0,1-.014-.129.267.267,0,0,1,.015-.045A.173.173,0,0,0,66.715,19h.039c.042,0,.094,0,.118-.025a.054.054,0,0,0,.012-.043.178.178,0,0,0,.107-.094A.047.047,0,0,0,67,18.814c0-.009,0-.014.024-.026a.074.074,0,0,1,.027,0,.149.149,0,0,1,.056.011.446.446,0,0,1,.121.094l.019.02a.215.215,0,0,0,.032.031.339.339,0,0,0-.054-.131.361.361,0,0,1-.078-.237.448.448,0,0,0-.048-.194l-.021-.052a.366.366,0,0,1-.018-.089c0-.012,0-.025-.005-.039a.157.157,0,0,0-.013-.038c-.008-.018-.015-.034-.01-.047a.034.034,0,0,1,.021-.017c0-.007,0-.014,0-.022a.257.257,0,0,0,0-.088.075.075,0,0,0-.032-.039A.06.06,0,0,1,67,17.929a.066.066,0,0,0-.053-.044.351.351,0,0,0,.008-.076c0-.062.006-.133.057-.156.011-.047.031-.069.059-.069l.017,0a.592.592,0,0,0-.167-.046.152.152,0,0,0-.08.038.1.1,0,0,1-.049.025c-.012,0-.022-.009-.031-.029a.31.31,0,0,1,.007-.166l.007-.036c0-.007,0-.013,0-.019a.1.1,0,0,1,.005-.036A.048.048,0,0,1,66.8,17.3a.035.035,0,0,0,.017-.023c.009-.044-.018-.052-.049-.061l-.03-.01a.349.349,0,0,1-.1-.067.027.027,0,0,1-.008-.017.029.029,0,0,0-.015-.022.045.045,0,0,0-.021,0l-.03,0-.019,0c0-.021,0-.042,0-.063a.958.958,0,0,1,0-.167s0-.007,0-.01c0-.03,0-.072.025-.086a.041.041,0,0,1,.026-.008l.022,0,.022,0a.053.053,0,0,0,.024-.005.044.044,0,0,0,.024-.04.122.122,0,0,1,.006-.029.538.538,0,0,1,.032-.071.3.3,0,0,0,.04-.111.442.442,0,0,0-.044-.207.094.094,0,0,0-.054-.017h-.01a.159.159,0,0,1-.038-.013.172.172,0,0,0-.043-.014l-.032,0a.379.379,0,0,1-.049-.008H66.6a.238.238,0,0,1,.088.023l0,0,0,0a.122.122,0,0,0-.116-.061h-.044l-.031,0a.187.187,0,0,1-.073-.024.287.287,0,0,0-.045-.02.383.383,0,0,0-.114-.016l-.046,0c.008-.064-.062-.081-.092-.085a.132.132,0,0,0-.059-.043l-.031-.017,0,0a.137.137,0,0,1-.046-.04.153.153,0,0,1-.016-.037.134.134,0,0,0-.019-.044.177.177,0,0,0-.04-.032c-.019-.012-.038-.025-.043-.039-.013-.03,0-.038.013-.047a.065.065,0,0,0,.024-.024.055.055,0,0,0,0-.024.054.054,0,0,1,0-.029l.006-.008.007-.01a.144.144,0,0,0,.026-.03.25.25,0,0,0,.025-.143c0-.02,0-.041,0-.061h.005l.014,0a.749.749,0,0,1,.076-.005.1.1,0,0,1,.061.012.038.038,0,0,1,.007.033.04.04,0,0,0,.009.035.058.058,0,0,0,.038.01l.034,0c-.031-.019-.051-.04-.042-.081.016,0,.033,0,.049,0h.049c0-.013,0-.024,0-.034,0-.054,0-.07.075-.074a.259.259,0,0,0-.011-.093.246.246,0,0,1-.01-.1.351.351,0,0,1,.112-.019.549.549,0,0,0,.064-.007.307.307,0,0,1,.06-.005l.053,0,.054,0h.032a.037.037,0,0,1,.04-.03.228.228,0,0,1,.046.007.222.222,0,0,0,.045.007.036.036,0,0,0,.022-.006.507.507,0,0,0,.056-.22l-.016,0c-.025,0-.029.017-.034.035a.049.049,0,0,1-.019.034l-.011,0c-.027,0-.068-.037-.089-.062a.171.171,0,0,1-.031-.063.313.313,0,0,0-.013-.038c-.006-.013-.014-.027-.021-.04a.319.319,0,0,1-.028-.057l-.026.027a.153.153,0,0,1-.073.051.175.175,0,0,1-.053.01.163.163,0,0,1-.07-.022l-.024-.012c-.059-.027-.127-.058-.147-.124a.061.061,0,0,1,0-.031.065.065,0,0,0,0-.031.131.131,0,0,0-.041-.044l-.019-.016a.237.237,0,0,0-.092-.064l-.044-.013-.049-.015h0a.11.11,0,0,0-.035-.005l-.031,0-.033,0-.021,0c0-.01,0-.022,0-.035-.008-.089-.019-.222.07-.24a.072.072,0,0,0-.016-.057.116.116,0,0,1-.017-.033.1.1,0,0,1,.031-.094l0,0a.178.178,0,0,1,.085-.055.224.224,0,0,0,.063-.032.1.1,0,0,0,.036-.067.124.124,0,0,1,.029-.062.118.118,0,0,1,.021-.018.128.128,0,0,1,.077-.023h.011a.112.112,0,0,0-.012-.064.176.176,0,0,1-.011-.033l-.021,0a.181.181,0,0,1-.04-.005c-.027-.007-.041-.022-.063-.069,0-.008-.008-.014-.012-.02a.092.092,0,0,1-.018-.074.1.1,0,0,1,.012-.028.073.073,0,0,0,.011-.05.2.2,0,0,1,.009.053h.006a.1.1,0,0,1,.027.005.071.071,0,0,0,.018,0,.053.053,0,0,0,.016.037.176.176,0,0,0,.108.055h.007a.132.132,0,0,0,0,.03.128.128,0,0,1,0,.03h.107a.373.373,0,0,1-.016.046l-.005.014a.761.761,0,0,0,.091.008h.03c0,.006,0,.013,0,.021a.346.346,0,0,1,0,.092.148.148,0,0,1-.023.045.1.1,0,0,0-.024.06l.023,0a.338.338,0,0,0,.045,0l.023,0a.391.391,0,0,1,0,.042.216.216,0,0,0,.007.087c0-.008,0-.017,0-.025a.455.455,0,0,0,.008-.074c.019-.009.021-.034.022-.059s0-.057.034-.057h0c0,.008.006.018.009.027a.19.19,0,0,0,.017.042.072.072,0,0,0,0-.028.062.062,0,0,1,.005-.034c.013-.015.022-.022.03-.022a.032.032,0,0,1,.018.009.1.1,0,0,0,.019.013.1.1,0,0,1,.021.013.068.068,0,0,0,.042.017h.023a.476.476,0,0,0,.054,0c-.014-.018-.027-.039-.038-.056s-.024-.038-.038-.056a.264.264,0,0,0-.03-.032c-.025-.024-.049-.047-.037-.089a.187.187,0,0,1,.087-.017h.042c0,.041.022.05.047.059a.077.077,0,0,1,.04.024.392.392,0,0,1,.023.114c0,.013,0,.024,0,.033a.206.206,0,0,0,.019.076.174.174,0,0,0,.093.092c.019.01.039.022.059.034a.454.454,0,0,0,.165.073h.007a.809.809,0,0,0,.107.01.1.1,0,0,0,.062-.013.089.089,0,0,0,.01-.04.182.182,0,0,1,0-.024.135.135,0,0,1,.018-.024.085.085,0,0,0,.021-.031.094.094,0,0,0,0-.023.064.064,0,0,1,0-.02.067.067,0,0,1,.035-.035.163.163,0,0,0,.034-.022.048.048,0,0,0,.009-.012v-.013a.086.086,0,0,1,.022-.018.1.1,0,0,1,.049-.017c.051,0,.062.071.073.146s.02.133.06.149a.347.347,0,0,1-.014.112.416.416,0,0,0-.009.062.461.461,0,0,0,.012.1.694.694,0,0,1,.012.075,1.254,1.254,0,0,1,0,.135h.016a.535.535,0,0,0,.04.295.075.075,0,0,0,.071.039.342.342,0,0,0,.067-.01l.042-.008h.018a.182.182,0,0,1,.1.039.391.391,0,0,0,.066.036.467.467,0,0,0,.093.018.537.537,0,0,1,.06.01l.049.015a.368.368,0,0,0,.115.024l.073,0a1.371,1.371,0,0,0,.243-.02,1.186,1.186,0,0,1,.192-.013h.148a.39.39,0,0,0,.071-.008.388.388,0,0,1,.064-.008.194.194,0,0,1,.072.018.223.223,0,0,0,.067.018h0a.193.193,0,0,0,.071-.018h0a.185.185,0,0,1,.072-.018l.023,0c.01.03.117.034.174.036h.021a.435.435,0,0,1,.044.005.479.479,0,0,0,.065.006c.038,0,.059-.011.066-.035l0,0a.3.3,0,0,0,.1.051h.006a.158.158,0,0,0,.061-.017l.021-.008a.968.968,0,0,1,.2-.055.741.741,0,0,1,.131-.013.223.223,0,0,1,.221.107h.009l.035,0h.01l.048,0a.179.179,0,0,1,.054.006l0,.006-.007.012c.031.019.033.072.034.111,0,.007,0,.014,0,.02l.031,0,.031,0a.066.066,0,0,1,.035.016.115.115,0,0,1,.009.106.055.055,0,0,1-.047.022.32.32,0,0,1-.122-.042.506.506,0,0,0-.085-.035H70.8a.093.093,0,0,0,.019.1.308.308,0,0,1,.027.043c.03.06,0,.085-.03.112a.288.288,0,0,0-.028.026.262.262,0,0,0-.016.106c0,.058,0,.066-.032.106l0,0a.261.261,0,0,1-.03.027l-.005.005a.015.015,0,0,0-.006.007l0,.005v0a.136.136,0,0,0-.052.089.008.008,0,0,0-.007,0,.414.414,0,0,0-.118.065.22.22,0,0,0-.066.1.245.245,0,0,1-.061.1.182.182,0,0,1-.024-.027.114.114,0,0,0-.094-.053H70.27c-.022,0-.027.012-.033.025a.068.068,0,0,1-.025.033.175.175,0,0,1-.03.015.246.246,0,0,0-.028.015l-.007,0a.117.117,0,0,0-.032.023s0,.008,0,.012,0,.006,0,.007a.1.1,0,0,1-.035.023.148.148,0,0,0-.03.017.165.165,0,0,1-.1.027H69.9a.251.251,0,0,0-.059.005.066.066,0,0,0-.056.043l0,.008a.155.155,0,0,1-.028.032.106.106,0,0,0-.032.042.349.349,0,0,0-.01.064c0,.012,0,.024,0,.035a.437.437,0,0,1-.039.136.4.4,0,0,1-.021.041.317.317,0,0,0-.028.058.118.118,0,0,0,0,.039.157.157,0,0,1,0,.024.11.11,0,0,1-.009.03.126.126,0,0,0-.007.022c-.007.033.03.089.053.117a.6.6,0,0,1,.081.119l.006.01a.2.2,0,0,1,.022.043.186.186,0,0,1,0,.036c0,.006,0,.012,0,.017a.378.378,0,0,0,.021.154.286.286,0,0,0,.02.039.187.187,0,0,1,.028.067.234.234,0,0,1,0,.046.258.258,0,0,0,0,.057.277.277,0,0,0,.033.081c.009.016.017.032.023.047l.036,0a.06.06,0,0,0,.045-.013.067.067,0,0,0,.011-.053v0a.445.445,0,0,0-.019-.125.353.353,0,0,1-.018-.163c0-.023.007-.033.019-.033a.1.1,0,0,1,.043.02l0,0c.051.029.052.079.052.132a.243.243,0,0,0,.01.086.272.272,0,0,0,.078.1.355.355,0,0,1,.075.092c.015.025.026.035.037.035s.027-.017.044-.04a.444.444,0,0,1,.035-.04.333.333,0,0,0,.039-.047.33.33,0,0,1,.033-.042.216.216,0,0,0,.045-.065.3.3,0,0,0-.007-.149.212.212,0,0,0-.022-.044.164.164,0,0,1-.027-.064.236.236,0,0,1,0-.052c0-.01,0-.019,0-.028,0-.059.023-.062.074-.065.028,0,.041-.007.047-.016a.075.075,0,0,0,0-.049.292.292,0,0,1,.007-.136.255.255,0,0,0,.016-.065c0-.006,0-.012,0-.018a.089.089,0,0,0,0-.016c0-.012,0-.025.006-.03a.02.02,0,0,1,.014,0,.319.319,0,0,1,.06.011.215.215,0,0,0,.042.008.321.321,0,0,1,.063-.1l.009-.01c.005-.006.008-.01.013-.01s.01,0,.02.01a.162.162,0,0,1,.027.042.112.112,0,0,1,.117-.088l0,0h.014a.15.15,0,0,1,.011.046l0,.012a.278.278,0,0,0,.035.1.157.157,0,0,1,.009.1.158.158,0,0,0,.007.1.166.166,0,0,0,.032.034.107.107,0,0,1,.042.058v0a.572.572,0,0,1,0,.157c0,.023,0,.045,0,.066s0,.042,0,.061,0,.04,0,.06a.214.214,0,0,0,.024.092l.013.032a.389.389,0,0,1,.011.042.223.223,0,0,0,.03.082.292.292,0,0,0,.02.025.21.21,0,0,1,.027.037,1.3,1.3,0,0,1,.074.166l0,.007a.253.253,0,0,1,.011.04c0,.01,0,.019.007.029a.248.248,0,0,0,.03.06l.012.02a.289.289,0,0,1,.023.071.312.312,0,0,0,.019.049.182.182,0,0,1,.023.077,2.118,2.118,0,0,0,.021.252v0c0,.027.007.053.009.079a.123.123,0,0,0,.023.054.119.119,0,0,1,.023.054v.009c0,.026,0,.041.026.041a.1.1,0,0,0,.024,0c.039-.01.036-.031.031-.059,0-.009,0-.018,0-.028v-.005c0-.026,0-.065.012-.082a.027.027,0,0,1,.021-.009c.017,0,.023.008.03.019a.1.1,0,0,0,.012.015.167.167,0,0,0,.028.021l.018.013a.238.238,0,0,1,.072.1.2.2,0,0,1,.01.029c.007.024.014.044.04.047H71.8a.434.434,0,0,0,.067-.008l.023,0a.362.362,0,0,0,.011-.044.174.174,0,0,1,.029-.078.071.071,0,0,1,.036-.023A.041.041,0,0,0,72,18.61a.262.262,0,0,0,0-.035.079.079,0,0,1,.02-.068.043.043,0,0,1,.031-.015.076.076,0,0,1,.036.013.075.075,0,0,0,.035.013.032.032,0,0,0,.016,0c.007,0,.011-.018.014-.027a.027.027,0,0,1,0-.007l.005-.008a.089.089,0,0,0,.011-.022.23.23,0,0,0,0-.07c0-.047-.006-.1.023-.114a.064.064,0,0,0-.023-.051l-.011-.013a.3.3,0,0,0-.049-.057.139.139,0,0,1-.033-.107.3.3,0,0,0,0-.033.359.359,0,0,0-.01-.047.18.18,0,0,1-.006-.1.332.332,0,0,0,.005-.121.557.557,0,0,1,0-.072.085.085,0,0,1-.037.012c-.016,0-.027-.011-.038-.037a.271.271,0,0,1-.019-.115A.056.056,0,0,1,72,17.512a.071.071,0,0,1,.028.008l.024.009a.075.075,0,0,0,.021,0,.2.2,0,0,0,.037,0,.189.189,0,0,1,.04-.005h.012c.04,0,.066,0,.077-.046,0-.01,0-.02.006-.03a.162.162,0,0,1,.029-.078.142.142,0,0,0,.033-.06.982.982,0,0,0,.023-.163c.006-.079.012-.183.009-.292a.573.573,0,0,0-.058-.232.343.343,0,0,1-.02-.081.284.284,0,0,0-.031-.1c-.009-.014-.02-.029-.031-.044a.318.318,0,0,1-.052-.087.322.322,0,0,1-.011-.065v0a.076.076,0,0,0-.032-.067.069.069,0,0,1-.023-.06.037.037,0,0,1,.027-.025.16.16,0,0,1,.037,0,.071.071,0,0,1,.044.012.051.051,0,0,1,.013.04.065.065,0,0,0,.006.03l0,0a.066.066,0,0,0,.056.03h.013a.276.276,0,0,0,.054-.007h.007a1.2,1.2,0,0,1,.174-.017h0a.1.1,0,0,1,.013-.032.116.116,0,0,0,.015-.045.228.228,0,0,1,.071.053c.034.032.069.065.1.065s.049-.02.069-.061a.363.363,0,0,1,.09.028.288.288,0,0,0,.12.03h.017c-.005.06.021.1.07.11a.2.2,0,0,0,.051-.165.039.039,0,0,1,.014,0,.036.036,0,0,0,.018,0,1.309,1.309,0,0,1,.13-.544.319.319,0,0,0,.02-.067.254.254,0,0,1,.024-.073.292.292,0,0,1,.03-.039.134.134,0,0,0,.042-.082.24.24,0,0,1,.049-.117c.023-.036.043-.074.062-.111l.012-.023a.7.7,0,0,1,.055-.081.391.391,0,0,0,.079-.141.249.249,0,0,0,0-.068.215.215,0,0,1,.007-.077.081.081,0,0,0,0-.092c-.023-.023-.084-.023-.116-.023s-.081-.007-.1-.032a.076.076,0,0,1,0-.055.163.163,0,0,0,0-.018c0-.022,0-.045,0-.068a.439.439,0,0,1,.015-.143.093.093,0,0,1,.067-.067l0,0,.009,0,.013,0,.028-.006.014,0a.3.3,0,0,0,.047-.013.093.093,0,0,0,.04-.05.092.092,0,0,1,.045-.053l0-.009,0-.007a.142.142,0,0,0,0-.079.348.348,0,0,1,0-.042c0-.02,0-.04,0-.059a.473.473,0,0,1,0-.074.132.132,0,0,1,.024-.064.16.16,0,0,0,.022-.047.362.362,0,0,1,.081-.144.076.076,0,0,1,.031-.022.084.084,0,0,0,.025-.015.1.1,0,0,0,.019-.058v-.009c0-.009,0-.018,0-.028a.249.249,0,0,1,0-.041.241.241,0,0,1,.015-.047.273.273,0,0,0,.011-.031.3.3,0,0,0,0-.126l0-.018s0-.009,0-.015c0-.022,0-.05-.022-.061a.026.026,0,0,0-.014,0l-.021,0H73.9c0-.006,0-.012,0-.018a.132.132,0,0,0-.01-.053l0,0a.008.008,0,0,0,0,0,.156.156,0,0,1-.014-.145.032.032,0,0,1,.015-.015.043.043,0,0,0,.01-.008.114.114,0,0,0,.012-.029.115.115,0,0,1,.013-.029.459.459,0,0,1,.077-.1.64.64,0,0,1,.058-.047l.005,0a.166.166,0,0,1,.052-.022h0a.241.241,0,0,0,.037,0,.078.078,0,0,0,.034-.007.179.179,0,0,1,.055-.109.285.285,0,0,0,.047-.07.149.149,0,0,1,.1-.08l.019,0a.12.12,0,0,0,.041-.014l.012-.006h0A18.5,18.5,0,0,1,70.05,31.786,18.8,18.8,0,0,1,56.77,37.24,19.092,19.092,0,0,1,53.5,36.959Zm-1.2-.249A18.807,18.807,0,0,1,42.067,30.2,18.5,18.5,0,0,1,41.139,8.3a18.754,18.754,0,0,1,8.124-6.749l.014.018A.2.2,0,0,1,49.3,1.6a.116.116,0,0,1,.008.048.142.142,0,0,0,.008.051c.012.033.026.033.043.033a.056.056,0,0,1,.036.01.077.077,0,0,1,.023.036c.006.017.011.03.033.03l.018,0c.011.026.035.027.059.028a.106.106,0,0,1,.049.009.11.11,0,0,1,.031.03.118.118,0,0,0,.084.051l.017,0a.289.289,0,0,0,.058.005l.045,0,.044,0a.192.192,0,0,1,.114.03.12.12,0,0,1,0,.057.042.042,0,0,0-.03.046c-.041,0-.064.049-.072.092s0,.121.041.137a.041.041,0,0,0,.017,0l.019,0h.019a.039.039,0,0,1,.014,0,.06.06,0,0,1,.032.031.063.063,0,0,0,.024.027.322.322,0,0,0,.038.02.126.126,0,0,1,.078.065h.065a.061.061,0,0,1,.065.034.106.106,0,0,1,0,.074l-.012,0-.015.032a.249.249,0,0,0-.014.03l-.012.022a.162.162,0,0,0-.018.038.1.1,0,0,0,0,.03.077.077,0,0,1-.005.048.058.058,0,0,1-.029.014.094.094,0,0,0-.036.016.116.116,0,0,0-.022.038.131.131,0,0,1-.01.022h-.119a.07.07,0,0,0-.035.006.093.093,0,0,0-.028.021.034.034,0,0,1-.011.009.175.175,0,0,1-.04.007.115.115,0,0,0-.063.016.116.116,0,0,0-.006.073.232.232,0,0,1,0,.035.253.253,0,0,1-.03.1l-.011.025c-.008.019-.01.022-.021.022h-.03l-.046,0c-.026,0-.057-.006-.085-.006a.1.1,0,0,0-.071.017c-.013.012-.014.047-.015.072,0,.008,0,.014,0,.019a.315.315,0,0,1-.01.051c-.011.044-.024.093,0,.1l0,.042a.524.524,0,0,0,.023.155h0a.063.063,0,0,1,.019,0c0,.025,0,.049,0,.073a.9.9,0,0,0,.036.262l0,.01a.32.32,0,0,1,.029.147.1.1,0,0,1-.009.027.072.072,0,0,0-.01.04c0,.007.006.01.01.013a.022.022,0,0,1,.012.016.167.167,0,0,1,0,.032c0,.005,0,.01,0,.014a.268.268,0,0,1-.017.081.236.236,0,0,0-.016.08.143.143,0,0,0,.014.042.206.206,0,0,1,.012.03.472.472,0,0,1,.014.112c0,.008,0,.017,0,.027a.18.18,0,0,1,0,.058.118.118,0,0,1-.024.034c-.012.013-.022.025-.022.035a.038.038,0,0,0,.015.037.049.049,0,0,1,.017.025.206.206,0,0,1,0,.055.258.258,0,0,0,0,.035h.014a.458.458,0,0,1-.009.1c0,.009,0,.018,0,.028a.176.176,0,0,1,.129.039.092.092,0,0,1,.016.076h.031c.092,0,.283.011.31.107a.074.074,0,0,1,.043.035.12.12,0,0,0,.033.034.081.081,0,0,0,.04.009h.029a.066.066,0,0,1,.032.006.11.11,0,0,1,.042.076c.01.04.019.079.068.079a.126.126,0,0,0,.028,0,.063.063,0,0,1,0-.012.028.028,0,0,0,.005-.015h.019a.344.344,0,0,1,.1.019.361.361,0,0,0,.1.019h.012c0-.013,0-.025,0-.037s0-.025,0-.036a.136.136,0,0,1,.074-.023h.01a.207.207,0,0,1-.015.089.164.164,0,0,0-.013.086h.014c0,.008,0,.015,0,.022a.14.14,0,0,1-.009.091.128.128,0,0,1-.013.014c-.014.013-.033.032-.029.047s.012.015.028.02c0,0,0,.009,0,.013a.09.09,0,0,0,.017.069c.027-.039.088-.044.131-.044l.065,0,.035,0a.141.141,0,0,0,.022.066l0,.007a.124.124,0,0,0,.028,0,.022.022,0,0,0,0,.007.043.043,0,0,1,0,.007.118.118,0,0,0,.029,0,.149.149,0,0,0,.031,0,.035.035,0,0,1,.04-.039.018.018,0,0,1,0-.007.043.043,0,0,0,0-.007l.033,0,.034,0a.074.074,0,0,0,.021.045.067.067,0,0,1,.02.052h.042l.031,0a.1.1,0,0,1,.026,0,.267.267,0,0,1,.081.053.278.278,0,0,1,.049.067.382.382,0,0,1-.014.123.568.568,0,0,0-.014.086c0,.043-.009.052-.041.08l-.016.012a.1.1,0,0,0-.047.052c-.089,0-.172.007-.255.007l-.029,0-.038,0a.112.112,0,0,0-.065.015.083.083,0,0,0-.023.035c-.009.02-.017.039-.042.04,0,.069-.036.072-.084.074a.235.235,0,0,0-.067.011.184.184,0,0,0-.084.071l0,0a.089.089,0,0,0-.027.051.272.272,0,0,1-.008.032c-.008.025-.017.029-.025.029l-.012,0-.014,0a.035.035,0,0,0-.024.01c-.023.021.017.085.038.119l.011.018a.3.3,0,0,1,.044.166.167.167,0,0,0-.044.025h.014c.029,0,.045,0,.054.013s.013.029.01.065c0,.011-.02.019-.036.027l-.02.01a.294.294,0,0,0-.06.074c-.013.028-.058.2-.028.251a.025.025,0,0,0,.021.013.088.088,0,0,0,0,.01.051.051,0,0,1,0,.011h.056a.037.037,0,0,1,0-.016.039.039,0,0,0,0-.016.12.12,0,0,1,.046-.009.106.106,0,0,1,.044.009.1.1,0,0,0,0,.014c0,.018,0,.039-.006.048a.028.028,0,0,1-.021.007l-.016,0-.019,0H50.6c-.019.006-.022.012-.025.021a.069.069,0,0,1-.012.02.062.062,0,0,1-.03.022l-.021.008-.01,0c-.016.006-.016.007-.032.03l-.01.016a.15.15,0,0,1-.022.03,1.318,1.318,0,0,0-.092.1l-.005.007a.141.141,0,0,1-.072.043.356.356,0,0,0-.039.015c-.041.017-.042.034-.044.059a.137.137,0,0,1-.007.045.1.1,0,0,1-.045.041.134.134,0,0,0-.044.035l-.011.014A.082.082,0,0,1,50,8.164a.356.356,0,0,0,0,.036c0,.012,0,.025,0,.037a.086.086,0,0,0-.045.039.083.083,0,0,1-.046.038.041.041,0,0,1,0,0,.024.024,0,0,0,0,0h-.024c-.034,0-.076,0-.094.021a.041.041,0,0,0-.007.036h.008a.04.04,0,0,1,.032.014.036.036,0,0,1,0,.032l-.022.007a.209.209,0,0,0-.057.019.05.05,0,0,0-.018.046.1.1,0,0,0,.062.057.74.74,0,0,1-.016.193c0,.009,0,.016,0,.023,0,.032-.005.039-.047.06l-.014.007-.012.006-.013.008a.21.21,0,0,0-.071.059c-.008.013-.015.027-.021.039-.02.04-.037.074-.09.076h-.018a.558.558,0,0,1-.084-.008.63.63,0,0,0-.085-.008.379.379,0,0,0-.2.063l-.015.008A1.39,1.39,0,0,1,49,9.454c-.009.028-.018.057-.026.085s-.025.084-.04.124a.424.424,0,0,1-.111.18.675.675,0,0,0-.141.191.615.615,0,0,1-.169.213.943.943,0,0,1-.181.1.884.884,0,0,0-.193.106.238.238,0,0,1-.115.044.475.475,0,0,0-.069.016c-.112.037-.175.16-.226.258l-.008.015c-.056.01-.05.065-.044.117a.2.2,0,0,1,0,.081.149.149,0,0,1-.09.086l-.028.015-.035.018a.3.3,0,0,0-.115.085.5.5,0,0,0-.06.138.333.333,0,0,1-.372.268c-.043,0-.088,0-.132-.006s-.091-.007-.135-.007a.774.774,0,0,0-.311.053.805.805,0,0,0-.1.052.429.429,0,0,1-.2.077.2.2,0,0,1-.044-.005.408.408,0,0,1-.209-.211.313.313,0,0,1-.008-.087.116.116,0,0,0-.041-.108.227.227,0,0,0-.152-.056.479.479,0,0,0-.323.169.2.2,0,0,0-.031.055.2.2,0,0,1-.027.05c-.06.075-.108.135-.157.2l-.025.033a1.162,1.162,0,0,1-.179.2,1.355,1.355,0,0,1-.157.1c-.039.022-.08.044-.117.068a.244.244,0,0,0-.129.219c0,.023-.007.048-.012.077a.253.253,0,0,1-.035.084.276.276,0,0,0-.034.077c-.042.168.041.214.146.273a.9.9,0,0,1,.111.069.4.4,0,0,1,.038.034.335.335,0,0,0,.044.037.094.094,0,0,1,.019.022.051.051,0,0,0,.037.027h.007c.012,0,.017-.009.022-.018s.009-.015.018-.015l.036,0a.414.414,0,0,1,.219.06c.068.046.064.123.06.2,0,.019,0,.038,0,.057s0,.014,0,.021a.19.19,0,0,1-.023.117.214.214,0,0,1-.049.05.191.191,0,0,0-.044.044.407.407,0,0,0-.021.264.1.1,0,0,0,.046.045.068.068,0,0,1,.031.026.2.2,0,0,1,.006.089c0,.016,0,.032,0,.044.05.01.054.027.06.047a.064.064,0,0,0,.019.035.285.285,0,0,0,.092.046.841.841,0,0,0,.254.035c.061,0,.1,0,.119.023s.02.055.02.12V14.4a.833.833,0,0,0,.035.252,1.8,1.8,0,0,0,.1.241.617.617,0,0,0,.051.081.352.352,0,0,1,.065.125.327.327,0,0,0,.076.15c.015.019.031.04.049.068s.023.033.039.053a.755.755,0,0,1,.116.186h0a.12.12,0,0,1,.007.061h-.013c-.045,0-.121.01-.129.079a.035.035,0,0,1,.014.005.045.045,0,0,0,.014.006.332.332,0,0,1-.012.094.261.261,0,0,0-.009.1l.062,0h.1v.021a.066.066,0,0,0-.013.013.052.052,0,0,1-.01.01.187.187,0,0,0-.1.059l-.023.02a.085.085,0,0,0-.061-.018h-.039a.042.042,0,0,1,0,.007.022.022,0,0,0,0,.007c-.075.005-.093.065-.1.115l-.031,0c-.034,0-.069,0-.1,0a.387.387,0,0,1-.14-.02c-.071-.028-.063-.089-.054-.153a.36.36,0,0,0,0-.091c-.035,0-.075,0-.119,0l-.089,0h-.01a.342.342,0,0,0-.09.015.169.169,0,0,0-.044.03.183.183,0,0,1-.049.033.268.268,0,0,1-.085.015h-.014c-.049,0-.052,0-.078.028l-.012.01c-.021.018-.043.035-.067.052s-.044.032-.065.049c0,.023-.036.035-.1.035-.027,0-.055,0-.077,0l-.038,0a.206.206,0,0,1-.211-.108l-.014-.021a.238.238,0,0,0-.062-.071.1.1,0,0,0-.037-.005l-.051,0-.035,0a.314.314,0,0,1-.078-.012l-.028-.007-.012,0a.132.132,0,0,0-.025,0c-.016,0-.027.007-.035.045l-.015,0a.056.056,0,0,1-.036-.015.111.111,0,0,0-.026-.015.117.117,0,0,0-.035-.01.073.073,0,0,0-.02,0l-.014,0-.028.008a.271.271,0,0,1-.078.016.132.132,0,0,1-.053-.011.093.093,0,0,1-.028-.023c-.012-.013-.025-.026-.037-.027h0a.057.057,0,0,0-.035.02.087.087,0,0,1-.023.017.113.113,0,0,1-.042.01c-.034,0-.042-.03-.052-.068l-.007-.025h0c-.048,0-.082.107-.088.129-.038,0-.044-.051-.049-.1a.2.2,0,0,0-.011-.056c-.011-.022-.02-.033-.028-.033-.023,0-.025.1-.025.125a.541.541,0,0,1-.033.177.375.375,0,0,0-.013.073.252.252,0,0,1-.026.1c-.038,0-.079,0-.125,0l-.127,0-.125,0h-.058a.147.147,0,0,1-.028,0,.1.1,0,0,1-.03-.015.067.067,0,0,0-.033-.015c-.028,0-.031.012-.036.025a.044.044,0,0,1-.017.025.091.091,0,0,1-.047.01h-.034a.083.083,0,0,1-.024.03.074.074,0,0,0-.024.03.091.091,0,0,0,0,.04c0,.021,0,.042-.019.054-.006.02-.012.039-.019.059s-.015.044-.023.069c0,0,0,0-.015,0l-.017,0a.021.021,0,0,1,.005.021.146.146,0,0,1-.017.047c-.012.022-.018.035.015.057a.455.455,0,0,0,.164.027h.023c.068,0,.077-.038.087-.082a.207.207,0,0,1,.027-.072.1.1,0,0,1,.085-.035l.036,0H42.9a.163.163,0,0,0,.05-.007.565.565,0,0,0,.093-.053.12.12,0,0,0,.025-.027c.014-.017.028-.035.049-.035l.011,0a.166.166,0,0,0-.017.055.125.125,0,0,1-.018.053.077.077,0,0,1-.056.021.135.135,0,0,0-.039.008.162.162,0,0,0-.037.031.209.209,0,0,1-.035.031l-.01.007a.109.109,0,0,1-.073.023h-.023c-.021,0-.028,0-.035.013a.226.226,0,0,0-.011.025.52.52,0,0,0-.007.184.1.1,0,0,1,.03-.005.059.059,0,0,1,.06.047c.008.029,0,.032-.013.038A.087.087,0,0,0,42.81,17h.005a.339.339,0,0,1,.132.04c.01,0,.017.01.018.017s-.008.025-.02.041a.087.087,0,0,0-.028.07c.024,0,.036-.017.047-.034s.022-.032.043-.033a.123.123,0,0,1-.014.083.052.052,0,0,1-.022.018c-.007,0-.014.007-.016.013a.035.035,0,0,0,.008.024.19.19,0,0,0,.045-.035.118.118,0,0,1,.07-.043l.014,0v.021c-.033,0-.044.029-.053.053s-.016.042-.039.042h-.005l.023.028a.233.233,0,0,1,.055.091.261.261,0,0,1,.136.081.43.43,0,0,0,.079.06l.019.01a.9.9,0,0,1,.206.128l.051.041.051.042a.39.39,0,0,1,.031.031.184.184,0,0,0,.078.059.272.272,0,0,0,.07.007c.06,0,.116,0,.119.078l.033,0a.112.112,0,0,0,.046-.009.018.018,0,0,1,0-.015c.006-.007.021-.011.043-.011a.627.627,0,0,1,.1.011l.042.006c.016,0,.033.005.049.008a.347.347,0,0,0,.07.009l.023,0a.216.216,0,0,0,.041-.012.146.146,0,0,1,.056-.013h.007a.094.094,0,0,1,0-.01.048.048,0,0,0,0-.01.183.183,0,0,1,.113-.028h.055a.246.246,0,0,0,.085-.012.1.1,0,0,0,.048-.041.1.1,0,0,1,.054-.044l.023,0,.036,0,.035,0a.058.058,0,0,0,.022,0c.008,0,.041-.047.037-.062a.007.007,0,0,0-.007-.005h-.067a.043.043,0,0,1,.012-.036.06.06,0,0,1,.044-.021.049.049,0,0,1,.02,0,.065.065,0,0,1,.033.034c.005.009.009.017.017.017a.084.084,0,0,0,.04-.021.09.09,0,0,1,.025-.072.175.175,0,0,1,.124-.049h.02a.077.077,0,0,0,.02.059.065.065,0,0,0,.048.019.1.1,0,0,0,.064-.025l-.014.023a.207.207,0,0,1-.042.057.213.213,0,0,1-.028.022.1.1,0,0,0-.041.047.558.558,0,0,0-.06.223.3.3,0,0,0-.109.093.7.7,0,0,1-.051.054l-.025.018a.154.154,0,0,0-.054.05.12.12,0,0,0-.01.05.182.182,0,0,1-.006.042h-.009a.42.42,0,0,1-.051,0c-.016,0-.033,0-.049,0l-.028,0c-.011,0-.012.008-.014.015s0,.011-.011.011l-.014,0a.045.045,0,0,1-.025-.027.055.055,0,0,0-.028-.029h-.01a.224.224,0,0,0-.04.006l-.012,0a.31.31,0,0,0-.078.039l-.012.007h.074a.143.143,0,0,1-.051.071c-.024.023-.047.045-.049.072h0a.068.068,0,0,0-.021,0,.071.071,0,0,1-.023,0h-.005a.018.018,0,0,1,0,.007.057.057,0,0,0,0,.007l-.018,0-.019,0a.048.048,0,0,0-.007-.042.04.04,0,0,0-.032-.012.179.179,0,0,0-.1.037.021.021,0,0,0-.005.017.018.018,0,0,1-.006.017.022.022,0,0,1-.013,0h-.01a.014.014,0,0,0-.009,0,.051.051,0,0,1-.025.007c-.009,0-.016,0-.02.007a.036.036,0,0,0,0,.029.057.057,0,0,1-.028.007.093.093,0,0,0-.005-.019.063.063,0,0,1-.006-.032H44.1a.763.763,0,0,0-.1.009c-.023,0-.047.006-.071.008l.021.007a.093.093,0,0,1,0,.05l-.019,0c-.021,0-.03-.013-.04-.027a.058.058,0,0,0-.034-.028h-.006a.186.186,0,0,0-.064.022l-.022.01a.261.261,0,0,1-.052.013.231.231,0,0,0-.058.015.173.173,0,0,0-.031.021.136.136,0,0,1-.04.025c0-.018.016-.024.027-.031s.029-.016.024-.042h-.014q-.037,0-.045-.016c-.012-.023.016-.066.04-.1a.515.515,0,0,0,.029-.048.048.048,0,0,1-.032.012.136.136,0,0,1-.027,0,.14.14,0,0,0-.03,0h-.013a.084.084,0,0,0-.029.014.072.072,0,0,1-.04.016H43.46a.055.055,0,0,1-.05-.032.043.043,0,0,1,.018-.045.06.06,0,0,1,.035-.012c.018,0,.034,0,.034-.032h-.016l-.036,0a.072.072,0,0,0-.055.017.033.033,0,0,0-.007.03.038.038,0,0,1,0,.023.078.078,0,0,1-.016.021.045.045,0,0,0-.014.023.061.061,0,0,0-.042.039c-.017.055.046.141.088.2l.023.033c.014.023.026.048.038.072a.941.941,0,0,0,.047.087,1.937,1.937,0,0,0,.148.183c.043.049.088.1.128.155l.014.019a.413.413,0,0,0,.111.116.6.6,0,0,1,.093.085.727.727,0,0,0,.06.059.628.628,0,0,1,.134.147l.008.013c.024.04.05.082.1.082h.012a.037.037,0,0,0-.007.009.027.027,0,0,1-.014.014c.009.118.15.235.243.313l.018.015c.022.019.042.039.062.059a.864.864,0,0,0,.091.081l.037.025a.289.289,0,0,1,.065.052l.017.019a.8.8,0,0,0,.062.064.4.4,0,0,0,.094.062.472.472,0,0,1,.082.051.293.293,0,0,1,.034.035.262.262,0,0,0,.045.043.1.1,0,0,0,.058.02l.035,0a.159.159,0,0,1,.073.042.136.136,0,0,0,.089.043h.006a.073.073,0,0,0,.037-.014s-.007.008-.007.012.019.007.026.007h.014a.035.035,0,0,0,.013,0,.011.011,0,0,0,.01-.008.016.016,0,0,0-.007-.015h0a.034.034,0,0,0-.014,0l-.013,0a.049.049,0,0,1,.023-.006h0a.094.094,0,0,1,.055.021.152.152,0,0,0,.032.018.083.083,0,0,1,.038-.009.212.212,0,0,1,.113.046.149.149,0,0,1,.061-.04.1.1,0,0,0,.05-.033c.018,0,.036,0,.054,0a.2.2,0,0,0,.161-.047.115.115,0,0,1,.07-.03l.031,0h.059a.142.142,0,0,1,.118-.082l.028,0c.033,0,.075,0,.093-.022a.039.039,0,0,0,.009-.029h-.007c-.038,0-.08,0-.093.046a.033.033,0,0,1,0-.037c.019-.034.1-.049.131-.049h0l.035,0c.02,0,.038,0,.057,0a.149.149,0,0,0,.1-.032.124.124,0,0,1,.106-.047l.026,0a.308.308,0,0,0,.132-.057c.011-.008.022-.018.033-.027a.134.134,0,0,1,.087-.047h.01c0-.013,0-.025,0-.038s0-.024,0-.036H47.1a.6.6,0,0,1,.169-.223.239.239,0,0,0,.056-.192c0-.021,0-.044,0-.065.044-.009.033-.07.026-.114a.266.266,0,0,1,0-.032.258.258,0,0,1,0-.039.164.164,0,0,0,0-.054.083.083,0,0,0-.019-.037.065.065,0,0,1-.013-.023.19.19,0,0,1,.03-.147.327.327,0,0,1,.022-.03.191.191,0,0,0,.043-.076.04.04,0,0,0,.016-.013.092.092,0,0,1,.012-.012h-.024A.145.145,0,0,1,47.342,19a.15.15,0,0,0,.06-.111l0-.008h.012a.09.09,0,0,1,.054.022.1.1,0,0,0,.056.022.062.062,0,0,0,.05-.021.059.059,0,0,1,.045-.019h.012a.054.054,0,0,0,0-.027h-.12c.008-.022.024-.031.054-.031h.02c.006-.039.026-.059.058-.059a.4.4,0,0,1,.173.081l.026.017a.244.244,0,0,0,.113.022.523.523,0,0,0,.188-.036.443.443,0,0,0-.045.045.3.3,0,0,1-.066.061.079.079,0,0,1-.034.01.047.047,0,0,1-.022-.007.119.119,0,0,0-.03-.01.216.216,0,0,0-.038-.007.139.139,0,0,1-.06-.016.21.21,0,0,1-.047-.045c-.016-.019-.03-.035-.047-.035s-.031.013-.052.042a.193.193,0,0,0-.023.074c-.007.035-.013.069-.035.08l.01.007c.019.013.038.027.037.052-.054.011-.044.176-.044.177l.042,0,.042,0c.012-.031.1-.048.171-.048a.2.2,0,0,1,.084.013.586.586,0,0,0-.063.029.269.269,0,0,1-.109.038h-.038l-.035,0a.078.078,0,0,0-.077.035.154.154,0,0,0,0,.09.362.362,0,0,1,.005.039.215.215,0,0,1-.012.058.129.129,0,0,0-.009.071l.043,0c.067.006.192.018.193.037v.021h-.124a.341.341,0,0,0-.091.01l.007.007,0,0a.055.055,0,0,0,.021.014.077.077,0,0,0,.005.024.063.063,0,0,1,0,.027h.019a.2.2,0,0,0,.127-.037l.024-.02a.073.073,0,0,1,.052-.028.087.087,0,0,1,.031.007h-.03a.147.147,0,0,1-.057.08.277.277,0,0,0-.038.039l-.012.019a.158.158,0,0,1-.034.043.077.077,0,0,1-.027.015c-.019.007-.035.013-.024.047h.014a.227.227,0,0,1-.021.124.056.056,0,0,1-.012.017.041.041,0,0,0-.011.042c0,.025.007.039.03.053a.1.1,0,0,0-.028.092h.064c.025,0,.055,0,.056.024a.09.09,0,0,0-.074.062h.021c.019,0,.038,0,.054,0s.037,0,.055,0h.023a.054.054,0,0,1,0,.027H47.9a.145.145,0,0,0-.085.025c.032.016.031.051.03.085q0,.014,0,.028h.008a.5.5,0,0,0,.054,0,.466.466,0,0,1,.051,0,.168.168,0,0,1,.033,0,.162.162,0,0,0-.009.067.537.537,0,0,0-.134.034c0,.008.009.018.013.03a.185.185,0,0,0,.04.069.1.1,0,0,0,.07.016h.028c.008.043-.021.05-.052.057a.153.153,0,0,0-.039.012c0,.024,0,.047,0,.07a.774.774,0,0,1-.029.212.125.125,0,0,1-.008.018c0,.006-.006.012-.008.019a.268.268,0,0,0-.042,0,.264.264,0,0,0-.152.037l0,0a.025.025,0,0,0-.006.027c.016.032.124.035.169.035h.031a.15.15,0,0,1,.028-.024c.019-.013.036-.025.03-.047A.02.02,0,0,0,47.9,21.1l0,0a.03.03,0,0,1,.017.019c.007.024-.012.036-.031.05a.156.156,0,0,0-.026.021H47.8a.053.053,0,0,0-.028.02.093.093,0,0,0-.012.052.085.085,0,0,1-.011.047.081.081,0,0,1-.059.024c-.023,0-.045.007-.052.027s0,.029.014.044a.078.078,0,0,1,.018.054.105.105,0,0,1,0,.013l-.014,0-.019,0a.044.044,0,0,1-.03.021.057.057,0,0,0-.04.032c-.024.048,0,.084.03.118a.125.125,0,0,1,.039.093.16.16,0,0,0-.021-.022.072.072,0,0,1-.028-.044.1.1,0,0,0-.029,0,.125.125,0,0,0-.031,0c-.026.034-.014.054,0,.083l0,.007a.391.391,0,0,1,.047.068l-.018.005a.067.067,0,0,1-.024.006h-.009a.408.408,0,0,1-.012.076.265.265,0,0,0-.011.1h.005a.029.029,0,0,1,.024.01c.019.024,0,.083-.009.136s-.019.076-.01.087a.009.009,0,0,0,.007,0l.033,0,.034,0c0-.007,0-.015,0-.024,0-.029,0-.064.026-.068.009,0,.026.018.043.035a.193.193,0,0,0,.041.036.137.137,0,0,1-.071.037c-.035.011-.067.02-.075.052a.045.045,0,0,0,.014.046.053.053,0,0,1,.016.025.258.258,0,0,1,0,.063.361.361,0,0,0,0,.041.331.331,0,0,0,.049,0h.062a.371.371,0,0,1,.05,0,.175.175,0,0,1-.081.015c-.042,0-.085,0-.1.035a.376.376,0,0,0,.027.157c0,.008.007.012.01.013a.383.383,0,0,1,0,.073c-.025.01-.019.025-.013.043a.07.07,0,0,1,.006.042c-.021.008-.031.048-.025.078s.017.038.034.038h.008c.007-.015.014-.029.021-.042a.254.254,0,0,0,.034-.093h.107a.2.2,0,0,0,.005-.056c0-.041,0-.087.03-.087h0a.1.1,0,0,0,.012.057.138.138,0,0,1,.011.032.166.166,0,0,1-.009.089H47.82l-.024,0h-.027a.053.053,0,0,0-.02,0c-.019.008-.02.015-.022.023a.041.041,0,0,1-.01.021l-.009.01c-.021.021-.051.052-.045.076s.013.019.031.025a.07.07,0,0,0,0,.022.116.116,0,0,1,0,.022h.012l.023,0,.021,0a.068.068,0,0,1,.022,0,.094.094,0,0,1,.025.02.117.117,0,0,0,.026.021.093.093,0,0,1-.063.016c-.017,0-.035,0-.051,0l-.023,0a.094.094,0,0,0,0-.01.1.1,0,0,1,0-.01l-.018,0a.067.067,0,0,0-.061.034.184.184,0,0,0,.005.162.08.08,0,0,0,.019.021.1.1,0,0,1,.018.018.091.091,0,0,1,.009.034.112.112,0,0,0,.007.029.379.379,0,0,0,.067.1h-.012a.14.14,0,0,1-.03,0,.055.055,0,0,1,0-.021h-.028a.642.642,0,0,0-.007.2.085.085,0,0,1,.027.01.09.09,0,0,0,.024.009v.014a.1.1,0,0,1-.015.082l.034,0,.033,0a.045.045,0,0,1,.044-.037h.01a.117.117,0,0,0-.006.06.087.087,0,0,1,0,.039c0-.039-.047-.043-.078-.043l-.045,0h-.023c-.01.055.014.066.045.079a.208.208,0,0,1,.038.02.131.131,0,0,1-.028.089.256.256,0,0,0-.016.03.05.05,0,0,1,.02.005.038.038,0,0,0,.017,0s.007.134.068.134l.013,0a.07.07,0,0,0-.049.042c-.016.047.027.115.06.162a.238.238,0,0,1,.034.18.527.527,0,0,0,0,.1h.017a.091.091,0,0,1,.059.017.134.134,0,0,1-.042.024.228.228,0,0,0-.029.015l0,.013c.03.086.082.23.011.306h.077c.005.026-.005.03-.017.035a.032.032,0,0,0-.02.017.235.235,0,0,0,0,.077v.005c.022.006.048.013.058.032a.047.047,0,0,1,0,.037h0a.033.033,0,0,0-.029.013.057.057,0,0,0,0,.05.028.028,0,0,1,.023.008c.014.017.007.056,0,.093a.243.243,0,0,0-.007.059h.005a.084.084,0,0,1,.025.005.066.066,0,0,0,.021,0,.03.03,0,0,1,0,.027.05.05,0,0,1-.041.013H47.95a.458.458,0,0,1,.045.242c0,.02,0,.039,0,.054a.468.468,0,0,1,0,.071.667.667,0,0,0-.005.067.337.337,0,0,0,.021.092.4.4,0,0,1,.019.069.356.356,0,0,1,0,.054.234.234,0,0,0,.014.093.561.561,0,0,1,.04.154c0,.012,0,.027,0,.042a.321.321,0,0,0,0,.057.073.073,0,0,0,.026.035.05.05,0,0,1,.018.022c.007.031-.017.053-.038.072a.2.2,0,0,0-.02.02.076.076,0,0,0,.044.055.209.209,0,0,1,.026.018.364.364,0,0,1,.07.078.4.4,0,0,1,.053.122.545.545,0,0,0,.033.089l.022.046c.027.055.067.139.08.17a.434.434,0,0,1,.02.055.174.174,0,0,0,.05.092.473.473,0,0,0,.141.045c-.024,0-.082.006-.091.03s0,.024.017.04a.051.051,0,0,0,.039.013l.028,0,.028,0a.054.054,0,0,1,.049.021h-.063a.1.1,0,0,0-.058.013l.031.054a.453.453,0,0,1,.089.265h-.014c-.006.026.014.044.032.061a.161.161,0,0,1,.026.029c.009.014.017.029.024.042a.47.47,0,0,0,.04.066.034.034,0,0,1,.009.016.173.173,0,0,1,.016.054.2.2,0,0,0,.008.034h.013l0,.008a.1.1,0,0,0,.045.039c.018.01.035.019.038.037H48.88l-.037,0c-.032,0-.051.006-.059.018a.041.041,0,0,0,0,.038.048.048,0,0,1,.042.031.037.037,0,0,0,.018.022.045.045,0,0,0,.019,0l.028,0h0l.026,0,.016,0a.063.063,0,0,1,.031.034.057.057,0,0,0,.022.028.039.039,0,0,0,.018,0l.017,0,.016,0a.036.036,0,0,1,.032.018.1.1,0,0,1,.008.051.14.14,0,0,0,0,.043.078.078,0,0,0,.017.024.069.069,0,0,1,.021.041c0,.007,0,.015,0,.022.009.051.016.087.076.087h.019c.007.015,0,.025-.016.036a.052.052,0,0,0-.021.029.1.1,0,0,0,.015.055.211.211,0,0,1,.01.026.351.351,0,0,0,.03.064.058.058,0,0,0,.018.019c.012.009.021.016.012.047h-.014a.057.057,0,0,0,0,.018.073.073,0,0,1,0,.009.039.039,0,0,1,.037.022.232.232,0,0,1-.039.171.57.57,0,0,1,.179.2.289.289,0,0,1,.012.04.3.3,0,0,0,.011.039.124.124,0,0,0,.009.018.079.079,0,0,1,.014.035.306.306,0,0,1,0,.082.5.5,0,0,0,0,.053H49.5a.073.073,0,0,1,.058.017.032.032,0,0,1,0,.029c-.03.01-.046.022-.052.036s0,.036.015.058a.228.228,0,0,1,.023.06.653.653,0,0,1,.007.2c-.012,0-.088.027-.091.042s.019.027.04.034l.021.009.012.007c.024.015.024.015.034.051v0a.485.485,0,0,0,.037.1.18.18,0,0,1,.023.1v.108c0,.007,0,.015,0,.023a.135.135,0,0,0,.01.076.06.06,0,0,0,.038.033.134.134,0,0,1,.036.02c-.051.03-.019.092.01.146a.5.5,0,0,1,.023.047.929.929,0,0,1,.025.091c.006.024.012.049.019.073H49.78a.307.307,0,0,0,.042.089l.022.034a.49.49,0,0,1,.094.2.835.835,0,0,0,.07.237.792.792,0,0,1,.03.087.519.519,0,0,0,.049.124.214.214,0,0,1,.032.092v.029a.149.149,0,0,0,.007.064c.005.011.009.016.012.016s0,0,.005,0a.018.018,0,0,1,.012-.006.072.072,0,0,1,.027.006L50.2,32h.023l.012,0a.018.018,0,0,1,.016.006.015.015,0,0,1,0,.021.02.02,0,0,1-.014.007.211.211,0,0,0,.052.036l.031.018.023.014a.117.117,0,0,1,.019.012h-.065a.058.058,0,0,0,.021.042.13.13,0,0,1,.016.02.1.1,0,0,1,.013.03.045.045,0,0,0,.026.034l.034.017a.271.271,0,0,1,.047.027l.005,0a.1.1,0,0,0,.05.024.148.148,0,0,0,.016.032l0,0a.11.11,0,0,1,.041-.006c.019,0,.039,0,.055,0l.016,0c.022,0,.034.007.037.017a.05.05,0,0,0-.035-.012l-.015,0c-.017,0-.037,0-.056,0a.114.114,0,0,0-.041.006.028.028,0,0,0-.021.032.079.079,0,0,0,.08.061.07.07,0,0,0,.024,0l.006.01a.111.111,0,0,1,.006.039.086.086,0,0,0,.013.052.171.171,0,0,1,.008.017c.007.016.014.034.033.034h.005a.027.027,0,0,1,0,.018h-.01l-.031,0a.065.065,0,0,0,.014.027.067.067,0,0,1,.016.03.165.165,0,0,1,0,.024.1.1,0,0,0,0,.029.043.043,0,0,0,.035.03.072.072,0,0,0,.02,0c.007,0,.008,0,.02.014l.011.013a.221.221,0,0,1,.026.033.129.129,0,0,1,.006.019.053.053,0,0,0,.013.029.048.048,0,0,0,.025,0h.031a.045.045,0,0,1,.031.008.015.015,0,0,1,0,.012.223.223,0,0,1-.032,0H50.83c0,.013.005.018.013.024a.036.036,0,0,1,.013.012.079.079,0,0,1,.007.041v.009a.228.228,0,0,0,.012.065.276.276,0,0,1,.011.048l.005,0a.014.014,0,0,0,.007-.006h0c.019,0,.042,0,.061,0,0,.016-.01.023-.023.03s-.024.014-.026.028a.1.1,0,0,0,.02.05.183.183,0,0,1,.015.03.2.2,0,0,1,.007.043.189.189,0,0,0,.007.042.234.234,0,0,1,.01.042.257.257,0,0,0,.009.04.486.486,0,0,0,.018.052c0,.011.009.022.012.033a.209.209,0,0,1,.009.055.321.321,0,0,0,0,.033.158.158,0,0,0,.015.043.144.144,0,0,1,.015.049c0,.009,0,.019,0,.029a.157.157,0,0,0,.006.055c0-.006,0-.013,0-.019a.055.055,0,0,1,.009-.04h0a.007.007,0,0,0,.006,0,.181.181,0,0,1,.009-.037l0,0a.018.018,0,0,1,0,.007l.012,0a.026.026,0,0,1,.023.019.038.038,0,0,1,0,.03.016.016,0,0,1-.012.007.049.049,0,0,0,.014.046.073.073,0,0,0-.037-.008h-.018a.085.085,0,0,0,.005.034.076.076,0,0,1,.006.026c.019,0,.054.049.061.067a.115.115,0,0,1,.005.025.1.1,0,0,0,.006.025l0,.007c.007.02.017.049.038.049H51.2a.021.021,0,0,1,0-.015.01.01,0,0,1,.008,0,.054.054,0,0,1,.032.017.164.164,0,0,1,.019.033.155.155,0,0,0,.021.034h-.024c-.028,0-.032-.01-.034-.049l-.011,0-.01,0a.127.127,0,0,0,.025.054.2.2,0,0,1,.021.04.129.129,0,0,1,.005.024.1.1,0,0,0,.008.029.126.126,0,0,0,.011.019.105.105,0,0,1,.012.025.314.314,0,0,1,.009.05v.008a.086.086,0,0,1,0,.01.066.066,0,0,0,0,.02.031.031,0,0,0,.01.01.019.019,0,0,1,.008.008.29.29,0,0,1,.021.11.039.039,0,0,1,.033-.011H51.4a.14.14,0,0,0,0-.028.126.126,0,0,1,0-.037.187.187,0,0,1,.032.062c.013.033.026.067.042.071h0a.039.039,0,0,1-.027-.011.041.041,0,0,0-.026-.012.043.043,0,0,0,0-.007.038.038,0,0,1,0-.007l-.009,0a.011.011,0,0,0-.009,0c-.005.006,0,.019,0,.031a.064.064,0,0,1,0,.022.035.035,0,0,0-.012.006.021.021,0,0,1-.009.005.138.138,0,0,1,.016.05.124.124,0,0,0,.04.092.248.248,0,0,1,.03.042.261.261,0,0,0,.028.038l.025.025a.366.366,0,0,1,.04.044.15.15,0,0,0,.021.023.088.088,0,0,1,.03.05.239.239,0,0,1,0,.058.321.321,0,0,0,0,.039.077.077,0,0,0,.017.041.081.081,0,0,1,.018.044c0,.036,0,.071.005.1s0,.064,0,.1l.026,0,.028,0a.027.027,0,0,1,0-.015.025.025,0,0,0,0-.008l.012.008c.029.02.052.036.044.079h0a.16.16,0,0,1-.057-.012.22.22,0,0,0-.045-.012l-.023,0c-.031,0-.052,0-.054-.044a.236.236,0,0,1,.009-.092.165.165,0,0,1,.011-.025.08.08,0,0,0,.014-.054c0-.016-.016-.019-.028-.022s-.03-.007-.035-.03a.258.258,0,0,1,0-.041.18.18,0,0,0-.009-.055.455.455,0,0,1-.023-.094.11.11,0,0,0-.021-.048.269.269,0,0,1-.015-.026.166.166,0,0,1-.01-.018.086.086,0,0,0-.016-.025.051.051,0,0,0-.011-.01.027.027,0,0,1-.014-.023.44.44,0,0,0,.037.158.563.563,0,0,1,.037.133l.007.053a.819.819,0,0,1,.011.121,1.179,1.179,0,0,0,.012.149.39.39,0,0,0,.031.092l.013.032a.2.2,0,0,1,.012.078.31.31,0,0,0,0,.055.341.341,0,0,0,.043.1l.01.019c.01.02.019.042.028.062s.019.045.03.066a.248.248,0,0,1,.017.067.234.234,0,0,0,.015.057.089.089,0,0,0,.007-.045.052.052,0,0,1,.056.05l-.02.006c-.014,0-.028.007-.031.021.022.009.026.031.03.052a.093.093,0,0,0,.009.031.02.02,0,0,1,.02-.014H51.8a.021.021,0,0,0,.015-.005.028.028,0,0,0,.005-.019c0-.01,0-.019.013-.025a.028.028,0,0,1,.012,0,.111.111,0,0,1,.073.053.1.1,0,0,1-.042.022.1.1,0,0,0-.046.024l.009.009a.108.108,0,0,0,.019.017l-.013,0h-.02l-.013,0a.086.086,0,0,0,.058.073h.059c.014,0,.021,0,.022,0a.092.092,0,0,1,0,.044l-.021,0a.114.114,0,0,0-.03-.005c-.005.046.059.117.106.169.017.02.033.036.042.049a1.338,1.338,0,0,0,.122.141c.025.027.052.055.077.084a.3.3,0,0,1,.047.069h0ZM64.858,13.721l-.005,0a.109.109,0,0,0-.062-.025h-.009a.109.109,0,0,0,0-.016s0-.008,0-.012a.141.141,0,0,0-.061-.01H64.66a.6.6,0,0,0-.049-.22c-.022,0-.028.02-.035.037a.07.07,0,0,1-.026.039.036.036,0,0,1-.021.005h-.019a.028.028,0,0,0-.014,0,.04.04,0,0,0-.019.022.046.046,0,0,1-.011.017.22.22,0,0,1-.169.087l-.037,0a.051.051,0,0,1-.01.019.058.058,0,0,0-.008.015h0c-.022,0-.042-.023-.061-.045a.193.193,0,0,0-.038-.037.343.343,0,0,0-.081-.04.366.366,0,0,1-.051-.022L64,13.522a.112.112,0,0,0-.045-.02l-.033-.007a.252.252,0,0,1-.043-.01l-.035-.015a.243.243,0,0,0-.085-.029.026.026,0,0,0-.029.021.19.19,0,0,1-.061.01.221.221,0,0,1-.108-.031l-.019-.011a.157.157,0,0,0-.085-.03h-.005a.061.061,0,0,0-.046.019.175.175,0,0,1-.023.02l-.023.017a.351.351,0,0,1-.039.027l-.009.007a.258.258,0,0,1-.061.039c-.016,0-.029-.016-.042-.032a.134.134,0,0,0-.025-.026.146.146,0,0,0-.085-.025H63.08c0-.049,0-.1,0-.145s0-.1,0-.144h-.021l-.053,0a.213.213,0,0,0-.088.015.409.409,0,0,0-.139.108.165.165,0,0,0-.039.024.1.1,0,0,1-.075.024h-.045a.1.1,0,0,1-.086-.03.1.1,0,0,1-.019-.056c0-.025-.006-.049-.035-.061a.1.1,0,0,0-.04-.006l-.042,0-.041,0h-.014c-.023-.079-.085-.111-.157-.143a.253.253,0,0,0-.1-.016H62a.344.344,0,0,1-.064-.005.09.09,0,0,1-.069-.04c-.021-.038,0-.094.022-.143a.185.185,0,0,0,.01-.118.533.533,0,0,0-.016-.054.388.388,0,0,1-.019-.077.619.619,0,0,0-.143-.01.328.328,0,0,1-.26-.07.149.149,0,0,1-.017-.038.1.1,0,0,0-.019-.038.079.079,0,0,0-.054-.012.127.127,0,0,1-.037,0,.154.154,0,0,1-.035-.02.07.07,0,0,0-.045-.019l-.019,0a.269.269,0,0,0-.01.037c-.005.025-.007.031-.052.039l-.047.008a.564.564,0,0,0-.148.038.138.138,0,0,0-.028.018.1.1,0,0,1-.039.021.1.1,0,0,1-.026,0,.219.219,0,0,1-.111-.045.482.482,0,0,0-.048-.028.376.376,0,0,0-.161-.03c-.035,0-.071,0-.1.005l-.024,0a.211.211,0,0,1-.049.09.153.153,0,0,1-.04.027.338.338,0,0,0-.031.019.045.045,0,0,0-.019.023l-.017,0c-.034,0-.049-.038-.062-.069,0-.01-.007-.018-.011-.026a.158.158,0,0,0-.083-.078.21.21,0,0,0-.068-.01.819.819,0,0,0-.082.006h-.009a.7.7,0,0,1-.072.005H59.88c0-.045-.065-.05-.11-.05l-.059,0h0l-.046,0h-.012c0-.019,0-.039,0-.06a.578.578,0,0,0,0-.078.207.207,0,0,0-.03-.073.281.281,0,0,1-.026-.056.173.173,0,0,0-.038,0,.4.4,0,0,0-.113.022h-.005a.393.393,0,0,1-.106.02l-.023,0a.1.1,0,0,1-.074-.054.272.272,0,0,0-.028-.035.148.148,0,0,0-.077-.043l-.037-.012c-.041-.017-.084-.039-.125-.06s-.068-.035-.1-.05l-.03-.014a.088.088,0,0,0-.037-.013.1.1,0,0,0-.043.015.151.151,0,0,0-.03.026.087.087,0,0,1-.057.034l-.015,0c-.021-.055-.1-.087-.148-.1a1.019,1.019,0,0,1-.129-.05l-.024-.01a.071.071,0,0,0,0-.022.072.072,0,0,1,0-.022.8.8,0,0,1-.167-.1.343.343,0,0,1-.041-.035.119.119,0,0,0-.08-.044.1.1,0,0,0-.034.006.022.022,0,0,1,0,.007.051.051,0,0,0,0,.007H58.02c-.033,0-.036-.056-.038-.1a.263.263,0,0,0-.006-.051.194.194,0,0,0-.1-.131.213.213,0,0,0-.039-.008.143.143,0,0,1-.052-.015l-.025-.015a.5.5,0,0,0-.054-.029.315.315,0,0,1-.046-.03.223.223,0,0,0-.039-.025.1.1,0,0,0-.033,0h-.064a.1.1,0,0,0,0-.027.106.106,0,0,1,0-.024.34.34,0,0,1-.233-.113l-.029-.025a.249.249,0,0,1-.034-.039c-.02-.027-.04-.053-.075-.053a.054.054,0,0,0-.04.013.118.118,0,0,0-.016.082c0,.013,0,.027,0,.04h-.007c-.027,0-.042-.022-.059-.045a.113.113,0,0,0-.044-.044.132.132,0,0,0-.057-.009.088.088,0,0,1-.078-.032.172.172,0,0,1-.024-.04.159.159,0,0,0-.02-.035.129.129,0,0,0-.058-.036h0a.094.094,0,0,0-.048.06.17.17,0,0,1-.031.055l-.049,0-.049,0v0h.048l.044,0a.166.166,0,0,0,.028-.053.093.093,0,0,1,.051-.062l0,0a.114.114,0,0,1-.063-.042c-.026-.051.028-.108.06-.143a.907.907,0,0,0,.137-.206.524.524,0,0,0,.03-.07.26.26,0,0,1,.056-.1.062.062,0,0,1,0-.021.1.1,0,0,0,0-.016h.074a.057.057,0,0,0,0-.047.036.036,0,0,0-.027-.015L57,10.1a.282.282,0,0,1-.029-.179c.022-.008.025-.034.028-.057a.118.118,0,0,1,.011-.044.062.062,0,0,1,.052-.031.066.066,0,0,0,.046-.022c.031-.034.019-.09.009-.144a.225.225,0,0,1-.006-.108c.012-.034.042-.042.071-.051a.2.2,0,0,0,.031-.011.136.136,0,0,0,.084-.1c0-.009.005-.021.008-.033a.12.12,0,0,1,.035-.077.168.168,0,0,1,.083-.017.325.325,0,0,0,.043,0,.3.3,0,0,1,.064-.1.48.48,0,0,0,.052-.07c.02-.039.033-.054.064-.054A.273.273,0,0,1,57.691,9H57.7A.012.012,0,0,0,57.711,9c.009-.022-.039-.093-.042-.1l-.013-.017a.122.122,0,0,0-.087-.059l-.041,0c-.042,0-.061-.005-.1-.064a.362.362,0,0,1-.022-.047c-.014-.034-.025-.064-.064-.075a.141.141,0,0,0-.037-.006.135.135,0,0,1-.042-.008.213.213,0,0,1-.049-.034.16.16,0,0,0-.058-.035A.548.548,0,0,0,57,8.524h-.029c-.045,0-.1,0-.124-.032a.29.29,0,0,1-.033-.211c-.043,0-.061-.031-.081-.062l0-.007a.04.04,0,0,1-.007-.019.048.048,0,0,0-.011-.027.134.134,0,0,0-.065-.034l-.028,0h-.033a.132.132,0,0,1-.04-.005c-.035-.012-.132-.115-.132-.158a.23.23,0,0,1-.047-.02.14.14,0,0,0-.068-.022l-.024,0a.174.174,0,0,0-.056.027.159.159,0,0,1-.058.028.033.033,0,0,1,0,.007.022.022,0,0,0,0,.007.114.114,0,0,1-.029,0c-.058,0-.094-.052-.125-.1a.352.352,0,0,0-.044-.056.148.148,0,0,0-.047-.025.108.108,0,0,1-.064-.046.115.115,0,0,1-.014-.049.072.072,0,0,0-.024-.055c-.066-.011-.066-.057-.066-.111a.271.271,0,0,0-.008-.084l-.014,0-.029,0-.029,0h-.013a.016.016,0,0,0,.01-.017.3.3,0,0,0-.131-.15.111.111,0,0,0,0,.032.082.082,0,0,1-.005.051.03.03,0,0,1-.026.01h-.02a.029.029,0,0,0-.017,0,.055.055,0,0,0-.024.057.083.083,0,0,1-.01.053c-.009.013-.038.022-.078.022a.109.109,0,0,1-.052-.008.218.218,0,0,1-.021-.11c0-.015,0-.03,0-.042a.079.079,0,0,1-.022.011.093.093,0,0,0-.022.01h0l0,0a.5.5,0,0,1-.035-.15.106.106,0,0,1,.03-.052.141.141,0,0,0,.025-.033.389.389,0,0,0,.007-.168.453.453,0,0,0-.067-.183.521.521,0,0,1-.064-.157.183.183,0,0,1,0-.022.1.1,0,0,0-.009-.052.033.033,0,0,0-.031-.017.044.044,0,0,1-.029-.01c-.032-.025-.03-.061-.026-.1V6.432c0-.006,0-.012,0-.017a.087.087,0,0,0-.007-.063.091.091,0,0,0-.042-.028c-.021-.009-.043-.018-.051-.043s.007-.039.023-.051a.076.076,0,0,0,.023-.024.178.178,0,0,0,.007-.092l-.006-.034V6.073h-.018c-.019-.006-.021-.009-.039-.032l-.007-.009-.01-.014a.085.085,0,0,0-.02-.023.061.061,0,0,1,.034.03l.01.015c.025.032.025.032.072.032h.018a.159.159,0,0,0-.053-.085.089.089,0,0,0-.024-.01c-.018-.006-.038-.013-.042-.025a.027.027,0,0,1,0-.022.1.1,0,0,1,.066-.026c.018-.072.107-.089.178-.1l.054-.012a.08.08,0,0,1,.026-.044.14.14,0,0,0,.023-.029l.014,0,.014,0a.555.555,0,0,1-.01.122.583.583,0,0,0-.01.122.4.4,0,0,1,.067.018c0,.014,0,.027,0,.04s0,.027,0,.04a.147.147,0,0,1,.105.066l.009.009a.074.074,0,0,1,.014.014.22.22,0,0,0,.073.052l0,0s0,0,0-.007a.067.067,0,0,1,.041-.076.2.2,0,0,0,.024-.016.012.012,0,0,1,.009,0h.013a.016.016,0,0,0,.01,0c.005,0,0-.01,0-.016a.018.018,0,0,1,0-.014.085.085,0,0,0,.012-.019.068.068,0,0,1,.023-.027A.863.863,0,0,1,55.761,6a.189.189,0,0,1,.1-.152.072.072,0,0,0,.067.061l.012,0c.027-.006.033-.025.04-.047a.176.176,0,0,1,.013-.031.1.1,0,0,1,.071-.064.449.449,0,0,0,.049-.025.273.273,0,0,1,.051-.025.132.132,0,0,1-.028-.075.139.139,0,0,0-.023-.07.2.2,0,0,0-.029-.03.19.19,0,0,1-.029-.03.218.218,0,0,1-.021-.039.28.28,0,0,0-.019-.037.4.4,0,0,0-.042-.052.25.25,0,0,1-.064-.1.189.189,0,0,1,.045-.159l.01-.016c.024-.038.03-.068.019-.091-.024-.045-.117-.049-.192-.052l-.059,0a.316.316,0,0,1-.239-.223.423.423,0,0,1,0-.086.249.249,0,0,0-.015-.128,1.286,1.286,0,0,1,.167-.016c.014-.037.007-.047,0-.063L55.63,4.43a1.075,1.075,0,0,1-.067-.189,1.212,1.212,0,0,0-.062-.178l0-.01,0-.006.008-.007a.263.263,0,0,1,.092-.062l.012,0a.071.071,0,0,1,.036.012A.077.077,0,0,0,55.669,4h.013l.023,0h0l.021,0,.017,0a.359.359,0,0,1,.05.016.207.207,0,0,0,.077.017h.019a.931.931,0,0,1,.119-.01h.027a.3.3,0,0,0-.012-.038.239.239,0,0,1-.009-.031.036.036,0,0,1,.033-.035.1.1,0,0,0,.028-.011.155.155,0,0,0,.083-.143.114.114,0,0,0-.005-.022.108.108,0,0,1-.006-.049.134.134,0,0,1,.011-.036.09.09,0,0,0,.01-.056.277.277,0,0,0-.06-.112l.054-.01a.532.532,0,0,1,.115-.015l.024,0,.04,0a.065.065,0,0,0,.044-.01c.014-.013.011-.039.008-.064a.156.156,0,0,1,0-.037c.012-.055.084-.1.131-.128a.218.218,0,0,1,.119-.026h.074c0-.015,0-.03,0-.044a.239.239,0,0,1,.038-.151l0,0A.388.388,0,0,0,56.8,2.93c0-.01.006-.021.009-.031a.083.083,0,0,1,.037-.063.578.578,0,0,0,0-.062c0-.081-.009-.181.071-.2a.247.247,0,0,0,.015-.146.272.272,0,0,1,.008-.129.094.094,0,0,1,.023-.047c.015-.019.028-.035,0-.079a.2.2,0,0,0-.025-.036.133.133,0,0,1-.033-.06.22.22,0,0,1-.026-.015l-.017-.01a.088.088,0,0,0-.035,0,.087.087,0,0,1-.035,0,.21.21,0,0,1-.073-.086l-.018-.029c-.043-.064-.075-.094-.136-.094a.317.317,0,0,0-.068.009.278.278,0,0,1-.069.009.383.383,0,0,1-.134-.03l-.061-.02a.822.822,0,0,1-.085-.034.516.516,0,0,0-.171-.053h0a.08.08,0,0,0-.06-.092.09.09,0,0,0-.022,0,.112.112,0,0,0-.053.017.106.106,0,0,1-.051.018H55.79a.212.212,0,0,0-.013.04c-.007.03-.014.058-.045.072a.114.114,0,0,1-.046.007.611.611,0,0,1-.087-.008l-.023,0-.062-.009a1.1,1.1,0,0,0-.171-.019.3.3,0,0,0-.082.01.232.232,0,0,0-.069.036.25.25,0,0,1-.077.039l-.016,0a.425.425,0,0,0-.139.056l-.013.008a.2.2,0,0,1-.064.033h-.01l-.024,0-.023,0a.045.045,0,0,0-.019,0,.072.072,0,0,0-.031.028.087.087,0,0,1-.024.025.1.1,0,0,1-.041.012.174.174,0,0,0-.033.007.074.074,0,0,1,0,.023.063.063,0,0,0,0,.027h-.017c-.022,0-.045,0-.068,0h-.007c-.024,0-.049,0-.072,0a.244.244,0,0,0-.047,0,.064.064,0,0,0-.056.048.152.152,0,0,1-.025.044.061.061,0,0,1-.045.028.09.09,0,0,1-.037-.012l-.024-.011a.117.117,0,0,0-.042-.011.071.071,0,0,0-.03.008.307.307,0,0,1-.037.014.2.2,0,0,1-.058.007h-.2a.25.25,0,0,0-.057.012.285.285,0,0,1-.064.013l-.012,0c-.019-.007-.028-.017-.027-.029,0-.046.151-.112.18-.118a.078.078,0,0,0-.021-.078c0-.006-.012-.007-.02-.007a.03.03,0,0,1-.021-.007.043.043,0,0,1-.01-.021.055.055,0,0,0-.009-.02.147.147,0,0,0-.114-.04c-.016,0-.032,0-.051,0a.25.25,0,0,1-.076-.025.1.1,0,0,1-.024-.036.083.083,0,0,0-.022-.033.139.139,0,0,0-.083-.018l-.056,0-.043,0h-.017a.17.17,0,0,1-.161-.062.2.2,0,0,1-.056-.156.583.583,0,0,0-.007-.074.274.274,0,0,0-.07-.135.124.124,0,0,0-.1-.037.31.31,0,0,1-.05,0,.162.162,0,0,1-.128-.114.455.455,0,0,0-.024-.047.093.093,0,0,0-.088-.044l-.038,0h0l-.038,0a.125.125,0,0,1-.06-.013A.156.156,0,0,1,52.491,1a.251.251,0,0,0-.025-.034A.156.156,0,0,0,52.417.94a.163.163,0,0,1-.045-.028.608.608,0,0,1-.081-.14.633.633,0,0,1-.024-.061.343.343,0,0,0-.044-.093.594.594,0,0,0-.047-.056,19.078,19.078,0,0,1,9.668.126A18.795,18.795,0,0,1,73.15,9.505l-.031-.022a.376.376,0,0,0-.2-.094h-.008V9.4c0,.057-.006.089-.064.112a.306.306,0,0,1-.075.018.293.293,0,0,0-.081.021.209.209,0,0,0-.082.072.376.376,0,0,1-.045.05l-.011.01a.208.208,0,0,0-.077.1c-.007.028-.031.119-.053.119h-.07c-.02,0-.031,0-.035.007s0,.029.012.045.022.029.017.043c-.009.029-.116.076-.143.081.008.045-.047.076-.084.1l-.016.009a.244.244,0,0,0-.061.049l-.01.013a.156.156,0,0,1-.064.056.1.1,0,0,1-.037.006H71.9l-.027,0-.023,0a.176.176,0,0,0-.05.018l-.02.01-.078.033-.079.034a.176.176,0,0,1-.07.012h-.029a.18.18,0,0,0-.054.007c-.038.013-.035.054-.032.094,0,.011,0,.022,0,.033a.261.261,0,0,1-.03.144.327.327,0,0,0-.015.031.131.131,0,0,1-.02.036.075.075,0,0,1-.023.02.1.1,0,0,0-.021.017.137.137,0,0,0-.016.025.1.1,0,0,1-.026.032.124.124,0,0,1-.033.017.1.1,0,0,0-.037.022.139.139,0,0,0-.017.025.115.115,0,0,1-.032.039.366.366,0,0,1-.037.022l-.021.012a.263.263,0,0,1-.053.023.159.159,0,0,0-.084.048.073.073,0,0,0-.009.03.063.063,0,0,1-.015.039.111.111,0,0,1-.024.022c-.018.013-.036.027-.026.056l.026.012a.121.121,0,0,1,.053.034A.06.06,0,0,1,71,11.3c-.009.037-.061.064-.112.091s-.116.061-.109.106a.084.084,0,0,1-.051.013h-.058a.1.1,0,0,0-.053.012.233.233,0,0,0-.031.022c-.011.009-.019.015-.026.015s-.019-.013-.031-.047a.156.156,0,0,0-.045-.007.106.106,0,0,0-.024,0,.021.021,0,0,0,.012,0v.055l-.033,0a.214.214,0,0,0-.1.023l-.021.01a.1.1,0,0,0-.044.029.14.14,0,0,0-.017.029.075.075,0,0,1-.025.035.047.047,0,0,1-.03.01.128.128,0,0,1-.037-.007.724.724,0,0,0-.174-.028H69.8c0,.008,0,.017,0,.027,0,.047,0,.11-.053.117a.144.144,0,0,0,.024.043.172.172,0,0,1,.023.04.207.207,0,0,1,.008.038.133.133,0,0,0,.013.049.126.126,0,0,0,.068.04l.027.011a.082.082,0,0,1,.054.055c0,.008.007.018.013.029a.078.078,0,0,1,.086-.045H70.1a.154.154,0,0,0,.085-.03l.026-.016a.07.07,0,0,1,.032-.011c.016,0,.024.013.034.03s.01.017.017.027.031.038.047.057l.024.028.007.008c.016.017.037.04.028.061a.038.038,0,0,1-.021.013.046.046,0,0,0-.025.017.052.052,0,0,0,0,.026.053.053,0,0,1,0,.031.044.044,0,0,1-.026.019.055.055,0,0,0-.027.018.212.212,0,0,0-.011.108c.012.037.09.078.127.087a.237.237,0,0,0,.018.076.167.167,0,0,1,.014.108.017.017,0,0,1,0,.008.025.025,0,0,0,0,.008c-.017.051-.075.058-.125.058h-.026a.048.048,0,0,0,0-.01.1.1,0,0,1,0-.01.2.2,0,0,0-.052-.01.037.037,0,0,0-.017,0c-.018.01-.016.013-.013.021a.039.039,0,0,1,0,.017c0,.007,0,.013,0,.019a.07.07,0,0,1-.035.078.215.215,0,0,1,0-.029c0-.027,0-.045-.032-.055a.074.074,0,0,0-.024,0c-.023,0-.032.015-.042.032a.117.117,0,0,1-.016.023.08.08,0,0,1-.059.02l-.04,0-.04,0-.023,0a.17.17,0,0,0-.052.023.136.136,0,0,1-.068.024l-.018,0c0-.022,0-.048,0-.074a.148.148,0,0,1-.032,0,.131.131,0,0,0-.028,0h0c-.01,0-.047.017-.051.018-.037.014-.058.031-.053.073a.333.333,0,0,1-.134.023.451.451,0,0,1-.07-.005.258.258,0,0,1-.04-.008.21.21,0,0,0-.049-.008.1.1,0,0,0-.03,0,.307.307,0,0,0-.043.019.1.1,0,0,1-.055.017h-.019c-.056-.007-.111-.014-.167-.016h-.109a.212.212,0,0,1-.081-.012.824.824,0,0,1-.139-.081l-.007,0a.263.263,0,0,0-.116-.05l-.035,0c-.037,0-.077,0-.116.007l-.041,0v0c0,.064,0,.1-.072.124l-.055.016a1.016,1.016,0,0,0-.1.03.493.493,0,0,1-.08.02.461.461,0,0,0-.059.013.418.418,0,0,0-.079.03l0,.008v0l-.01,0a.368.368,0,0,1-.078.027.834.834,0,0,1-.141.012l-.065,0h-.02a.394.394,0,0,0-.156.038c-.009-.029.011-.052.03-.072l.014-.017-.045-.007a.279.279,0,0,1-.068-.012.168.168,0,0,1-.046-.036.137.137,0,0,0-.056-.04.142.142,0,0,0-.039-.006.169.169,0,0,0-.091.033h0a.175.175,0,0,1-.094.034h-.006a.111.111,0,0,1-.109-.053.143.143,0,0,1-.017-.035c-.007-.02-.01-.03-.06-.036l-.022,0-.022,0H66.77a.009.009,0,0,1-.007,0s0,0,0,0h-.007s0,0,0,0l-.005,0,0,0,0,0-.006,0-.005,0-.023-.018a.239.239,0,0,1-.052-.051.124.124,0,0,1-.016-.049.1.1,0,0,0-.019-.05.405.405,0,0,0-.031-.032c-.017-.017-.017-.017-.013-.047,0-.008,0-.018,0-.031V12.59l0,0c0-.007,0-.015,0-.022a.081.081,0,0,1,.012-.06.069.069,0,0,1,.051-.015.3.3,0,0,1,.01-.035.2.2,0,0,0,.015-.072.054.054,0,0,0-.038-.052.221.221,0,0,1-.025-.014.239.239,0,0,1-.074-.191h-.009a.136.136,0,0,1-.007-.044h0l.012,0,.012,0h0a.128.128,0,0,1,.033-.087.244.244,0,0,0,.018-.028.409.409,0,0,0,.03-.124c-.017,0-.028-.005-.033-.013s.007-.045.017-.062l0-.007a.162.162,0,0,0,.018-.1h-.014a.045.045,0,0,1-.035-.01c-.009-.01-.007-.026,0-.045a.192.192,0,0,0,0-.037c0-.051-.008-.095-.058-.115a.307.307,0,0,0-.077-.023.066.066,0,0,0-.024.007.057.057,0,0,1-.023.007l-.01,0c-.024-.006-.023-.015-.02-.026a.029.029,0,0,0-.008-.031.04.04,0,0,0-.028-.007h-.037a.087.087,0,0,1,0,.027.143.143,0,0,0,0,.017h-.051c0,.012,0,.023,0,.036s0,.025,0,.037h0a.057.057,0,0,1-.037-.019.071.071,0,0,0-.039-.021.161.161,0,0,1-.026.046l-.014.02s-.016.039-.016.042a.037.037,0,0,1-.018.008c-.01,0-.011-.013-.012-.025s0-.022-.009-.024l-.024,0c-.03,0-.035.015-.041.032a.048.048,0,0,1-.034.037l-.009,0a.231.231,0,0,1-.037-.006h0a.223.223,0,0,0-.041-.006c-.009,0-.014,0-.017.005a.014.014,0,0,0,0,.013h-.085a.116.116,0,0,0,.035.076.137.137,0,0,1,.027.041.385.385,0,0,1-.023.136c0,.01-.01.021-.016.032a.385.385,0,0,0-.019.041l0,.01a.152.152,0,0,1-.02.043.14.14,0,0,0-.014.037.2.2,0,0,1-.009.027.124.124,0,0,1-.038.044.078.078,0,0,0-.037.062.22.22,0,0,0,.011.059.157.157,0,0,1,.01.077.136.136,0,0,1-.012.034.091.091,0,0,0-.011.062c0,.013.006.026.009.037.012.049.019.076-.043.108h0l0,0,.033.007.009.005a.3.3,0,0,1,0,.094c0,.051-.007.1.012.122a.04.04,0,0,0,.028.009h.028a.037.037,0,0,1,.031.013.053.053,0,0,1,.009.037.038.038,0,0,0,.006.027.023.023,0,0,0,.017.005h.013v.042c0,.006,0,.012,0,.018a.22.22,0,0,0,0,.039.077.077,0,0,0,0,.023.129.129,0,0,0,.042.078l.007.007.005.008a.092.092,0,0,1,.011.015l.007.011c.022.032.058.085.048.116a.083.083,0,0,1-.023.02.113.113,0,0,0-.037.035.128.128,0,0,0-.012.041.477.477,0,0,0,0,.057c0,.081-.006.107-.077.107h-.03a.114.114,0,0,0,0-.016.068.068,0,0,1,0-.021.123.123,0,0,0-.03.086.326.326,0,0,1-.005.039.568.568,0,0,1-.042.126h-.005c-.021,0-.051-.032-.082-.067a.3.3,0,0,0-.089-.077.044.044,0,0,1,0,.025.05.05,0,0,0,0,.019c-.017,0-.11.022-.166.035l-.045.01a.133.133,0,0,0-.045.017l-.026.012a.1.1,0,0,1-.032.005.251.251,0,0,1-.078-.018.243.243,0,0,0-.076-.017.088.088,0,0,0-.023,0c-.038.008-.045.036-.051.063s-.011.045-.034.054l-.01,0A.082.082,0,0,1,64.858,13.721Z" transform="translate(138.792 406.145)" fill="#fff"/>
    <rect id="Rectangle_40" data-name="Rectangle 40" width="220" height="1" transform="translate(104 462.855)" fill="url(#linear-gradient)"/>
  </g>
</svg>
