<svg xmlns="http://www.w3.org/2000/svg" width="23.767" height="21.982" viewBox="0 0 23.767 21.982">
  <path id="Path_610" data-name="Path 610" d="M126.13-783.077v-5.636h-1.3a.962.962,0,0,1-.708-.286.963.963,0,0,1-.286-.709.961.961,0,0,1,.286-.709.962.962,0,0,1,.708-.286h1.382a6.627,6.627,0,0,1,2.007-4.172,7.112,7.112,0,0,1,4.21-2.045v-4.952a1.16,1.16,0,0,1,.344-.856,1.163,1.163,0,0,1,.854-.343h5.61a1.16,1.16,0,0,1,.854.344,1.159,1.159,0,0,1,.345.854v2.142a1.157,1.157,0,0,1-.346.854,1.167,1.167,0,0,1-.858.345h-4.815v1.612a7.112,7.112,0,0,1,4.21,2.045,6.626,6.626,0,0,1,2.007,4.172h1.382a.961.961,0,0,1,.708.286.962.962,0,0,1,.286.709.961.961,0,0,1-.286.708.962.962,0,0,1-.708.286h-1.3v5.636h3.6a.962.962,0,0,1,.708.286.963.963,0,0,1,.286.709.961.961,0,0,1-.286.708.962.962,0,0,1-.708.286H122.535a.961.961,0,0,1-.708-.286.962.962,0,0,1-.286-.709.961.961,0,0,1,.286-.708.962.962,0,0,1,.708-.286Zm1.989,0h4.31v-5.636h-4.31Zm6.3,0h4.31v-5.636h-4.31Zm-6.176-7.625h10.364a4.8,4.8,0,0,0-1.769-3.1,5.237,5.237,0,0,0-3.413-1.213,5.237,5.237,0,0,0-3.413,1.213A4.8,4.8,0,0,0,128.242-790.7ZM133.424-790.7Z" transform="translate(-121.54 803.07)" fill="#0a58c9"/>
</svg>
