<svg xmlns="http://www.w3.org/2000/svg" width="19.821" height="19.821" viewBox="0 0 19.821 19.821">
  <path id="Path_609" data-name="Path 609" d="M148.6-808.778v2.915a1.265,1.265,0,0,0,.381.93,1.265,1.265,0,0,0,.93.381,1.265,1.265,0,0,0,.93-.381,1.265,1.265,0,0,0,.381-.93v-2.915h2.915a1.266,1.266,0,0,0,.93-.381,1.266,1.266,0,0,0,.381-.931,1.265,1.265,0,0,0-.381-.93,1.265,1.265,0,0,0-.93-.381h-2.915v-2.915a1.265,1.265,0,0,0-.381-.93,1.265,1.265,0,0,0-.93-.381,1.265,1.265,0,0,0-.93.381,1.265,1.265,0,0,0-.381.93v2.915h-2.915a1.265,1.265,0,0,0-.93.381,1.265,1.265,0,0,0-.381.93,1.266,1.266,0,0,0,.381.931,1.266,1.266,0,0,0,.93.381Zm-6.491,8.6a2.035,2.035,0,0,1-1.5-.612,2.035,2.035,0,0,1-.612-1.5v-15.606a2.035,2.035,0,0,1,.612-1.5,2.035,2.035,0,0,1,1.5-.612h15.606a2.035,2.035,0,0,1,1.5.612,2.035,2.035,0,0,1,.612,1.5v15.606a2.035,2.035,0,0,1-.612,1.5,2.035,2.035,0,0,1-1.5.612Zm0-1.749h15.606a.342.342,0,0,0,.247-.112.343.343,0,0,0,.112-.247v-15.606a.343.343,0,0,0-.112-.247.342.342,0,0,0-.247-.112H142.108a.342.342,0,0,0-.247.112.343.343,0,0,0-.112.247v15.606a.343.343,0,0,0,.112.247A.343.343,0,0,0,142.108-801.928Zm-.359-16.323v0Z" transform="translate(-140 820)" fill="#0a58c9"/>
</svg>
